<svg version="1.0" xmlns="http://www.w3.org/2000/svg" width="682.667" height="682.667" viewBox="0 0 512 512"><path d="M151.5 17.6C117.2 23.1 91.7 49.9 88.4 84c-.1 1.4-.2 2.8-.3 3.1-.1.3-1.7.6-3.7.7-13.7.5-32.3 9.1-44.3 20.5-4.3 4.1-12.1 14-12.1 15.3 0 .4-.6 1.5-1.3 2.3-1.6 1.9-5.2 10.9-6.6 16.6-4.5 18-2.4 36.3 6.1 52.3 3.3 6.2 11.1 16.4 15.3 20 10.6 9.2 24.5 16 36 17.7 7.6 1.1 35.6 4.7 40.7 5.2 8.6.8 9.9-.4 12.7-11.9 9.1-37 33.9-68.2 67.7-85.2 10.1-5.1 20-8.7 29.2-10.6 4.1-.8 7.1-2.1 8.7-3.8 2.3-2.3 2.5-3.1 2-8.1-.3-3.1-.8-6.3-1-7.1-.2-.8-.6-4.2-1-7.5-.3-3.3-.8-7.1-1-8.5-.5-2.6-1.1-6.9-2.1-15.5-1.8-15.7-10.6-32.2-23.5-43.8-6.8-6.2-21.1-13.8-30.4-16.3-6.1-1.6-22.6-2.6-28-1.8zM335 19.2c-31 8-52.3 32.4-55.5 63.8-.3 3-.8 6.6-1 8-.4 2.5-.9 6.1-2.1 15.5-.3 2.7-.9 7.6-1.3 10.8-.7 5.5-.5 6.3 2.4 10.5.2.2 3.8 1.1 8.2 2.2 24.1 5.7 43.8 16.7 61.4 34 18.5 18.2 29.8 38.2 35.5 62.6.8 3.6 2 7.4 2.7 8.5 1.7 2.7 6 3.2 15.3 2 12.8-1.8 15.7-2.2 19.9-2.6 4.1-.5 17.8-2.5 20.5-3 6.5-1.3 17.1-6.3 24-11.3 22.6-16.2 34.4-45.2 29.3-71.7-.7-3.9-1.5-7.9-1.7-9-.2-1.1-1.8-5.2-3.5-9-10.1-22.1-32.1-38.8-55.6-42-8.2-1.1-8.5-1.3-8.6-4.8 0-1.7-.2-3.9-.4-4.7l-.9-3.6c-1.1-5-3-11-3.8-11.9-.4-.5-.8-1.6-.8-2.5 0-2.2-9.1-15.8-14.1-21.1-9.2-9.6-21.5-16.9-34.4-20.5-9.2-2.5-26.3-2.6-35.5-.2zM116.9 274.4c-.2.2-3.8.7-7.9 1.1-4.1.4-7.7.8-8 1-.3.2-3 .6-6 .9-3 .4-6.6.8-8 1-1.4.2-5.1.7-8.4 1.1-20.1 2.6-40.9 17.3-51.8 36.5-2.4 4.2-7.5 17.2-7.6 19.5-.1.5-.4 3.5-.8 6.5-3.2 24.6 6.3 48.7 25.5 65.3 6.3 5.3 10.5 7.9 21.1 12.5 3.9 1.7 11.7 3.5 19.7 4.5 2.9.4 3.6 1.1 3.9 4.1 2.8 26.3 18.2 48.5 41.1 59.2 10.6 5 17.5 6.6 29.8 6.9 16.1.5 27.8-2.7 41.3-11.2 13.6-8.6 24.9-23.2 30.6-39.6.5-1.6 2.9-17.1 4.2-27.2.2-2.2.9-7.2 1.4-11 2.4-16.8 1.7-20.9-3.8-22.1-34.6-7.6-61.4-24.6-80.9-51-9.9-13.5-19.4-34.3-21.9-48.1-1.3-7.4-3.9-10.2-9.5-10.3-2 0-3.8.2-4 .4zm269.5 1.7c-1.2 1.4-3.1 6.2-4.3 11.3-10.6 43.1-44.3 78.9-86.6 92-4.4 1.3-9.6 2.7-11.5 3.1-5.3 1-7.8 2.5-8.6 5.4-.4 1.4-.7 2.8-.7 3.1 0 .3.4 3.6.7 7.4.4 3.8.8 7.1 1 7.5.2.3.7 3.5 1.1 7.1.7 7.2 1 10 2.1 17.5 2.1 15.6 6.3 25.6 16 37.7 9.1 11.3 21.2 19.3 36.4 24 9.8 3 29.2 3.2 38.5.4 31.6-9.5 49.3-30.9 54.7-66 .2-1.1 1-2 1.8-2.1.8-.1 3.5-.5 6-.9 18.6-2.5 35.7-12.8 48.7-29.3 3.6-4.5 10-18.2 11.9-25.3 1.7-6.5 2.3-23.5 1.1-29.5-2-9.8-3.2-13.4-7.3-21.5-6.6-13.1-17.2-23.8-30.4-30.8-10.1-5.4-15.2-6.8-30.5-8.7-7.1-.9-14.3-1.9-16-2.1-3.5-.6-8.8-1.2-16.5-2-4.9-.5-5.7-.4-7.6 1.7z"/></svg>