<svg width="443" height="385" fill="none" xmlns="http://www.w3.org/2000/svg"><g clip-path="url(#clip0)"><g filter="url(#filter0_d)"><path d="M0 10C0 4.477 4.477 0 10 0h423c5.523 0 10 4.477 10 10v365c0 5.523-4.477 10-10 10H10c-5.523 0-10-4.477-10-10V10z" fill="#1D3954"/></g><path d="M55.924 37.105c.451 0 .845-.137 1.182-.41.338-.274.524-.616.561-1.026h1.196a2.293 2.293 0 01-.437 1.21 2.875 2.875 0 01-1.08.916c-.447.228-.92.342-1.422.342-1.007 0-1.81-.335-2.406-1.005-.593-.675-.89-1.595-.89-2.762v-.212c0-.72.133-1.36.397-1.92a3.027 3.027 0 011.135-1.306c.497-.31 1.083-.465 1.757-.465.83 0 1.518.248 2.064.745.552.497.846 1.141.882 1.935h-1.196c-.037-.479-.219-.871-.547-1.176-.323-.31-.724-.465-1.203-.465-.643 0-1.142.232-1.497.697-.351.46-.526 1.128-.526 2.003v.24c0 .852.175 1.508.526 1.968.35.46.852.69 1.504.69zm8.928.164c-.493.578-1.215.868-2.167.868-.789 0-1.39-.228-1.805-.684-.41-.46-.618-1.14-.622-2.037v-4.812h1.264v4.778c0 1.12.456 1.681 1.368 1.681.966 0 1.608-.36 1.927-1.08v-5.38h1.265V38h-1.203l-.027-.731zm6.733-5.53a3.79 3.79 0 00-.622-.049c-.83 0-1.392.354-1.689 1.06V38H68.01v-7.396h1.23l.02.854c.415-.66 1.003-.991 1.764-.991.246 0 .433.032.561.096v1.175zM74.128 38h-1.265V27.5h1.265V38zm6.767-6.501c.561-.688 1.29-1.032 2.188-1.032 1.563 0 2.352.882 2.365 2.645V38h-1.264v-4.895c-.005-.533-.128-.927-.37-1.182-.236-.255-.608-.383-1.114-.383-.41 0-.77.11-1.08.328-.31.219-.551.506-.725.862V38h-1.264V27.5h1.264v3.999zm8.163-2.686v1.79h1.38v.978h-1.38v4.587c0 .296.061.52.184.67.123.146.333.219.63.219.145 0 .345-.028.6-.082V38a3.669 3.669 0 01-.97.137c-.565 0-.991-.171-1.278-.513-.288-.342-.431-.827-.431-1.456v-4.587h-1.347v-.977h1.347v-1.791h1.265zm4.58 0v1.79h1.38v.978h-1.38v4.587c0 .296.061.52.184.67.123.146.333.219.63.219.145 0 .346-.028.6-.082V38a3.667 3.667 0 01-.97.137c-.565 0-.991-.171-1.278-.513-.287-.342-.431-.827-.431-1.456v-4.587h-1.347v-.977h1.347v-1.791h1.265zm9.112 5.57c0 1.126-.257 2.033-.772 2.721-.515.689-1.213 1.033-2.092 1.033-.898 0-1.604-.285-2.12-.855v3.562h-1.264v-10.24h1.155l.062.82c.515-.638 1.23-.957 2.146-.957.889 0 1.591.335 2.106 1.005.519.67.779 1.602.779 2.796v.116zm-1.265-.143c0-.834-.177-1.492-.533-1.975-.355-.483-.843-.725-1.463-.725-.765 0-1.34.34-1.722 1.019v3.534c.378.674.957 1.011 1.736 1.011.606 0 1.087-.239 1.442-.717.36-.483.54-1.199.54-2.147zm7.185 1.798c0-.342-.13-.606-.39-.793-.255-.191-.704-.355-1.346-.492-.638-.137-1.147-.3-1.525-.492-.374-.192-.652-.42-.834-.684a1.648 1.648 0 01-.266-.943c0-.606.255-1.119.765-1.538.515-.42 1.171-.63 1.969-.63.839 0 1.518.217 2.037.65.524.433.786.987.786 1.661h-1.271c0-.346-.148-.645-.445-.895-.291-.25-.66-.376-1.107-.376-.46 0-.82.1-1.08.3a.948.948 0 00-.39.787c0 .305.121.535.363.69.241.155.676.303 1.305.444.634.142 1.146.31 1.538.506.392.196.682.433.868.711.192.274.288.609.288 1.005 0 .661-.265 1.192-.793 1.593-.529.396-1.215.595-2.058.595-.592 0-1.117-.105-1.572-.315a2.595 2.595 0 01-1.074-.875 2.147 2.147 0 01-.382-1.223h1.264c.023.424.192.76.506 1.011.319.246.738.37 1.258.37.478 0 .861-.096 1.148-.288.292-.196.438-.455.438-.779zm2.871 1.299c0-.219.064-.401.191-.547.133-.146.329-.219.588-.219.26 0 .456.073.588.219a.768.768 0 01.205.547c0 .21-.068.385-.205.526-.132.142-.328.212-.588.212-.259 0-.455-.07-.588-.212a.759.759 0 01-.191-.526zm.007-6.036c0-.219.064-.401.191-.547.132-.146.328-.219.588-.219.26 0 .456.073.588.219a.767.767 0 01.205.547c0 .21-.068.385-.205.526-.132.141-.328.212-.588.212-.26 0-.456-.07-.588-.212a.758.758 0 01-.191-.526zm3.678 7.554h-1.087l4.156-10.808h1.08l-4.149 10.808zm4.238 0h-1.087l4.156-10.808h1.08l-4.149 10.808zM129.547 38c-.073-.146-.132-.406-.178-.78-.588.611-1.29.917-2.105.917-.729 0-1.329-.205-1.798-.615a2.015 2.015 0 01-.697-1.573c0-.77.291-1.367.875-1.79.587-.43 1.412-.643 2.474-.643h1.231v-.581c0-.443-.133-.793-.397-1.053-.264-.265-.654-.397-1.169-.397-.451 0-.829.114-1.135.342-.305.228-.458.504-.458.827h-1.271c0-.369.13-.724.39-1.066.264-.347.619-.62 1.066-.82a3.62 3.62 0 011.483-.301c.853 0 1.52.214 2.003.642.483.424.734 1.01.752 1.757v3.404c0 .68.087 1.22.26 1.62V38h-1.326zm-2.099-.964a2.22 2.22 0 001.128-.308c.356-.205.613-.471.773-.8v-1.517h-.992c-1.549 0-2.324.454-2.324 1.36 0 .397.132.707.397.93.264.224.604.335 1.018.335zm11.396-2.652c0 1.125-.258 2.032-.773 2.72-.515.689-1.212 1.033-2.092 1.033-.897 0-1.604-.285-2.119-.855v3.562h-1.264v-10.24h1.155l.061.82c.515-.638 1.231-.957 2.147-.957.889 0 1.59.335 2.105 1.005.52.67.78 1.602.78 2.796v.116zm-1.265-.144c0-.834-.178-1.492-.533-1.975-.356-.483-.843-.725-1.463-.725-.766 0-1.34.34-1.723 1.019v3.534c.379.674.957 1.011 1.737 1.011.606 0 1.087-.239 1.442-.717.36-.483.54-1.199.54-2.147zm4.252 3.76h-1.265v-7.396h1.265V38zm-1.367-9.358c0-.206.061-.379.184-.52.128-.141.315-.212.561-.212.246 0 .433.07.561.212a.75.75 0 01.191.52.725.725 0 01-.191.512c-.128.137-.315.205-.561.205-.246 0-.433-.068-.561-.205a.738.738 0 01-.184-.512zm3.425 8.695c0-.219.063-.401.191-.547.132-.146.328-.219.588-.219.26 0 .456.073.588.219a.768.768 0 01.205.547c0 .21-.068.385-.205.526-.132.142-.328.212-.588.212-.26 0-.456-.07-.588-.212a.754.754 0 01-.191-.526zm6.631-.233a1.82 1.82 0 001.182-.41c.337-.273.524-.615.561-1.025h1.196a2.295 2.295 0 01-.438 1.21 2.861 2.861 0 01-1.08.916 3.08 3.08 0 01-1.421.342c-1.008 0-1.81-.335-2.407-1.005-.592-.675-.888-1.595-.888-2.762v-.212c0-.72.132-1.36.396-1.92a3.02 3.02 0 011.135-1.306c.497-.31 1.082-.465 1.757-.465.829 0 1.517.248 2.064.745.552.497.846 1.141.882 1.935h-1.196c-.037-.479-.219-.871-.547-1.176-.324-.31-.725-.465-1.203-.465-.643 0-1.142.232-1.497.697-.351.46-.527 1.128-.527 2.003v.24c0 .852.176 1.508.527 1.968.351.46.852.69 1.504.69zm5.735.896h-1.265V27.5h1.265V38zm1.695-3.767c0-.724.141-1.376.424-1.955a3.221 3.221 0 011.189-1.34c.511-.314 1.092-.471 1.744-.471 1.007 0 1.82.348 2.44 1.046.624.697.937 1.624.937 2.782v.089c0 .72-.139 1.367-.417 1.941a3.119 3.119 0 01-1.183 1.333c-.51.32-1.098.479-1.764.479-1.002 0-1.816-.349-2.44-1.046-.62-.697-.93-1.62-.93-2.769v-.089zm1.272.15c0 .821.189 1.48.567 1.976.383.497.893.745 1.531.745.643 0 1.153-.25 1.532-.752.378-.505.567-1.212.567-2.119 0-.81-.194-1.467-.581-1.968a1.825 1.825 0 00-1.531-.76c-.625 0-1.128.25-1.511.746-.383.497-.574 1.208-.574 2.133zm9.379 1.901l1.832-5.68h1.292L169.072 38h-.964l-2.679-7.396h1.292l1.88 5.68zm7.314 1.853c-1.003 0-1.818-.328-2.447-.985-.629-.66-.944-1.542-.944-2.645v-.233c0-.733.139-1.387.417-1.962a3.29 3.29 0 011.176-1.353 2.96 2.96 0 011.641-.492c.961 0 1.709.317 2.242.95.533.633.8 1.54.8 2.72v.527h-5.011c.018.73.23 1.32.636 1.77.41.447.929.67 1.558.67.447 0 .825-.09 1.135-.273a2.86 2.86 0 00.814-.725l.772.602c-.62.953-1.549 1.429-2.789 1.429zm-.157-6.631a1.68 1.68 0 00-1.285.56c-.347.37-.561.89-.643 1.559h3.705v-.096c-.036-.642-.209-1.139-.519-1.49-.31-.355-.73-.533-1.258-.533zm8.087.232a3.797 3.797 0 00-.622-.048c-.83 0-1.393.354-1.689 1.06V38h-1.264v-7.396h1.23l.021.854c.414-.66 1.002-.991 1.763-.991.246 0 .433.032.561.096v1.175zM186.388 38h-1.265V27.5h1.265V38zm4.45-1.852l1.723-5.545h1.353l-2.974 8.539c-.46 1.23-1.191 1.845-2.194 1.845l-.239-.02-.472-.09v-1.025l.342.028c.428 0 .761-.087.998-.26.242-.173.44-.49.595-.95l.28-.752-2.639-7.314h1.381l1.846 5.544zm3.5 1.189c0-.219.064-.401.191-.547.132-.146.328-.219.588-.219.26 0 .456.073.588.219a.768.768 0 01.205.547c0 .21-.068.385-.205.526-.132.142-.328.212-.588.212-.26 0-.456-.07-.588-.212a.759.759 0 01-.191-.526zm6.631-.233a1.82 1.82 0 001.182-.41c.338-.273.524-.615.561-1.025h1.196a2.293 2.293 0 01-.437 1.21 2.876 2.876 0 01-1.08.916 3.088 3.088 0 01-1.422.342c-1.007 0-1.809-.335-2.407-1.005-.592-.675-.888-1.595-.888-2.762v-.212c0-.72.132-1.36.396-1.92a3.027 3.027 0 011.135-1.306c.497-.31 1.082-.465 1.757-.465.829 0 1.517.248 2.064.745.552.497.846 1.141.882 1.935h-1.196c-.037-.479-.219-.871-.547-1.176-.324-.31-.725-.465-1.203-.465-.643 0-1.142.232-1.497.697-.351.46-.527 1.128-.527 2.003v.24c0 .852.176 1.508.527 1.968.351.46.852.69 1.504.69zm4.026-2.87c0-.725.141-1.377.424-1.956a3.221 3.221 0 011.189-1.34c.511-.314 1.092-.471 1.744-.471 1.007 0 1.82.348 2.44 1.046.624.697.937 1.624.937 2.782v.089c0 .72-.139 1.367-.417 1.941a3.119 3.119 0 01-1.183 1.333c-.511.32-1.098.479-1.764.479-1.002 0-1.816-.349-2.44-1.046-.62-.697-.93-1.62-.93-2.769v-.089zm1.272.15c0 .82.189 1.479.567 1.975.383.497.893.745 1.531.745.643 0 1.153-.25 1.531-.752.379-.505.568-1.212.568-2.119 0-.81-.194-1.467-.581-1.968a1.825 1.825 0 00-1.531-.76c-.625 0-1.128.25-1.511.746-.383.497-.574 1.208-.574 2.133zm8.237-3.78l.034.82c.542-.638 1.274-.957 2.194-.957 1.035 0 1.739.396 2.113 1.19a2.81 2.81 0 01.957-.862c.396-.219.863-.328 1.401-.328 1.623 0 2.447.859 2.475 2.577V38h-1.265v-4.88c0-.53-.121-.924-.362-1.183-.242-.265-.647-.397-1.217-.397-.469 0-.859.141-1.169.424-.31.278-.49.654-.54 1.128V38h-1.271v-4.847c0-1.075-.527-1.613-1.58-1.613-.829 0-1.396.353-1.702 1.06V38h-1.264v-7.396h1.196zm11.341 8.25h-1.087l4.156-10.807h1.08l-4.149 10.808zM237.753 38h-6.522v-.91l3.446-3.827c.51-.58.861-1.048 1.052-1.408.196-.365.294-.741.294-1.128 0-.52-.157-.946-.471-1.279-.315-.332-.734-.499-1.258-.499-.629 0-1.119.18-1.47.54-.346.356-.519.852-.519 1.49h-1.265c0-.915.294-1.656.882-2.221.592-.565 1.383-.848 2.372-.848.925 0 1.657.244 2.194.732.538.483.807 1.128.807 1.934 0 .98-.624 2.147-1.873 3.5l-2.666 2.892h4.997V38zm7.581-4.245c0 1.481-.253 2.582-.759 3.302-.506.72-1.296 1.08-2.372 1.08-1.062 0-1.848-.351-2.358-1.053-.511-.706-.775-1.76-.793-3.158v-1.689c0-1.463.253-2.55.759-3.26.505-.711 1.298-1.067 2.378-1.067 1.071 0 1.86.344 2.366 1.032.506.684.765 1.741.779 3.172v1.64zm-1.265-1.73c0-1.07-.15-1.85-.451-2.337-.301-.493-.777-.739-1.429-.739-.647 0-1.118.244-1.415.732-.296.487-.448 1.237-.458 2.249v2.023c0 1.076.155 1.87.465 2.386.315.51.789.766 1.422.766.624 0 1.087-.242 1.388-.725.305-.483.465-1.244.478-2.283v-2.072zM251.11 38h-1.271v-8.429l-2.55.937v-1.149l3.623-1.36h.198V38zm8.552-4.375a3.077 3.077 0 01-.95.759 2.55 2.55 0 01-1.203.287c-.574 0-1.076-.141-1.504-.424-.424-.282-.752-.679-.984-1.19a4.081 4.081 0 01-.349-1.702c0-.665.125-1.264.376-1.797.255-.534.615-.942 1.08-1.224.465-.283 1.007-.424 1.627-.424.984 0 1.759.37 2.324 1.108.57.733.855 1.736.855 3.007v.37c0 1.936-.383 3.351-1.149 4.245-.765.888-1.921 1.344-3.466 1.367h-.246V36.94h.267c1.043-.018 1.846-.289 2.406-.813.561-.529.866-1.363.916-2.502zm-1.948 0c.424 0 .813-.13 1.169-.39.36-.26.622-.58.786-.963v-.506c0-.83-.18-1.504-.54-2.024-.36-.52-.816-.78-1.367-.78-.556 0-1.003.215-1.34.643-.337.424-.506.985-.506 1.682 0 .68.162 1.24.485 1.682a1.56 1.56 0 001.313.656zm7.724.663h-3.335v-1.032h3.335v1.032zm7.349-.533c0 1.481-.253 2.582-.759 3.302-.506.72-1.296 1.08-2.372 1.08-1.062 0-1.848-.351-2.358-1.053-.511-.706-.775-1.76-.793-3.158v-1.689c0-1.463.253-2.55.759-3.26.506-.711 1.298-1.067 2.379-1.067 1.071 0 1.859.344 2.365 1.032.506.684.765 1.741.779 3.172v1.64zm-1.265-1.73c0-1.07-.15-1.85-.451-2.337-.3-.493-.777-.739-1.428-.739-.648 0-1.119.244-1.415.732-.297.487-.449 1.237-.458 2.249v2.023c0 1.076.154 1.87.464 2.386.315.51.789.766 1.422.766.625 0 1.087-.242 1.388-.725.305-.483.465-1.244.478-2.283v-2.072zm4.724.383h.95c.597-.009 1.067-.166 1.408-.472.342-.305.513-.717.513-1.237 0-1.166-.581-1.75-1.743-1.75-.547 0-.984.157-1.312.472-.324.31-.486.722-.486 1.237h-1.264c0-.788.287-1.442.861-1.962.579-.524 1.312-.786 2.201-.786.939 0 1.675.248 2.208.745.533.497.8 1.187.8 2.072 0 .433-.141.852-.424 1.257a2.519 2.519 0 01-1.142.91c.547.173.969.46 1.265.86.301.402.451.892.451 1.47 0 .894-.291 1.603-.875 2.127-.583.524-1.342.786-2.276.786-.934 0-1.695-.253-2.283-.76-.584-.505-.875-1.173-.875-2.002h1.271c0 .524.171.943.513 1.258.342.314.8.471 1.374.471.611 0 1.078-.159 1.401-.478.324-.319.486-.777.486-1.374 0-.579-.178-1.023-.534-1.333-.355-.31-.868-.47-1.538-.479h-.95v-1.032zm8.784 1.88h-3.336v-1.032h3.336v1.032zm7.499.096c0 1.13-.259 2.04-.779 2.727-.52.684-1.217 1.026-2.092 1.026-.934 0-1.656-.33-2.167-.992l-.061.855h-1.162V27.5h1.264v3.917c.511-.634 1.215-.95 2.113-.95.897 0 1.601.34 2.112 1.018.515.68.772 1.61.772 2.79v.109zm-1.264-.144c0-.861-.167-1.526-.499-1.996-.333-.47-.812-.704-1.436-.704-.834 0-1.433.387-1.798 1.162v3.2c.388.774.991 1.161 1.812 1.161.606 0 1.078-.234 1.415-.704.337-.469.506-1.175.506-2.119zm5.933 3.897c-1.002 0-1.818-.328-2.447-.985-.629-.66-.943-1.542-.943-2.645v-.233c0-.733.139-1.387.417-1.962a3.28 3.28 0 011.175-1.353 2.96 2.96 0 011.641-.492c.962 0 1.709.317 2.242.95.533.633.8 1.54.8 2.72v.527h-5.011c.018.73.23 1.32.636 1.77.41.447.93.67 1.559.67.446 0 .824-.09 1.134-.273a2.86 2.86 0 00.814-.725l.772.602c-.619.953-1.549 1.429-2.789 1.429zm-.157-6.631c-.51 0-.939.187-1.285.56-.346.37-.561.89-.643 1.559h3.705v-.096c-.036-.642-.209-1.139-.519-1.49-.31-.355-.729-.533-1.258-.533zm6.228-2.694v1.791h1.38v.978h-1.38v4.587c0 .296.061.52.184.67.123.146.333.219.629.219.146 0 .346-.028.602-.082V38a3.675 3.675 0 01-.971.137c-.565 0-.991-.171-1.278-.513-.288-.342-.431-.827-.431-1.456v-4.587h-1.347v-.977h1.347v-1.791h1.265zm7.43 9.188c-.073-.146-.132-.406-.178-.78-.587.611-1.289.917-2.105.917-.729 0-1.328-.205-1.798-.615a2.015 2.015 0 01-.697-1.573c0-.77.292-1.367.875-1.79.588-.43 1.413-.643 2.475-.643h1.23v-.581c0-.443-.132-.793-.397-1.053-.264-.265-.653-.397-1.168-.397-.452 0-.83.114-1.135.342-.306.228-.458.504-.458.827h-1.272c0-.369.13-.724.39-1.066a2.69 2.69 0 011.066-.82c.452-.2.946-.301 1.484-.301.852 0 1.52.214 2.003.642.483.424.733 1.01.752 1.757v3.404c0 .68.086 1.22.259 1.62V38h-1.326zm-2.098-.964c.396 0 .772-.102 1.128-.308a1.86 1.86 0 00.772-.8v-1.517h-.991c-1.55 0-2.324.454-2.324 1.36 0 .397.132.707.396.93.264.224.604.335 1.019.335zm5.4 1.819h-1.087l4.156-10.808h1.08l-4.149 10.808zm11.765-4.471c0 1.125-.258 2.032-.773 2.72-.515.689-1.212 1.033-2.092 1.033-.897 0-1.604-.285-2.119-.855v3.562h-1.264v-10.24h1.155l.061.82c.515-.638 1.231-.957 2.147-.957.889 0 1.59.335 2.105 1.005.52.67.78 1.602.78 2.796v.116zm-1.265-.144c0-.834-.178-1.492-.533-1.975-.356-.483-.843-.725-1.463-.725-.766 0-1.34.34-1.723 1.019v3.534c.378.674.957 1.011 1.737 1.011.606 0 1.086-.239 1.442-.717.36-.483.54-1.199.54-2.147zm7.444 3.029c-.492.578-1.214.868-2.167.868-.788 0-1.39-.228-1.804-.684-.411-.46-.618-1.14-.622-2.037v-4.812h1.264v4.778c0 1.12.456 1.681 1.367 1.681.967 0 1.609-.36 1.928-1.08v-5.38h1.265V38h-1.203l-.028-.731zm6.734-5.53a3.797 3.797 0 00-.622-.049c-.83 0-1.393.354-1.689 1.06V38h-1.264v-7.396h1.23l.02.854c.415-.66 1.003-.991 1.764-.991.246 0 .433.032.561.096v1.175zm3.999 5.366a1.82 1.82 0 001.182-.41c.338-.274.524-.616.561-1.026h1.196a2.293 2.293 0 01-.437 1.21 2.876 2.876 0 01-1.08.916 3.088 3.088 0 01-1.422.342c-1.007 0-1.81-.335-2.407-1.005-.592-.675-.888-1.595-.888-2.762v-.212c0-.72.132-1.36.396-1.92a3.027 3.027 0 011.135-1.306c.497-.31 1.082-.465 1.757-.465.829 0 1.517.248 2.064.745.552.497.846 1.141.882 1.935h-1.196c-.037-.479-.219-.871-.547-1.176-.324-.31-.725-.465-1.203-.465-.643 0-1.142.232-1.497.697-.351.46-.527 1.128-.527 2.003v.24c0 .852.176 1.508.527 1.968.351.46.852.69 1.504.69zm5.626-5.606c.56-.688 1.289-1.032 2.187-1.032 1.563 0 2.352.882 2.365 2.645V38h-1.264v-4.895c-.005-.533-.128-.927-.369-1.182-.237-.255-.609-.383-1.115-.383-.41 0-.77.11-1.08.328-.31.219-.551.506-.724.862V38h-1.265V27.5h1.265v3.999zM359.316 38c-.073-.146-.132-.406-.177-.78-.588.611-1.29.917-2.106.917-.729 0-1.328-.205-1.798-.615a2.019 2.019 0 01-.697-1.573c0-.77.292-1.367.875-1.79.588-.43 1.413-.643 2.475-.643h1.23v-.581c0-.443-.132-.793-.396-1.053-.265-.265-.654-.397-1.169-.397-.451 0-.83.114-1.135.342-.305.228-.458.504-.458.827h-1.272c0-.369.13-.724.39-1.066.264-.347.62-.62 1.067-.82.451-.2.945-.301 1.483-.301.852 0 1.52.214 2.003.642.483.424.734 1.01.752 1.757v3.404c0 .68.086 1.22.26 1.62V38h-1.327zm-2.098-.964c.396 0 .772-.102 1.128-.308a1.86 1.86 0 00.772-.8v-1.517h-.991c-1.55 0-2.324.454-2.324 1.36 0 .397.132.707.396.93.265.224.604.335 1.019.335zm9.454-.998c0-.342-.13-.606-.39-.793-.255-.191-.704-.355-1.346-.492-.638-.137-1.147-.3-1.525-.492-.374-.192-.652-.42-.834-.684a1.648 1.648 0 01-.266-.943c0-.606.255-1.119.765-1.538.515-.42 1.171-.63 1.969-.63.838 0 1.517.217 2.037.65.524.433.786.987.786 1.661h-1.271c0-.346-.148-.645-.445-.895-.291-.25-.66-.376-1.107-.376-.46 0-.82.1-1.08.3a.948.948 0 00-.39.787c0 .305.121.535.363.69.241.155.676.303 1.305.444.634.142 1.146.31 1.538.506.392.196.682.433.868.711.192.274.288.609.288 1.005 0 .661-.265 1.192-.793 1.593-.529.396-1.215.595-2.058.595-.593 0-1.117-.105-1.572-.315a2.595 2.595 0 01-1.074-.875 2.147 2.147 0 01-.382-1.223h1.264c.023.424.192.76.506 1.011.319.246.738.37 1.258.37.478 0 .861-.096 1.148-.288.292-.196.438-.455.438-.779zm5.981 2.099c-1.002 0-1.818-.328-2.447-.985-.629-.66-.943-1.542-.943-2.645v-.233c0-.733.139-1.387.417-1.962a3.28 3.28 0 011.175-1.353 2.96 2.96 0 011.641-.492c.962 0 1.709.317 2.242.95.533.633.8 1.54.8 2.72v.527h-5.011c.019.73.23 1.32.636 1.77.41.447.93.67 1.559.67.446 0 .825-.09 1.134-.273a2.84 2.84 0 00.814-.725l.772.602c-.619.953-1.549 1.429-2.789 1.429zm-.157-6.631c-.51 0-.939.187-1.285.56-.346.37-.561.89-.643 1.559h3.705v-.096c-.036-.642-.209-1.139-.519-1.49-.31-.355-.729-.533-1.258-.533zm8.818 4.532c0-.342-.129-.606-.389-.793-.255-.191-.704-.355-1.347-.492-.638-.137-1.146-.3-1.524-.492-.374-.192-.652-.42-.834-.684a1.648 1.648 0 01-.267-.943c0-.606.255-1.119.766-1.538.515-.42 1.171-.63 1.969-.63.838 0 1.517.217 2.037.65.524.433.786.987.786 1.661h-1.272c0-.346-.148-.645-.444-.895-.292-.25-.661-.376-1.107-.376-.461 0-.821.1-1.081.3a.948.948 0 00-.389.787c0 .305.121.535.362.69.242.155.677.303 1.306.444.633.142 1.146.31 1.538.506.392.196.681.433.868.711.191.274.287.609.287 1.005 0 .661-.264 1.192-.793 1.593-.529.396-1.214.595-2.057.595-.593 0-1.117-.105-1.573-.315a2.598 2.598 0 01-1.073-.875 2.148 2.148 0 01-.383-1.223h1.265c.023.424.191.76.506 1.011.319.246.738.37 1.258.37.478 0 .861-.096 1.148-.288.292-.196.437-.455.437-.779zm3.165 2.817h-1.086l4.156-10.808h1.08l-4.15 10.808zm7.958-2.57l1.832-5.681h1.292L392.908 38h-.964l-2.679-7.396h1.292l1.88 5.68zm7.314 1.852c-1.003 0-1.818-.328-2.447-.985-.629-.66-.944-1.542-.944-2.645v-.233c0-.733.139-1.387.417-1.962a3.29 3.29 0 011.176-1.353 2.96 2.96 0 011.641-.492c.961 0 1.709.317 2.242.95.533.633.8 1.54.8 2.72v.527h-5.011c.018.73.23 1.32.636 1.77.41.447.929.67 1.558.67.447 0 .825-.09 1.135-.273a2.86 2.86 0 00.814-.725l.772.602c-.62.953-1.549 1.429-2.789 1.429zm-.157-6.631a1.68 1.68 0 00-1.285.56c-.347.37-.561.89-.643 1.559h3.705v-.096c-.036-.642-.21-1.139-.519-1.49-.31-.355-.73-.533-1.258-.533zm5.776-.007c.561-.688 1.29-1.032 2.188-1.032 1.563 0 2.351.882 2.365 2.645V38h-1.265v-4.895c-.004-.533-.127-.927-.369-1.182-.237-.255-.608-.383-1.114-.383-.41 0-.77.11-1.08.328-.31.219-.552.506-.725.862V38h-1.265V27.5h1.265v3.999zM413.19 38h-1.264v-7.396h1.264V38zm-1.367-9.358c0-.206.062-.379.185-.52.127-.141.314-.212.56-.212.246 0 .433.07.561.212a.745.745 0 01.191.52.72.72 0 01-.191.512c-.128.137-.315.205-.561.205-.246 0-.433-.068-.56-.205a.738.738 0 01-.185-.512zm6.365 8.463a1.82 1.82 0 001.182-.41c.337-.274.524-.616.561-1.026h1.196a2.295 2.295 0 01-.438 1.21 2.861 2.861 0 01-1.08.916 3.08 3.08 0 01-1.421.342c-1.008 0-1.81-.335-2.407-1.005-.592-.675-.888-1.595-.888-2.762v-.212c0-.72.132-1.36.396-1.92a3.02 3.02 0 011.135-1.306c.497-.31 1.082-.465 1.757-.465.829 0 1.517.248 2.064.745.552.497.845 1.141.882 1.935h-1.196c-.037-.479-.219-.871-.547-1.176-.324-.31-.725-.465-1.203-.465-.643 0-1.142.232-1.497.697-.351.46-.527 1.128-.527 2.003v.24c0 .852.176 1.508.527 1.968.351.46.852.69 1.504.69zm5.735.895h-1.265V27.5h1.265V38zm5.099.137c-1.002 0-1.818-.328-2.447-.985-.629-.66-.943-1.542-.943-2.645v-.233c0-.733.139-1.387.417-1.962a3.275 3.275 0 011.176-1.353 2.954 2.954 0 011.64-.492c.962 0 1.709.317 2.242.95.534.633.8 1.54.8 2.72v.527h-5.011c.019.73.231 1.32.636 1.77.41.447.93.67 1.559.67.446 0 .825-.09 1.135-.273a2.85 2.85 0 00.813-.725l.773.602c-.62.953-1.55 1.429-2.79 1.429zm-.157-6.631c-.51 0-.939.187-1.285.56-.346.37-.56.89-.642 1.559h3.705v-.096c-.037-.642-.21-1.139-.52-1.49-.31-.355-.729-.533-1.258-.533zm7.301-3.46h1.203l4.156 10.809h-1.203l-4.156-10.808zM55.589 86.288h-3.336v-1.032h3.336v1.032zm.93-.048c0-1.134.268-2.046.806-2.734.538-.693 1.242-1.04 2.112-1.04.866 0 1.552.297 2.058.89V79.5h1.265V90h-1.162l-.062-.793c-.506.62-1.21.93-2.112.93-.857 0-1.556-.351-2.099-1.053-.538-.702-.806-1.618-.806-2.748v-.096zm1.264.144c0 .838.173 1.495.52 1.969.346.474.825.71 1.435.71.802 0 1.388-.36 1.757-1.08v-3.397c-.378-.697-.96-1.046-1.743-1.046-.62 0-1.103.24-1.45.718-.346.478-.519 1.187-.519 2.126zm11.19-6.125l-.143 2.515h-.882l.007-3.274h1.019v.759zm5.039 12.243c-.807-.228-1.415-.604-1.826-1.128-.405-.52-.608-1.208-.608-2.064v-1.36c0-1.108-.483-1.662-1.45-1.662v-.991c.967 0 1.45-.552 1.45-1.654V82.22c.01-.834.212-1.507.608-2.017.402-.515 1.01-.889 1.826-1.121l.26.786c-.953.305-1.43 1.1-1.43 2.386v1.38c0 1.035-.38 1.755-1.14 2.16.76.411 1.14 1.138 1.14 2.182v1.408c.014 1.253.49 2.03 1.43 2.33l-.26.787zm98.904-3.165c0-.219.064-.401.191-.547.133-.146.329-.219.588-.219.26 0 .456.073.588.219a.768.768 0 01.205.547c0 .21-.068.385-.205.526-.132.142-.328.212-.588.212-.259 0-.455-.07-.588-.212a.759.759 0 01-.191-.526zm.007-6.036c0-.219.064-.401.191-.547.132-.146.328-.219.588-.219.26 0 .456.073.588.219a.767.767 0 01.205.547c0 .21-.068.385-.205.526-.132.141-.328.212-.588.212-.26 0-.456-.07-.588-.212a.758.758 0 01-.191-.526zm6.788 9.201c-.807-.228-1.415-.604-1.825-1.128-.406-.52-.609-1.208-.609-2.064v-1.36c0-1.108-.483-1.662-1.449-1.662v-.991c.966 0 1.449-.552 1.449-1.654V82.22c.009-.834.212-1.507.609-2.017.401-.515 1.009-.889 1.825-1.121l.26.786c-.953.305-1.429 1.1-1.429 2.386v1.38c0 1.035-.381 1.755-1.142 2.16.761.411 1.142 1.138 1.142 2.182v1.408c.014 1.253.49 2.03 1.429 2.33l-.26.787zm65.205-3.165c0-.219.064-.401.191-.547.133-.146.329-.219.588-.219.26 0 .456.073.588.219a.768.768 0 01.205.547c0 .21-.068.385-.205.526-.132.142-.328.212-.588.212-.259 0-.455-.07-.588-.212a.759.759 0 01-.191-.526zm.007-6.036c0-.219.064-.401.191-.547.132-.146.328-.219.588-.219.26 0 .456.073.588.219a.767.767 0 01.205.547c0 .21-.068.385-.205.526-.132.141-.328.212-.588.212-.26 0-.456-.07-.588-.212a.758.758 0 01-.191-.526zm3.876 1.709l.506-4.963h5.099v1.169h-4.026l-.301 2.714a3.212 3.212 0 011.661-.431c.907 0 1.627.3 2.16.902.534.597.8 1.406.8 2.427 0 1.025-.278 1.834-.834 2.427-.551.588-1.324.882-2.317.882-.88 0-1.597-.244-2.153-.732-.556-.487-.873-1.162-.951-2.023h1.197c.077.57.28 1 .608 1.292.328.287.761.43 1.299.43.588 0 1.048-.2 1.381-.601.337-.401.506-.955.506-1.661 0-.666-.183-1.199-.547-1.6-.36-.405-.841-.608-1.443-.608-.551 0-.984.12-1.298.362l-.335.273-1.012-.26zm7.861 0l.506-4.963h5.1v1.169h-4.027l-.301 2.714a3.216 3.216 0 011.662-.431c.907 0 1.627.3 2.16.902.533.597.8 1.406.8 2.427 0 1.025-.278 1.834-.834 2.427-.552.588-1.324.882-2.318.882-.879 0-1.597-.244-2.153-.732-.556-.487-.873-1.162-.95-2.023h1.196c.077.57.28 1 .608 1.292.329.287.761.43 1.299.43.588 0 1.048-.2 1.381-.601.337-.401.506-.955.506-1.661 0-.666-.182-1.199-.547-1.6-.36-.405-.841-.608-1.442-.608-.552 0-.985.12-1.299.362l-.335.273-1.012-.26zm7.369 6.972l-.717-.492c.428-.597.651-1.212.669-1.846v-1.141h1.238v.991c0 .46-.114.92-.342 1.381-.223.46-.506.83-.848 1.107zm68.887-2.645c0-.219.064-.401.191-.547.133-.146.329-.219.588-.219.26 0 .456.073.588.219a.768.768 0 01.205.547c0 .21-.068.385-.205.526-.132.142-.328.212-.588.212-.259 0-.455-.07-.588-.212a.759.759 0 01-.191-.526zm.007-6.036c0-.219.064-.401.191-.547.132-.146.328-.219.588-.219.26 0 .456.073.588.219a.767.767 0 01.205.547c0 .21-.068.385-.205.526-.132.141-.328.212-.588.212-.26 0-.456-.07-.588-.212a.758.758 0 01-.191-.526zm39.993 8.681l-.718-.492c.429-.597.652-1.212.67-1.846v-1.141h1.237v.991c0 .46-.113.92-.341 1.381-.224.46-.506.83-.848 1.107z" fill="#fff"/><path d="M189.894 80.43l-.206 2.447h-.758l.007-3.377h.957v.93zm1.845 0l-.205 2.447h-.759l.007-3.377h.957v.93zm4.143 7.854l1.832-5.68h1.292L196.354 90h-.964l-2.68-7.397h1.292l1.88 5.681zM204.68 90c-.073-.146-.132-.406-.178-.78-.588.611-1.29.917-2.106.917-.729 0-1.328-.205-1.797-.615a2.016 2.016 0 01-.698-1.573c0-.77.292-1.367.875-1.79.588-.43 1.413-.643 2.475-.643h1.23v-.581c0-.442-.132-.793-.396-1.053-.264-.264-.654-.397-1.169-.397-.451 0-.829.114-1.135.342-.305.228-.458.504-.458.827h-1.271c0-.369.13-.724.389-1.066.265-.346.62-.62 1.067-.82.451-.2.945-.301 1.483-.301.852 0 1.52.214 2.003.642.483.424.734 1.01.752 1.757v3.404c0 .68.087 1.22.26 1.62V90h-1.326zm-2.099-.964a2.22 2.22 0 001.128-.308 1.86 1.86 0 00.772-.8v-1.517h-.991c-1.549 0-2.324.454-2.324 1.36 0 .397.132.707.396.93.265.224.604.335 1.019.335zm6.522.964h-1.265V79.5h1.265V90zm6.596-.731c-.492.578-1.214.868-2.167.868-.788 0-1.39-.228-1.804-.684-.411-.46-.618-1.14-.623-2.037v-4.813h1.265v4.779c0 1.12.456 1.681 1.367 1.681.966 0 1.609-.36 1.928-1.08v-5.38h1.265V90h-1.203l-.028-.731zm6.228.868c-1.003 0-1.819-.328-2.448-.985-.628-.66-.943-1.542-.943-2.645v-.233c0-.733.139-1.387.417-1.962a3.29 3.29 0 011.176-1.353 2.96 2.96 0 011.641-.492c.961 0 1.709.317 2.242.95.533.633.8 1.54.8 2.72v.527h-5.011c.018.73.23 1.32.636 1.77.41.447.929.67 1.558.67.447 0 .825-.09 1.135-.273.31-.182.581-.424.813-.725l.773.602c-.62.953-1.55 1.429-2.789 1.429zm-.157-6.631c-.511 0-.939.187-1.286.56-.346.37-.56.89-.642 1.559h3.705v-.096c-.037-.642-.21-1.139-.52-1.49-.31-.355-.729-.533-1.257-.533zm5.352-3.076l-.205 2.447h-.759l.007-3.377h.957v.93zm1.846 0l-.205 2.447h-.759l.007-3.377h.957v.93zm112.926 0l-.206 2.447h-.758l.007-3.377h.957v.93zm1.845 0l-.205 2.447h-.759l.007-3.377h.957v.93zm3.767 6.145l-.793.827V90h-1.265V79.5h1.265v6.35l.677-.813 2.303-2.434h1.538l-2.877 3.09L351.566 90h-1.483l-2.577-3.425zm6.221-3.972l.034.82c.542-.637 1.274-.956 2.194-.956 1.035 0 1.739.396 2.112 1.19a2.81 2.81 0 01.957-.862c.397-.219.864-.328 1.402-.328 1.622 0 2.447.859 2.474 2.577V90h-1.264v-4.88c0-.53-.121-.924-.363-1.184-.241-.264-.647-.396-1.216-.396-.47 0-.859.141-1.169.424-.31.278-.49.654-.54 1.128V90h-1.272v-4.847c0-1.075-.526-1.613-1.579-1.613-.829 0-1.397.353-1.702 1.06V90h-1.265v-7.397h1.197zm11.313-2.173l-.205 2.447h-.759l.007-3.377h.957v.93zm1.846 0l-.205 2.447h-.759l.007-3.377h.957v.93zm-272.992 0l-.206 2.447h-.758l.006-3.377h.958v.93zm1.845 0l-.205 2.447h-.759l.007-3.377h.957v.93zm.985 5.81c0-1.134.269-2.046.806-2.734.538-.693 1.242-1.04 2.113-1.04.865 0 1.551.297 2.057.89V79.5h1.265V90h-1.162l-.062-.793c-.506.62-1.21.93-2.112.93-.857 0-1.556-.351-2.099-1.053-.537-.702-.806-1.618-.806-2.748v-.096zm1.264.144c0 .838.174 1.495.52 1.969.346.474.825.71 1.435.71.802 0 1.388-.36 1.757-1.08v-3.397c-.378-.697-.959-1.046-1.743-1.046-.62 0-1.103.24-1.45.718-.346.478-.519 1.187-.519 2.126zm8.32 3.616h-1.265v-7.397h1.265V90zm-1.368-9.358c0-.206.062-.379.185-.52.128-.141.314-.212.561-.212.246 0 .432.07.56.212a.745.745 0 01.192.52.721.721 0 01-.192.512c-.128.137-.314.205-.56.205-.247 0-.433-.068-.561-.205a.738.738 0 01-.185-.512zm7.705 7.396c0-.342-.13-.606-.39-.793-.255-.191-.704-.355-1.347-.492-.638-.137-1.146-.3-1.524-.492-.374-.192-.652-.42-.834-.684a1.648 1.648 0 01-.267-.943c0-.606.255-1.119.766-1.538.515-.42 1.171-.63 1.969-.63.838 0 1.517.217 2.037.65.524.433.786.987.786 1.661h-1.272c0-.346-.148-.645-.444-.895-.292-.25-.661-.376-1.107-.376-.461 0-.821.1-1.08.3a.948.948 0 00-.39.787c0 .305.121.535.362.69.242.155.677.303 1.306.445.633.14 1.146.31 1.538.505.392.196.681.433.868.711.191.274.287.609.287 1.005 0 .661-.264 1.192-.793 1.593-.528.397-1.214.595-2.057.595-.593 0-1.117-.105-1.573-.315a2.598 2.598 0 01-1.073-.875 2.148 2.148 0 01-.383-1.223h1.265c.023.423.191.76.506 1.011.319.246.738.37 1.258.37.478 0 .861-.096 1.148-.288.292-.196.438-.455.438-.779zm4.627-7.225v1.79h1.381v.978h-1.381v4.587c0 .296.062.52.185.67.123.146.333.219.629.219.146 0 .346-.028.602-.082V90a3.675 3.675 0 01-.971.137c-.565 0-.991-.171-1.279-.513-.287-.342-.43-.827-.43-1.456v-4.587h-1.347v-.978h1.347v-1.79h1.264zM124.703 90c-.073-.146-.132-.406-.178-.78-.587.611-1.289.917-2.105.917-.729 0-1.329-.205-1.798-.615a2.015 2.015 0 01-.697-1.573c0-.77.291-1.367.875-1.79.588-.43 1.413-.643 2.474-.643h1.231v-.581c0-.442-.132-.793-.397-1.053-.264-.264-.654-.397-1.169-.397-.451 0-.829.114-1.134.342-.306.228-.458.504-.458.827h-1.272c0-.369.13-.724.39-1.066a2.7 2.7 0 011.066-.82c.451-.2.946-.301 1.484-.301.852 0 1.52.214 2.003.642.483.424.733 1.01.752 1.757v3.404c0 .68.086 1.22.259 1.62V90h-1.326zm-2.099-.964a2.22 2.22 0 001.128-.308c.356-.205.613-.471.773-.8v-1.517h-.991c-1.55 0-2.325.454-2.325 1.36 0 .397.133.707.397.93.264.224.604.335 1.018.335zm6.344-6.433l.041.93c.565-.71 1.304-1.066 2.215-1.066 1.563 0 2.352.882 2.365 2.645V90h-1.264v-4.894c-.005-.534-.128-.928-.369-1.183-.237-.255-.609-.383-1.115-.383-.41 0-.77.11-1.08.328-.31.219-.551.506-.724.862V90h-1.265v-7.397h1.196zm9.495 6.502a1.82 1.82 0 001.183-.41c.337-.274.524-.616.561-1.026h1.196a2.295 2.295 0 01-.438 1.21 2.876 2.876 0 01-1.08.916c-.446.228-.92.342-1.422.342-1.007 0-1.809-.335-2.406-1.005-.592-.675-.889-1.595-.889-2.762v-.212c0-.72.133-1.36.397-1.92a3.026 3.026 0 011.135-1.306c.496-.31 1.082-.465 1.757-.465.829 0 1.517.248 2.064.745.551.497.845 1.141.882 1.934h-1.196c-.037-.478-.219-.87-.547-1.175-.324-.31-.725-.465-1.203-.465-.643 0-1.142.232-1.498.697-.35.46-.526 1.128-.526 2.003v.24c0 .852.176 1.508.526 1.968.351.46.853.69 1.504.69zm7.431 1.032c-1.003 0-1.818-.328-2.447-.985-.629-.66-.944-1.542-.944-2.645v-.233c0-.733.139-1.387.417-1.962a3.29 3.29 0 011.176-1.353 2.96 2.96 0 011.641-.492c.961 0 1.709.317 2.242.95.533.633.8 1.54.8 2.72v.527h-5.011c.018.73.23 1.32.636 1.77.41.447.929.67 1.558.67.447 0 .825-.09 1.135-.273a2.86 2.86 0 00.814-.725l.772.602c-.62.953-1.549 1.429-2.789 1.429zm-.157-6.631a1.68 1.68 0 00-1.285.56c-.347.37-.561.89-.643 1.559h3.705v-.096c-.036-.642-.209-1.139-.519-1.49-.31-.355-.73-.533-1.258-.533zm5.352-3.076l-.205 2.447h-.759l.007-3.377h.957v.93zm1.846 0l-.205 2.447h-.759l.007-3.377h.957v.93zm228.979 0l-.206 2.447h-.758l.007-3.377h.957v.93zm1.845 0l-.205 2.447h-.759l.007-3.377h.957v.93zm2.324 9.57v-6.419h-1.168v-.978h1.168v-.758c0-.793.212-1.406.636-1.84.424-.432 1.023-.649 1.798-.649.292 0 .581.04.868.117l-.068 1.025a3.633 3.633 0 00-.684-.062c-.41 0-.727.121-.95.363-.223.237-.335.579-.335 1.025v.78h1.579v.977h-1.579V90h-1.265zm8.812-.731c-.492.578-1.215.868-2.167.868-.788 0-1.39-.228-1.805-.684-.41-.46-.617-1.14-.622-2.037v-4.813h1.265v4.779c0 1.12.456 1.681 1.367 1.681.966 0 1.609-.36 1.928-1.08v-5.38h1.264V90h-1.203l-.027-.731zm6.228.868c-1.003 0-1.819-.328-2.448-.985-.629-.66-.943-1.542-.943-2.645v-.233c0-.733.139-1.387.417-1.962a3.275 3.275 0 011.176-1.353 2.956 2.956 0 011.64-.492c.962 0 1.709.317 2.243.95.533.633.799 1.54.799 2.72v.527h-5.01c.018.73.23 1.32.635 1.77.41.447.93.67 1.559.67.447 0 .825-.09 1.135-.273.31-.182.581-.424.813-.725l.773.602c-.62.953-1.55 1.429-2.789 1.429zm-.158-6.631c-.51 0-.938.187-1.285.56-.346.37-.56.89-.642 1.559h3.705v-.096c-.037-.642-.21-1.139-.52-1.49-.31-.355-.729-.533-1.258-.533zM406.831 90h-1.265V79.5h1.265V90zm7.362 1.032h-6.261V90h6.261v1.032zm4.054-.895c-1.003 0-1.818-.328-2.447-.985-.629-.66-.944-1.542-.944-2.645v-.233c0-.733.139-1.387.417-1.962a3.29 3.29 0 011.176-1.353 2.96 2.96 0 011.641-.492c.961 0 1.709.317 2.242.95.533.633.8 1.54.8 2.72v.527h-5.011c.018.73.23 1.32.636 1.77.41.447.93.67 1.558.67.447 0 .825-.09 1.135-.273a2.86 2.86 0 00.814-.725l.772.602c-.62.953-1.549 1.429-2.789 1.429zm-.157-6.631a1.68 1.68 0 00-1.285.56c-.347.37-.561.89-.643 1.559h3.705v-.096c-.036-.642-.209-1.139-.519-1.49-.31-.355-.73-.533-1.258-.533zM423.224 90v-6.419h-1.169v-.978h1.169v-.758c0-.793.212-1.406.635-1.84.424-.432 1.023-.649 1.798-.649.292 0 .581.04.868.117l-.068 1.025a3.633 3.633 0 00-.684-.062c-.41 0-.726.121-.95.363-.223.237-.335.579-.335 1.025v.78h2.735v-.63c0-.824.234-1.467.704-1.927.474-.46 1.141-.69 2.003-.69.51 0 1.155.138 1.934.416l-.212 1.067c-.569-.228-1.114-.342-1.633-.342-.543 0-.935.12-1.176.362-.237.242-.356.609-.356 1.1v.644h1.518v.977h-1.518V90h-1.264v-6.419h-2.735V90h-1.264zm9.262 0h-1.264v-7.397h1.264V90zm5.032-.895a1.82 1.82 0 001.182-.41c.337-.274.524-.616.561-1.026h1.196a2.302 2.302 0 01-.437 1.21 2.872 2.872 0 01-1.081.916 3.08 3.08 0 01-1.421.342c-1.008 0-1.81-.335-2.407-1.005-.592-.675-.888-1.595-.888-2.762v-.212c0-.72.132-1.36.396-1.92a3.026 3.026 0 011.135-1.306c.497-.31 1.082-.465 1.757-.465.829 0 1.517.248 2.064.745.552.497.846 1.141.882 1.934h-1.196c-.037-.478-.219-.87-.547-1.175-.324-.31-.725-.465-1.203-.465-.643 0-1.142.232-1.497.697-.351.46-.527 1.128-.527 2.003v.24c0 .852.176 1.508.527 1.968.351.46.852.69 1.504.69zm5.735.895h-1.265v-7.397h1.265V90zm-1.367-9.358c0-.206.061-.379.184-.52.128-.141.315-.212.561-.212.246 0 .433.07.56.212a.745.745 0 01.192.52.721.721 0 01-.192.512c-.127.137-.314.205-.56.205-.246 0-.433-.068-.561-.205a.738.738 0 01-.184-.512zm6.467 9.495c-1.003 0-1.819-.328-2.448-.985-.629-.66-.943-1.542-.943-2.645v-.233c0-.733.139-1.387.417-1.962a3.275 3.275 0 011.176-1.353 2.956 2.956 0 011.64-.492c.962 0 1.709.317 2.243.95.533.633.799 1.54.799 2.72v.527h-5.01c.018.73.23 1.32.635 1.77.41.447.93.67 1.559.67.447 0 .825-.09 1.135-.273.31-.182.581-.424.813-.725l.773.602c-.62.953-1.55 1.429-2.789 1.429zm-.158-6.631c-.51 0-.938.187-1.285.56-.346.37-.56.89-.642 1.559h3.705v-.096c-.037-.642-.21-1.139-.52-1.49-.31-.355-.729-.533-1.258-.533zm5.708-.903l.041.93c.565-.71 1.304-1.066 2.215-1.066 1.563 0 2.352.882 2.365 2.645V90h-1.264v-4.894c-.005-.534-.128-.928-.369-1.183-.237-.255-.609-.383-1.115-.383-.41 0-.77.11-1.08.328-.31.219-.551.506-.724.862V90h-1.265v-7.397h1.196zm9.495 6.502a1.82 1.82 0 001.183-.41c.337-.274.524-.616.561-1.026h1.196a2.295 2.295 0 01-.438 1.21 2.869 2.869 0 01-1.08.916c-.446.228-.92.342-1.422.342-1.007 0-1.809-.335-2.406-1.005-.592-.675-.888-1.595-.888-2.762v-.212c0-.72.132-1.36.396-1.92a3.026 3.026 0 011.135-1.306c.497-.31 1.082-.465 1.757-.465.829 0 1.517.248 2.064.745.551.497.845 1.141.882 1.934h-1.196c-.037-.478-.219-.87-.547-1.175-.324-.31-.725-.465-1.203-.465-.643 0-1.142.232-1.497.697-.351.46-.527 1.128-.527 2.003v.24c0 .852.176 1.508.527 1.968.35.46.852.69 1.503.69zm6.782-.958l1.722-5.544h1.354l-2.974 8.539c-.46 1.23-1.192 1.845-2.194 1.845l-.239-.02-.472-.09v-1.024l.342.027c.428 0 .761-.087.998-.26.241-.173.44-.49.595-.95l.28-.752-2.639-7.315h1.381l1.846 5.544zm5.257-7.717l-.206 2.447h-.758l.006-3.377h.958v.93zm1.845 0l-.205 2.447h-.759l.007-3.377h.957v.93zm-199.388 0l-.206 2.447h-.758l.007-3.377h.957v.93zm1.845 0l-.205 2.447h-.759l.007-3.377h.957v.93zm6.269 8.839c-.492.578-1.215.868-2.167.868-.789 0-1.39-.228-1.805-.684-.41-.46-.617-1.14-.622-2.037v-4.813h1.265v4.779c0 1.12.455 1.681 1.367 1.681.966 0 1.609-.36 1.928-1.08v-5.38h1.264V90h-1.203l-.027-.731zm4.354-6.666l.041.93c.565-.71 1.304-1.066 2.215-1.066 1.563 0 2.352.882 2.365 2.645V90h-1.264v-4.894c-.005-.534-.128-.928-.369-1.183-.237-.255-.609-.383-1.115-.383-.41 0-.77.11-1.08.328-.31.219-.551.506-.724.862V90h-1.265v-7.397h1.196zM298.265 90H297v-7.397h1.265V90zm-1.368-9.358c0-.206.062-.379.185-.52.128-.141.314-.212.561-.212.246 0 .433.07.56.212a.745.745 0 01.192.52.721.721 0 01-.192.512c-.127.137-.314.205-.56.205-.247 0-.433-.068-.561-.205a.738.738 0 01-.185-.512zm5.114.17v1.791h1.381v.978h-1.381v4.587c0 .296.061.52.184.67.123.146.333.219.629.219.146 0 .347-.028.602-.082V90a3.669 3.669 0 01-.971.137c-.565 0-.991-.171-1.278-.513-.287-.342-.431-.827-.431-1.456v-4.587h-1.347v-.978h1.347v-1.79h1.265zm7.171 7.226c0-.342-.13-.606-.39-.793-.255-.191-.704-.355-1.347-.492-.638-.137-1.146-.3-1.524-.492-.374-.192-.652-.42-.834-.684a1.648 1.648 0 01-.267-.943c0-.606.256-1.119.766-1.538.515-.42 1.171-.63 1.969-.63.838 0 1.517.217 2.037.65.524.433.786.987.786 1.661h-1.272c0-.346-.148-.645-.444-.895-.292-.25-.661-.376-1.107-.376-.461 0-.821.1-1.08.3a.948.948 0 00-.39.787c0 .305.121.535.362.69.242.155.677.303 1.306.445.633.14 1.146.31 1.538.505.392.196.681.433.868.711.192.274.287.609.287 1.005 0 .661-.264 1.192-.793 1.593-.528.397-1.214.595-2.057.595-.593 0-1.117-.105-1.573-.315a2.598 2.598 0 01-1.073-.875 2.148 2.148 0 01-.383-1.223h1.265c.023.423.191.76.506 1.011.319.246.738.37 1.258.37.478 0 .861-.096 1.148-.288.292-.196.438-.455.438-.779zm3.848-7.608l-.205 2.447h-.759l.007-3.377h.957v.93zm1.846 0l-.205 2.447h-.759l.007-3.377h.957v.93zm-236.982 26l-.206 2.447h-.758l.006-3.377h.958v.93zm1.845 0l-.205 2.447h-.759l.007-3.377h.957v.93zm9.222 6.412c-.123 1.053-.513 1.866-1.169 2.44-.652.57-1.52.855-2.605.855-1.175 0-2.119-.422-2.83-1.265-.706-.843-1.06-1.971-1.06-3.384v-.957c0-.925.165-1.738.493-2.44.333-.702.802-1.24 1.408-1.613.606-.379 1.308-.568 2.106-.568 1.057 0 1.905.296 2.543.889.638.588 1.01 1.403 1.114 2.447h-1.32c-.113-.793-.362-1.367-.745-1.723-.378-.355-.909-.533-1.592-.533-.839 0-1.497.31-1.976.93-.474.62-.71 1.502-.71 2.645v.964c0 1.08.225 1.939.676 2.577.451.638 1.082.957 1.894.957.729 0 1.287-.164 1.674-.492.392-.332.652-.909.78-1.729h1.319zm1.265-.609c0-.724.14-1.376.423-1.955a3.226 3.226 0 011.19-1.34c.51-.314 1.091-.471 1.743-.471 1.007 0 1.82.348 2.44 1.046.625.697.937 1.624.937 2.782v.089c0 .72-.139 1.367-.417 1.941a3.113 3.113 0 01-1.183 1.333c-.51.319-1.098.479-1.763.479-1.003 0-1.816-.349-2.44-1.046-.62-.697-.93-1.62-.93-2.769v-.089zm1.271.151c0 .82.19 1.479.567 1.975.383.497.894.745 1.532.745.642 0 1.153-.25 1.531-.751.378-.506.567-1.213.567-2.12 0-.811-.193-1.467-.58-1.968-.383-.506-.894-.759-1.532-.759-.624 0-1.128.248-1.51.745-.383.497-.575 1.208-.575 2.133zm8.244-3.78l.041.929c.565-.711 1.304-1.066 2.215-1.066 1.563 0 2.352.882 2.365 2.645V116h-1.264v-4.895c-.005-.533-.128-.927-.369-1.182-.237-.255-.609-.383-1.115-.383-.41 0-.77.109-1.08.328a2.23 2.23 0 00-.724.861V116h-1.265v-7.396h1.196zm8.244-1.792v1.792h1.381v.977h-1.381v4.587c0 .296.062.52.185.67.123.146.333.219.629.219.146 0 .346-.028.601-.082V116a3.667 3.667 0 01-.97.137c-.565 0-.992-.171-1.279-.513-.287-.342-.43-.827-.43-1.456v-4.587h-1.347v-.977h1.347v-1.792h1.264zm5.934 9.325c-1.003 0-1.818-.328-2.447-.985-.629-.66-.944-1.542-.944-2.645v-.233c0-.733.139-1.387.417-1.962a3.295 3.295 0 011.176-1.353 2.96 2.96 0 011.641-.492c.961 0 1.709.317 2.242.95.533.633.8 1.54.8 2.721v.526h-5.011c.018.729.23 1.319.636 1.771.41.446.929.669 1.558.669.447 0 .825-.091 1.135-.273.31-.182.581-.424.814-.725l.772.602c-.62.952-1.549 1.429-2.789 1.429zm-.157-6.631c-.511 0-.939.187-1.285.56-.347.37-.561.889-.643 1.559h3.705v-.096c-.036-.642-.21-1.139-.519-1.49-.31-.355-.73-.533-1.258-.533zm5.708-.902l.041.929c.565-.711 1.303-1.066 2.215-1.066 1.563 0 2.351.882 2.365 2.645V116h-1.265v-4.895c-.004-.533-.127-.927-.369-1.182-.237-.255-.608-.383-1.114-.383-.41 0-.77.109-1.08.328a2.23 2.23 0 00-.725.861V116h-1.265v-7.396h1.197zm8.244-1.792v1.792h1.381v.977h-1.381v4.587c0 .296.061.52.184.67.123.146.333.219.629.219.146 0 .347-.028.602-.082V116a3.674 3.674 0 01-.971.137c-.565 0-.991-.171-1.278-.513-.287-.342-.431-.827-.431-1.456v-4.587h-1.346v-.977h1.346v-1.792h1.265zm5.496 5.476h-3.336v-1.032h3.336v1.032zm2.953-5.476v1.792h1.381v.977h-1.381v4.587c0 .296.062.52.185.67.123.146.332.219.629.219.145 0 .346-.028.601-.082V116a3.674 3.674 0 01-.971.137c-.565 0-.991-.171-1.278-.513-.287-.342-.431-.827-.431-1.456v-4.587h-1.346v-.977h1.346v-1.792h1.265zm5.284 7.335l1.723-5.543h1.353l-2.973 8.538c-.46 1.23-1.192 1.845-2.195 1.845l-.239-.02-.471-.089v-1.025l.341.027c.429 0 .761-.087.998-.26.242-.173.44-.49.595-.95l.28-.752-2.638-7.314h1.381l1.845 5.543zm10.459-1.763c0 1.125-.257 2.032-.772 2.72-.515.689-1.212 1.033-2.092 1.033-.898 0-1.604-.285-2.119-.855v3.562h-1.265v-10.24h1.155l.062.82c.515-.638 1.23-.957 2.146-.957.889 0 1.591.335 2.106 1.005.519.67.779 1.602.779 2.796v.116zm-1.264-.144c0-.834-.178-1.492-.534-1.975-.355-.483-.843-.725-1.462-.725-.766 0-1.34.34-1.723 1.019v3.534c.378.674.957 1.011 1.736 1.011.606 0 1.087-.239 1.443-.717.36-.483.54-1.199.54-2.147zm5.947 3.897c-1.003 0-1.818-.328-2.447-.985-.629-.66-.944-1.542-.944-2.645v-.233c0-.733.139-1.387.417-1.962a3.295 3.295 0 011.176-1.353 2.96 2.96 0 011.641-.492c.961 0 1.709.317 2.242.95.533.633.8 1.54.8 2.721v.526h-5.011c.018.729.23 1.319.636 1.771.41.446.929.669 1.558.669.447 0 .825-.091 1.135-.273.31-.182.581-.424.813-.725l.773.602c-.62.952-1.55 1.429-2.789 1.429zm-.157-6.631c-.511 0-.939.187-1.286.56-.346.37-.56.889-.642 1.559h3.705v-.096c-.036-.642-.21-1.139-.52-1.49-.309-.355-.729-.533-1.257-.533zm4.47 5.831a.8.8 0 01.192-.547c.132-.146.328-.219.588-.219.259 0 .455.073.588.219a.772.772 0 01.205.547c0 .21-.069.385-.205.526-.133.142-.329.212-.588.212-.26 0-.456-.07-.588-.212a.753.753 0 01-.192-.526zm.007-6.036a.8.8 0 01.192-.547c.132-.146.328-.219.587-.219.26 0 .456.073.588.219a.767.767 0 01.205.547.726.726 0 01-.205.526c-.132.141-.328.212-.588.212-.259 0-.455-.071-.587-.212a.754.754 0 01-.192-.526zM172.373 116c-.073-.146-.132-.406-.178-.779-.588.61-1.289.916-2.105.916-.729 0-1.329-.205-1.798-.616-.465-.414-.697-.938-.697-1.572 0-.77.291-1.367.875-1.791.588-.428 1.412-.642 2.474-.642h1.231v-.581c0-.442-.132-.793-.397-1.053-.264-.264-.654-.397-1.169-.397-.451 0-.829.114-1.134.342-.306.228-.458.504-.458.827h-1.272c0-.369.13-.724.39-1.066a2.7 2.7 0 011.066-.82 3.605 3.605 0 011.484-.301c.852 0 1.519.214 2.003.642.483.424.733 1.01.751 1.757v3.405c0 .679.087 1.219.26 1.62V116h-1.326zm-2.099-.964a2.22 2.22 0 001.128-.307c.356-.206.613-.472.773-.8v-1.518h-.991c-1.55 0-2.325.454-2.325 1.36 0 .397.133.707.397.93.264.223.604.335 1.018.335zm11.396-2.652c0 1.125-.258 2.032-.773 2.72-.515.689-1.212 1.033-2.091 1.033-.898 0-1.605-.285-2.119-.855v3.562h-1.265v-10.24h1.155l.062.82c.515-.638 1.23-.957 2.146-.957.889 0 1.591.335 2.106 1.005.519.67.779 1.602.779 2.796v.116zm-1.265-.144c0-.834-.177-1.492-.533-1.975-.355-.483-.843-.725-1.463-.725-.765 0-1.34.34-1.722 1.019v3.534c.378.674.957 1.011 1.736 1.011.606 0 1.087-.239 1.442-.717.36-.483.54-1.199.54-2.147zm9.126.144c0 1.125-.257 2.032-.772 2.72-.515.689-1.212 1.033-2.092 1.033-.898 0-1.604-.285-2.119-.855v3.562h-1.265v-10.24h1.155l.062.82c.515-.638 1.23-.957 2.146-.957.889 0 1.591.335 2.106 1.005.519.67.779 1.602.779 2.796v.116zm-1.264-.144c0-.834-.178-1.492-.534-1.975-.355-.483-.843-.725-1.462-.725-.766 0-1.34.34-1.723 1.019v3.534c.378.674.957 1.011 1.736 1.011.606 0 1.087-.239 1.443-.717.36-.483.54-1.199.54-2.147zm4.252 3.76h-1.265v-10.5h1.265V116zm3.404 0h-1.265v-7.396h1.265V116zm-1.367-9.358c0-.205.061-.379.184-.52.128-.141.315-.212.561-.212.246 0 .433.071.56.212a.746.746 0 01.192.52.718.718 0 01-.192.512c-.127.137-.314.205-.56.205-.246 0-.433-.068-.561-.205a.735.735 0 01-.184-.512zm6.364 8.462c.451 0 .845-.136 1.183-.41a1.44 1.44 0 00.56-1.025h1.196a2.285 2.285 0 01-.437 1.21 2.876 2.876 0 01-1.08.916 3.087 3.087 0 01-1.422.342c-1.007 0-1.809-.335-2.406-1.005-.593-.675-.889-1.595-.889-2.762v-.212c0-.72.132-1.36.396-1.921.265-.56.643-.995 1.135-1.305.497-.31 1.083-.465 1.757-.465.83 0 1.518.248 2.065.745.551.497.845 1.142.881 1.934h-1.196c-.036-.478-.219-.87-.547-1.175-.323-.31-.724-.465-1.203-.465-.642 0-1.142.232-1.497.697-.351.46-.526 1.128-.526 2.003v.239c0 .853.175 1.509.526 1.969.351.46.852.69 1.504.69zm8.928.896c-.073-.146-.133-.406-.178-.779-.588.61-1.29.916-2.106.916-.729 0-1.328-.205-1.797-.616a2.014 2.014 0 01-.698-1.572c0-.77.292-1.367.875-1.791.588-.428 1.413-.642 2.475-.642h1.23v-.581c0-.442-.132-.793-.396-1.053-.264-.264-.654-.397-1.169-.397-.451 0-.829.114-1.135.342-.305.228-.458.504-.458.827h-1.271c0-.369.13-.724.389-1.066.265-.346.62-.62 1.067-.82a3.6 3.6 0 011.483-.301c.852 0 1.52.214 2.003.642.483.424.734 1.01.752 1.757v3.405c0 .679.087 1.219.26 1.62V116h-1.326zm-2.099-.964c.397 0 .772-.102 1.128-.307.355-.206.613-.472.772-.8v-1.518h-.991c-1.549 0-2.324.454-2.324 1.36 0 .397.132.707.396.93.265.223.604.335 1.019.335zm6.863-8.224v1.792h1.381v.977h-1.381v4.587c0 .296.062.52.185.67.123.146.333.219.629.219.146 0 .346-.028.601-.082V116a3.667 3.667 0 01-.97.137c-.565 0-.992-.171-1.279-.513-.287-.342-.43-.827-.43-1.456v-4.587h-1.347v-.977h1.347v-1.792h1.264zm4.239 9.188h-1.265v-7.396h1.265V116zm-1.368-9.358c0-.205.062-.379.185-.52.128-.141.314-.212.561-.212.246 0 .432.071.56.212a.746.746 0 01.191.52.718.718 0 01-.191.512c-.128.137-.314.205-.56.205-.247 0-.433-.068-.561-.205a.735.735 0 01-.185-.512zm3.063 5.591c0-.724.141-1.376.424-1.955.287-.578.683-1.025 1.189-1.34.511-.314 1.092-.471 1.743-.471 1.008 0 1.821.348 2.441 1.046.624.697.936 1.624.936 2.782v.089c0 .72-.139 1.367-.417 1.941a3.109 3.109 0 01-1.182 1.333c-.511.319-1.099.479-1.764.479-1.003 0-1.816-.349-2.44-1.046-.62-.697-.93-1.62-.93-2.769v-.089zm1.271.151c0 .82.19 1.479.568 1.975.383.497.893.745 1.531.745.643 0 1.153-.25 1.531-.751.379-.506.568-1.213.568-2.12 0-.811-.194-1.467-.581-1.968-.383-.506-.894-.759-1.532-.759-.624 0-1.128.248-1.51.745-.383.497-.575 1.208-.575 2.133zm8.245-3.78l.041.929c.565-.711 1.303-1.066 2.214-1.066 1.564 0 2.352.882 2.366 2.645V116h-1.265v-4.895c-.005-.533-.128-.927-.369-1.182-.237-.255-.609-.383-1.114-.383-.411 0-.771.109-1.081.328a2.237 2.237 0 00-.724.861V116h-1.265v-7.396h1.197zm6.781 8.25h-1.087l4.156-10.807h1.08l-4.149 10.807zm6.822-8.25v8.25c0 1.422-.645 2.133-1.935 2.133-.278 0-.535-.041-.772-.123v-1.011c.146.036.337.054.574.054.283 0 .497-.077.643-.232.15-.151.225-.415.225-.793v-8.278h1.265zm-1.394-1.962c0-.201.061-.372.184-.513.128-.146.312-.219.554-.219.246 0 .433.071.56.212a.746.746 0 01.192.52.718.718 0 01-.192.512c-.127.137-.314.205-.56.205-.246 0-.431-.068-.554-.205a.735.735 0 01-.184-.512zm7.745 7.396c0-.342-.13-.606-.39-.793-.255-.191-.704-.355-1.347-.492-.638-.137-1.146-.301-1.524-.492-.374-.192-.652-.42-.834-.684a1.648 1.648 0 01-.267-.943c0-.606.256-1.119.766-1.538.515-.42 1.171-.629 1.969-.629.838 0 1.517.216 2.037.649.524.433.786.987.786 1.661h-1.272c0-.346-.148-.645-.444-.895-.292-.251-.661-.376-1.107-.376-.461 0-.821.1-1.08.301-.26.2-.39.462-.39.786 0 .305.121.535.362.69.242.155.677.303 1.306.445.633.141 1.146.309 1.538.505.392.196.681.433.868.711.192.274.287.609.287 1.005 0 .661-.264 1.192-.793 1.593-.528.396-1.214.595-2.057.595-.593 0-1.117-.105-1.573-.315a2.59 2.59 0 01-1.073-.875 2.146 2.146 0 01-.383-1.223h1.265c.023.423.191.761.506 1.011.319.246.738.369 1.258.369.478 0 .861-.095 1.148-.287.292-.196.438-.455.438-.779zm2.577-1.805c0-.724.141-1.376.424-1.955.287-.578.683-1.025 1.189-1.34.51-.314 1.092-.471 1.743-.471 1.007 0 1.821.348 2.441 1.046.624.697.936 1.624.936 2.782v.089c0 .72-.139 1.367-.417 1.941a3.109 3.109 0 01-1.182 1.333c-.511.319-1.099.479-1.764.479-1.003 0-1.816-.349-2.441-1.046-.619-.697-.929-1.62-.929-2.769v-.089zm1.271.151c0 .82.189 1.479.568 1.975.382.497.893.745 1.531.745.642 0 1.153-.25 1.531-.751.378-.506.568-1.213.568-2.12 0-.811-.194-1.467-.582-1.968-.382-.506-.893-.759-1.531-.759-.624 0-1.128.248-1.511.745-.382.497-.574 1.208-.574 2.133zm8.244-3.78l.041.929c.566-.711 1.304-1.066 2.215-1.066 1.563 0 2.352.882 2.365 2.645V116h-1.264v-4.895c-.005-.533-.128-.927-.369-1.182-.237-.255-.609-.383-1.115-.383-.41 0-.77.109-1.08.328-.31.219-.551.506-.724.861V116h-1.265v-7.396h1.196zm6.754-2.174l-.205 2.447h-.759l.007-3.377h.957v.93zm1.846 0l-.205 2.447h-.759l.007-3.377h.957v.93z" fill="#00CA90"/><path d="M55.589 138.288h-3.336v-1.032h3.336v1.032zM64.674 142h-1.32v-4.601h-5.017V142h-1.313v-9.953h1.313v4.279h5.017v-4.279h1.32V142zm-9.085-81.712h-3.336v-1.032h3.336v1.032zm4.683-2.427l2.385-3.814h1.545l-3.144 4.935L64.278 64h-1.56l-2.447-3.883L57.812 64H56.26l3.226-5.018-3.151-4.935h1.538l2.4 3.814zm10.315 2.242V64h-1.313v-9.953h3.671c1.09 0 1.942.278 2.557.834.62.556.93 1.292.93 2.208 0 .966-.303 1.711-.91 2.235-.601.52-1.465.78-2.59.78h-2.345zm0-1.073h2.358c.702 0 1.24-.164 1.614-.492.373-.333.56-.811.56-1.435 0-.593-.187-1.067-.56-1.422-.374-.356-.887-.54-1.538-.554h-2.434v3.903zm15.176.315c0 .975-.164 1.827-.493 2.556-.328.725-.792 1.279-1.394 1.661-.602.383-1.303.575-2.106.575-.783 0-1.478-.192-2.084-.575-.607-.387-1.078-.936-1.416-1.647-.332-.715-.503-1.543-.512-2.481v-.718c0-.957.166-1.803.499-2.536.332-.734.802-1.295 1.408-1.682.61-.392 1.308-.588 2.092-.588.797 0 1.5.194 2.105.581.611.383 1.08.941 1.409 1.675.328.73.492 1.58.492 2.55v.629zm-1.306-.643c0-1.18-.237-2.085-.71-2.714-.475-.633-1.138-.95-1.99-.95-.83 0-1.484.317-1.962.95-.474.63-.718 1.504-.731 2.625v.732c0 1.144.239 2.044.717 2.7.483.652 1.146.977 1.99.977.847 0 1.503-.307 1.968-.922.465-.62.704-1.507.718-2.66v-.738zm6.207.861c-1.126-.323-1.946-.72-2.46-1.189a2.294 2.294 0 01-.766-1.75c0-.784.312-1.431.936-1.941.629-.515 1.445-.773 2.447-.773.684 0 1.292.132 1.826.397.537.264.952.628 1.244 1.093.296.465.444.973.444 1.525h-1.32c0-.602-.19-1.073-.574-1.415-.382-.347-.922-.52-1.62-.52-.647 0-1.153.144-1.517.43-.36.283-.54.678-.54 1.183 0 .406.17.75.512 1.033.347.278.932.533 1.757.765.83.233 1.477.49 1.942.773.469.278.815.604 1.039.977.228.374.342.814.342 1.32 0 .806-.315 1.454-.944 1.941-.629.483-1.47.725-2.522.725-.684 0-1.322-.13-1.914-.39-.593-.264-1.05-.624-1.374-1.08a2.64 2.64 0 01-.479-1.552h1.32c0 .602.22 1.078.663 1.429.446.346 1.04.52 1.784.52.692 0 1.223-.142 1.592-.424.37-.283.554-.668.554-1.156 0-.487-.17-.863-.513-1.128-.341-.268-.961-.533-1.859-.793zm12.257-4.436h-3.2V64h-1.305v-8.873h-3.192v-1.08h7.697v1.08zm3.794-1.08h1.203l4.156 10.808h-1.203l-4.156-10.808zm225.558 52h1.204l4.156 10.807h-1.203l-4.157-10.807z" fill="#fff"/><path d="M77.894 132.43l-.206 2.447h-.758l.006-3.377h.958v.93zm1.845 0l-.205 2.447h-.759l.007-3.377h.957v.93zm6.576 6.972h-4.17L81.21 142h-1.353l3.8-9.953h1.149L88.612 142h-1.346l-.95-2.598zm-3.773-1.08h3.384l-1.695-4.655-1.689 4.655zm11.696 2.947c-.492.578-1.214.868-2.167.868-.788 0-1.39-.228-1.804-.684-.41-.46-.618-1.139-.623-2.037v-4.812h1.265v4.778c0 1.121.456 1.681 1.367 1.681.967 0 1.61-.36 1.928-1.08v-5.379h1.265V142h-1.203l-.028-.731zm4.874-8.457v1.792h1.381v.977h-1.38v4.587c0 .296.06.52.184.67.123.146.333.219.629.219.146 0 .346-.028.601-.082V142a3.667 3.667 0 01-.97.137c-.566 0-.992-.171-1.279-.513-.287-.342-.43-.827-.43-1.456v-4.587H96.5v-.977h1.347v-1.792h1.264zm4.129 2.687c.561-.688 1.29-1.032 2.188-1.032 1.563 0 2.351.882 2.365 2.645V142h-1.265v-4.895c-.004-.533-.127-.927-.369-1.182-.237-.255-.608-.383-1.114-.383-.41 0-.77.109-1.08.328a2.23 2.23 0 00-.725.861V142h-1.264v-10.5h1.264v3.999zm6.112 2.734c0-.724.141-1.376.423-1.955a3.226 3.226 0 011.19-1.34c.51-.314 1.091-.471 1.743-.471 1.007 0 1.821.348 2.44 1.046.625.697.937 1.624.937 2.782v.089c0 .72-.139 1.367-.417 1.941a3.11 3.11 0 01-1.183 1.333c-.51.319-1.098.479-1.763.479-1.003 0-1.816-.349-2.441-1.046-.62-.697-.929-1.62-.929-2.769v-.089zm1.271.151c0 .82.189 1.479.567 1.975.383.497.894.745 1.532.745.642 0 1.153-.25 1.531-.751.378-.506.567-1.213.567-2.12 0-.811-.193-1.467-.581-1.968-.383-.506-.893-.759-1.531-.759-.624 0-1.128.248-1.511.745s-.574 1.208-.574 2.133zm10.623-2.646a3.777 3.777 0 00-.622-.048c-.829 0-1.392.354-1.688 1.06V142h-1.265v-7.396h1.23l.021.854c.415-.661 1.002-.991 1.764-.991.246 0 .432.032.56.095v1.176zM123.79 142h-1.265v-7.396h1.265V142zm-1.367-9.358c0-.205.061-.379.184-.52.128-.141.315-.212.561-.212.246 0 .433.071.561.212a.75.75 0 01.191.52.722.722 0 01-.191.512c-.128.137-.315.205-.561.205-.246 0-.433-.068-.561-.205a.735.735 0 01-.184-.512zm4.587 8.326h4.327V142h-5.872v-.93l4.081-5.421h-4.02v-1.045h5.606v.895l-4.122 5.469zM137.332 142c-.073-.146-.132-.406-.178-.779-.588.61-1.289.916-2.105.916-.729 0-1.329-.205-1.798-.616-.465-.414-.697-.938-.697-1.572 0-.77.291-1.367.875-1.791.588-.428 1.412-.642 2.474-.642h1.231v-.581c0-.442-.132-.793-.397-1.053-.264-.264-.654-.397-1.169-.397-.451 0-.829.114-1.134.342-.306.228-.458.504-.458.827h-1.272c0-.369.13-.724.39-1.066a2.7 2.7 0 011.066-.82 3.605 3.605 0 011.484-.301c.852 0 1.519.214 2.002.642.484.424.734 1.01.752 1.757v3.405c0 .679.087 1.219.26 1.62V142h-1.326zm-2.099-.964a2.22 2.22 0 001.128-.307c.356-.206.613-.472.773-.8v-1.518h-.991c-1.55 0-2.325.454-2.325 1.36 0 .397.133.707.397.93.264.223.604.335 1.018.335zm6.864-8.224v1.792h1.381v.977h-1.381v4.587c0 .296.061.52.184.67.123.146.333.219.629.219.146 0 .347-.028.602-.082V142a3.68 3.68 0 01-.971.137c-.565 0-.991-.171-1.278-.513-.287-.342-.431-.827-.431-1.456v-4.587h-1.347v-.977h1.347v-1.792h1.265zm4.238 9.188h-1.265v-7.396h1.265V142zm-1.367-9.358c0-.205.061-.379.184-.52.128-.141.315-.212.561-.212.246 0 .433.071.56.212a.746.746 0 01.192.52.718.718 0 01-.192.512c-.127.137-.314.205-.56.205-.246 0-.433-.068-.561-.205a.735.735 0 01-.184-.512zm3.062 5.591c0-.724.142-1.376.424-1.955a3.226 3.226 0 011.19-1.34c.51-.314 1.091-.471 1.743-.471 1.007 0 1.82.348 2.44 1.046.624.697.937 1.624.937 2.782v.089c0 .72-.139 1.367-.417 1.941a3.117 3.117 0 01-1.183 1.333c-.51.319-1.098.479-1.764.479-1.002 0-1.816-.349-2.44-1.046-.62-.697-.93-1.62-.93-2.769v-.089zm1.272.151c0 .82.189 1.479.567 1.975.383.497.893.745 1.531.745.643 0 1.153-.25 1.532-.751.378-.506.567-1.213.567-2.12 0-.811-.194-1.467-.581-1.968-.383-.506-.893-.759-1.531-.759-.625 0-1.128.248-1.511.745s-.574 1.208-.574 2.133zm8.244-3.78l.041.929c.565-.711 1.303-1.066 2.215-1.066 1.563 0 2.351.882 2.365 2.645V142h-1.265v-4.895c-.004-.533-.127-.927-.369-1.182-.237-.255-.608-.383-1.114-.383-.41 0-.77.109-1.08.328a2.23 2.23 0 00-.725.861V142h-1.264v-7.396h1.196zm6.487 6.733a.8.8 0 01.192-.547c.132-.146.328-.219.587-.219.26 0 .456.073.588.219a.767.767 0 01.205.547c0 .21-.068.385-.205.526-.132.142-.328.212-.588.212-.259 0-.455-.07-.587-.212a.753.753 0 01-.192-.526zm.007-6.036c0-.219.064-.401.191-.547.133-.146.329-.219.588-.219.26 0 .456.073.588.219a.767.767 0 01.205.547.726.726 0 01-.205.526c-.132.141-.328.212-.588.212-.259 0-.455-.071-.588-.212a.758.758 0 01-.191-.526zm7.096 6.699v-9.953h3.254c1.08 0 1.891.223 2.433.67.547.446.821 1.107.821 1.982 0 .465-.133.877-.397 1.238a2.582 2.582 0 01-1.08.827c.538.15.962.437 1.271.861.315.419.472.921.472 1.504 0 .893-.289 1.595-.868 2.105-.579.511-1.397.766-2.454.766h-3.452zm1.312-4.655v3.582h2.167c.611 0 1.092-.157 1.443-.472.355-.319.533-.756.533-1.312 0-1.199-.652-1.798-1.955-1.798h-2.188zm0-1.053h1.983c.574 0 1.032-.144 1.374-.431.346-.287.519-.676.519-1.169 0-.546-.159-.943-.478-1.189-.319-.251-.805-.376-1.456-.376h-1.942v3.165zm10.281 5.845c-1.002 0-1.818-.328-2.447-.985-.629-.66-.943-1.542-.943-2.645v-.233c0-.733.139-1.387.417-1.962a3.281 3.281 0 011.176-1.353 2.957 2.957 0 011.64-.492c.962 0 1.709.317 2.242.95.534.633.8 1.54.8 2.721v.526h-5.01c.018.729.23 1.319.635 1.771.41.446.93.669 1.559.669.446 0 .825-.091 1.135-.273.31-.182.581-.424.813-.725l.773.602c-.62.952-1.55 1.429-2.79 1.429zm-.157-6.631c-.51 0-.939.187-1.285.56-.346.37-.56.889-.642 1.559h3.705v-.096c-.037-.642-.21-1.139-.52-1.49-.31-.355-.729-.533-1.258-.533zM191.65 142c-.073-.146-.132-.406-.177-.779-.588.61-1.29.916-2.106.916-.729 0-1.328-.205-1.798-.616-.465-.414-.697-.938-.697-1.572 0-.77.292-1.367.875-1.791.588-.428 1.413-.642 2.475-.642h1.23v-.581c0-.442-.132-.793-.396-1.053-.265-.264-.654-.397-1.169-.397-.451 0-.83.114-1.135.342-.305.228-.458.504-.458.827h-1.272c0-.369.13-.724.39-1.066.264-.346.62-.62 1.067-.82a3.6 3.6 0 011.483-.301c.852 0 1.52.214 2.003.642.483.424.734 1.01.752 1.757v3.405c0 .679.086 1.219.26 1.62V142h-1.327zm-2.098-.964c.396 0 .772-.102 1.128-.307.355-.206.613-.472.772-.8v-1.518h-.991c-1.55 0-2.324.454-2.324 1.36 0 .397.132.707.396.93.265.223.604.335 1.019.335zm8.722-5.298a3.768 3.768 0 00-.622-.048c-.829 0-1.392.354-1.688 1.06V142h-1.265v-7.396h1.231l.02.854c.415-.661 1.003-.991 1.764-.991.246 0 .433.032.56.095v1.176zm4.102 6.399c-1.003 0-1.818-.328-2.447-.985-.629-.66-.944-1.542-.944-2.645v-.233c0-.733.139-1.387.417-1.962a3.295 3.295 0 011.176-1.353 2.96 2.96 0 011.641-.492c.961 0 1.709.317 2.242.95.533.633.8 1.54.8 2.721v.526h-5.011c.018.729.23 1.319.636 1.771.41.446.929.669 1.558.669.447 0 .825-.091 1.135-.273.31-.182.581-.424.814-.725l.772.602c-.62.952-1.549 1.429-2.789 1.429zm-.157-6.631c-.511 0-.939.187-1.285.56-.347.37-.561.889-.643 1.559h3.705v-.096c-.036-.642-.21-1.139-.519-1.49-.31-.355-.73-.533-1.258-.533zm8.087.232a3.785 3.785 0 00-.622-.048c-.83 0-1.393.354-1.689 1.06V142h-1.265v-7.396h1.231l.02.854c.415-.661 1.003-.991 1.764-.991.246 0 .433.032.561.095v1.176zm10.889 2.646c0 1.125-.257 2.032-.772 2.72-.515.689-1.212 1.033-2.092 1.033-.898 0-1.604-.285-2.119-.855v3.562h-1.265v-10.24h1.156l.061.82c.515-.638 1.231-.957 2.147-.957.888 0 1.59.335 2.105 1.005.52.67.779 1.602.779 2.796v.116zm-1.264-.144c0-.834-.178-1.492-.534-1.975-.355-.483-.843-.725-1.462-.725-.766 0-1.34.34-1.723 1.019v3.534c.378.674.957 1.011 1.736 1.011.606 0 1.087-.239 1.443-.717.36-.483.54-1.199.54-2.147zm7.444 3.029c-.492.578-1.215.868-2.167.868-.788 0-1.39-.228-1.805-.684-.41-.46-.617-1.139-.622-2.037v-4.812h1.265v4.778c0 1.121.456 1.681 1.367 1.681.966 0 1.609-.36 1.928-1.08v-5.379h1.264V142h-1.203l-.027-.731zm9.42-2.885c0 1.13-.26 2.039-.779 2.727-.52.684-1.217 1.026-2.092 1.026-.934 0-1.657-.331-2.167-.991l-.062.854h-1.162v-10.5h1.265v3.917c.51-.633 1.214-.95 2.112-.95.898 0 1.602.339 2.112 1.018.515.679.773 1.609.773 2.789v.11zm-1.265-.144c0-.861-.166-1.526-.499-1.996-.332-.469-.811-.704-1.435-.704-.834 0-1.434.387-1.798 1.162v3.199c.387.775.991 1.162 1.811 1.162.606 0 1.078-.234 1.415-.704.338-.469.506-1.175.506-2.119zm4.239 3.76h-1.265v-10.5h1.265V142zm3.404 0h-1.265v-7.396h1.265V142zm-1.367-9.358c0-.205.061-.379.184-.52.128-.141.315-.212.561-.212.246 0 .433.071.56.212a.746.746 0 01.192.52.718.718 0 01-.192.512c-.127.137-.314.205-.56.205-.246 0-.433-.068-.561-.205a.735.735 0 01-.184-.512zm6.364 8.462c.451 0 .845-.136 1.183-.41a1.44 1.44 0 00.56-1.025h1.196a2.285 2.285 0 01-.437 1.21 2.876 2.876 0 01-1.08.916 3.087 3.087 0 01-1.422.342c-1.007 0-1.809-.335-2.406-1.005-.593-.675-.889-1.595-.889-2.762v-.212c0-.72.132-1.36.396-1.921.265-.56.643-.995 1.135-1.305.497-.31 1.083-.465 1.757-.465.83 0 1.518.248 2.065.745.551.497.845 1.142.881 1.934h-1.196c-.036-.478-.219-.87-.547-1.175-.323-.31-.724-.465-1.203-.465-.642 0-1.142.232-1.497.697-.351.46-.526 1.128-.526 2.003v.239c0 .853.175 1.509.526 1.969.351.46.852.69 1.504.69zm9.693 1.928h-6.261V142h6.261v1.032zm3.049-4.457l-.793.827V142h-1.265v-10.5h1.265v6.351l.677-.814 2.304-2.433h1.538l-2.878 3.089 3.213 4.307h-1.484l-2.577-3.425zm7.964 3.562c-1.003 0-1.818-.328-2.447-.985-.629-.66-.944-1.542-.944-2.645v-.233c0-.733.139-1.387.417-1.962a3.295 3.295 0 011.176-1.353 2.96 2.96 0 011.641-.492c.961 0 1.709.317 2.242.95.533.633.8 1.54.8 2.721v.526h-5.011c.018.729.23 1.319.636 1.771.41.446.929.669 1.558.669.447 0 .825-.091 1.135-.273.31-.182.581-.424.814-.725l.772.602c-.62.952-1.549 1.429-2.789 1.429zm-.157-6.631c-.511 0-.939.187-1.285.56-.347.37-.561.889-.643 1.559h3.705v-.096c-.036-.642-.21-1.139-.519-1.49-.31-.355-.73-.533-1.258-.533zm6.836 4.641l1.722-5.543h1.354l-2.974 8.538c-.46 1.23-1.192 1.845-2.194 1.845l-.239-.02-.472-.089v-1.025l.342.027c.428 0 .761-.087.998-.26.241-.173.44-.49.595-.95l.28-.752-2.639-7.314h1.381l1.846 5.543zm4.17 1.19c0-.219.063-.401.191-.547.132-.146.328-.219.588-.219.26 0 .456.073.588.219a.767.767 0 01.205.547c0 .21-.068.385-.205.526-.132.142-.328.212-.588.212-.26 0-.456-.07-.588-.212a.752.752 0 01-.191-.526zm.006-6.036a.8.8 0 01.192-.547c.132-.146.328-.219.588-.219.26 0 .455.073.588.219a.772.772 0 01.205.547.73.73 0 01-.205.526c-.133.141-.328.212-.588.212-.26 0-.456-.071-.588-.212a.754.754 0 01-.192-.526zm8.634 3.356h1.381v1.032h-1.381V142h-1.271v-2.311h-4.532v-.745l4.457-6.897h1.346v6.61zm-4.368 0h3.097v-4.881l-.151.274-2.946 4.607zm13.316-5.899L293.191 142h-1.326l4.109-8.914h-5.387v-1.039h6.726v.711zm7.472 1.887c0 .496-.132.938-.396 1.326-.26.387-.613.69-1.06.909.52.223.93.549 1.231.977.305.429.458.914.458 1.456 0 .862-.292 1.548-.875 2.058-.579.511-1.343.766-2.29.766-.957 0-1.725-.255-2.304-.766-.574-.515-.861-1.201-.861-2.058 0-.537.145-1.023.437-1.456a2.76 2.76 0 011.224-.984 2.612 2.612 0 01-1.046-.909 2.347 2.347 0 01-.383-1.319c0-.839.269-1.504.807-1.997.537-.492 1.246-.738 2.126-.738.875 0 1.581.246 2.119.738.542.493.813 1.158.813 1.997zm-1.032 4.641c0-.556-.178-1.009-.533-1.36-.351-.351-.811-.527-1.381-.527s-1.028.174-1.374.52c-.342.346-.513.802-.513 1.367s.166 1.01.499 1.333c.337.324.805.485 1.402.485.592 0 1.057-.161 1.394-.485.337-.328.506-.772.506-1.333zm-1.9-6.337c-.497 0-.901.155-1.21.465-.306.305-.458.722-.458 1.251 0 .506.15.916.451 1.231.305.309.711.464 1.217.464.505 0 .909-.155 1.209-.464.306-.315.459-.725.459-1.231 0-.506-.158-.918-.472-1.237-.315-.319-.713-.479-1.196-.479zm10.999 4.806c0 1.481-.253 2.582-.759 3.302-.506.72-1.297 1.08-2.372 1.08-1.062 0-1.848-.351-2.359-1.053-.51-.706-.774-1.759-.793-3.158v-1.689c0-1.463.253-2.549.759-3.26.506-.711 1.299-1.067 2.379-1.067 1.071 0 1.859.344 2.365 1.032.506.684.766 1.741.78 3.172v1.641zm-1.265-1.73c0-1.071-.15-1.85-.451-2.337-.301-.493-.777-.739-1.429-.739-.647 0-1.119.244-1.415.732-.296.487-.449 1.237-.458 2.249v2.023c0 1.076.155 1.871.465 2.386.314.51.788.765 1.422.765.624 0 1.087-.241 1.387-.724.306-.483.465-1.244.479-2.283v-2.072zm9.126 1.73c0 1.481-.253 2.582-.759 3.302-.506.72-1.296 1.08-2.372 1.08-1.062 0-1.848-.351-2.358-1.053-.511-.706-.775-1.759-.793-3.158v-1.689c0-1.463.253-2.549.758-3.26.506-.711 1.299-1.067 2.379-1.067 1.071 0 1.86.344 2.366 1.032.505.684.765 1.741.779 3.172v1.641zm-1.265-1.73c0-1.071-.15-1.85-.451-2.337-.301-.493-.777-.739-1.429-.739-.647 0-1.118.244-1.415.732-.296.487-.449 1.237-.458 2.249v2.023c0 1.076.155 1.871.465 2.386.315.51.789.765 1.422.765.624 0 1.087-.241 1.388-.724.305-.483.465-1.244.478-2.283v-2.072zm6.084 6.112c-1.002 0-1.818-.328-2.447-.985-.629-.66-.943-1.542-.943-2.645v-.233c0-.733.139-1.387.417-1.962a3.286 3.286 0 011.175-1.353 2.96 2.96 0 011.641-.492c.962 0 1.709.317 2.242.95.533.633.8 1.54.8 2.721v.526h-5.011c.018.729.23 1.319.636 1.771.41.446.93.669 1.559.669.446 0 .824-.091 1.134-.273.31-.182.581-.424.814-.725l.772.602c-.62.952-1.549 1.429-2.789 1.429zm-.157-6.631c-.51 0-.939.187-1.285.56-.347.37-.561.889-.643 1.559h3.705v-.096c-.036-.642-.209-1.139-.519-1.49-.31-.355-.729-.533-1.258-.533zm9.078 6.494c-.073-.146-.132-.406-.178-.779-.587.61-1.289.916-2.105.916-.729 0-1.329-.205-1.798-.616-.465-.414-.697-.938-.697-1.572 0-.77.291-1.367.875-1.791.588-.428 1.413-.642 2.474-.642h1.231v-.581c0-.442-.132-.793-.397-1.053-.264-.264-.654-.397-1.169-.397-.451 0-.829.114-1.134.342-.306.228-.458.504-.458.827h-1.272c0-.369.13-.724.39-1.066a2.7 2.7 0 011.066-.82 3.605 3.605 0 011.484-.301c.852 0 1.52.214 2.003.642.483.424.733 1.01.752 1.757v3.405c0 .679.086 1.219.259 1.62V142h-1.326zm-2.099-.964a2.22 2.22 0 001.128-.307c.356-.206.613-.472.773-.8v-1.518h-.991c-1.55 0-2.325.454-2.325 1.36 0 .397.133.707.397.93.264.223.604.335 1.018.335zm11.259-3.281c0 1.481-.253 2.582-.759 3.302-.505.72-1.296 1.08-2.372 1.08-1.061 0-1.848-.351-2.358-1.053-.51-.706-.775-1.759-.793-3.158v-1.689c0-1.463.253-2.549.759-3.26.506-.711 1.299-1.067 2.379-1.067 1.071 0 1.859.344 2.365 1.032.506.684.766 1.741.779 3.172v1.641zm-1.264-1.73c0-1.071-.151-1.85-.452-2.337-.3-.493-.777-.739-1.428-.739-.647 0-1.119.244-1.415.732-.297.487-.449 1.237-.458 2.249v2.023c0 1.076.155 1.871.465 2.386.314.51.788.765 1.421.765.625 0 1.087-.241 1.388-.724.305-.483.465-1.244.479-2.283v-2.072zm6.084 6.112c-1.003 0-1.819-.328-2.448-.985-.629-.66-.943-1.542-.943-2.645v-.233c0-.733.139-1.387.417-1.962a3.288 3.288 0 011.176-1.353 2.96 2.96 0 011.64-.492c.962 0 1.709.317 2.243.95.533.633.799 1.54.799 2.721v.526h-5.01c.018.729.23 1.319.635 1.771.411.446.93.669 1.559.669.447 0 .825-.091 1.135-.273.31-.182.581-.424.813-.725l.773.602c-.62.952-1.55 1.429-2.789 1.429zm-.158-6.631c-.51 0-.938.187-1.285.56-.346.37-.56.889-.642 1.559h3.705v-.096c-.037-.642-.21-1.139-.52-1.49-.31-.355-.729-.533-1.258-.533zm7.581 6.631c-1.002 0-1.818-.328-2.447-.985-.629-.66-.943-1.542-.943-2.645v-.233c0-.733.139-1.387.417-1.962a3.281 3.281 0 011.176-1.353 2.954 2.954 0 011.64-.492c.962 0 1.709.317 2.242.95.534.633.8 1.54.8 2.721v.526h-5.011c.019.729.231 1.319.636 1.771.41.446.93.669 1.559.669.446 0 .825-.091 1.135-.273a2.85 2.85 0 00.813-.725l.773.602c-.62.952-1.55 1.429-2.79 1.429zm-.157-6.631c-.51 0-.939.187-1.285.56-.346.37-.56.889-.643 1.559h3.706v-.096c-.037-.642-.21-1.139-.52-1.49-.31-.355-.729-.533-1.258-.533zm4.963 1.504l.506-4.963h5.1v1.169h-4.027l-.301 2.714a3.217 3.217 0 011.662-.431c.906 0 1.627.301 2.16.902.533.597.8 1.406.8 2.427 0 1.026-.278 1.834-.834 2.427-.552.588-1.324.882-2.318.882-.879 0-1.597-.244-2.153-.732-.556-.487-.873-1.162-.95-2.023h1.196c.077.569.28 1 .608 1.292.328.287.761.43 1.299.43.588 0 1.048-.2 1.381-.601.337-.401.506-.955.506-1.661 0-.666-.182-1.199-.547-1.6-.36-.405-.841-.608-1.442-.608-.552 0-.985.121-1.299.362l-.335.274-1.012-.26zm12.619 1.647h1.381v1.032h-1.381V142h-1.271v-2.311h-4.532v-.745l4.457-6.897h1.346v6.61zm-4.368 0h3.097v-4.881l-.151.274-2.946 4.607zM379.96 142h-1.272v-8.429l-2.549.937v-1.149l3.623-1.36h.198V142zm10.097-3.616c0 1.13-.26 2.039-.78 2.727-.519.684-1.216 1.026-2.091 1.026-.935 0-1.657-.331-2.167-.991l-.062.854h-1.162v-10.5h1.265v3.917c.51-.633 1.214-.95 2.112-.95.898 0 1.602.339 2.112 1.018.515.679.773 1.609.773 2.789v.11zm-1.265-.144c0-.861-.166-1.526-.499-1.996-.333-.469-.811-.704-1.436-.704-.834 0-1.433.387-1.797 1.162v3.199c.387.775.991 1.162 1.811 1.162.606 0 1.078-.234 1.415-.704.337-.469.506-1.175.506-2.119zm8.073.417h1.381v1.032h-1.381V142h-1.271v-2.311h-4.532v-.745l4.457-6.897h1.346v6.61zm-4.368 0h3.097v-4.881l-.151.274-2.946 4.607zm9.987 2.447c.452 0 .846-.136 1.183-.41.337-.273.524-.615.561-1.025h1.196a2.295 2.295 0 01-.438 1.21 2.876 2.876 0 01-1.08.916c-.446.228-.92.342-1.422.342-1.007 0-1.809-.335-2.406-1.005-.592-.675-.889-1.595-.889-2.762v-.212c0-.72.133-1.36.397-1.921.264-.56.643-.995 1.135-1.305.496-.31 1.082-.465 1.757-.465.829 0 1.517.248 2.064.745.551.497.845 1.142.882 1.934h-1.196c-.037-.478-.219-.87-.547-1.175-.324-.31-.725-.465-1.203-.465-.643 0-1.142.232-1.498.697-.35.46-.526 1.128-.526 2.003v.239c0 .853.176 1.509.526 1.969.351.46.853.69 1.504.69zm5.216-8.674l-.205 2.447h-.759l.007-3.377h.957v.93zm1.846 0l-.205 2.447h-.759l.007-3.377h.957v.93z" fill="#00CA90"/><path d="M55.589 112.288h-3.336v-1.032h3.336v1.032zM64.674 116h-1.32v-4.601h-5.017V116h-1.313v-9.953h1.313v4.279h5.017v-4.279h1.32V116z" fill="#fff"/><path d="M0 326h443v59H0v-59z" fill="#142F4A"/><path d="M20 355.5c0-8.008 6.492-14.5 14.5-14.5h28c8.008 0 14.5 6.492 14.5 14.5S70.508 370 62.5 370h-28c-8.008 0-14.5-6.492-14.5-14.5z" fill="#33506B"/><path d="M44.082 355.616c-.132 1.128-.55 2-1.252 2.615-.699.61-1.629.915-2.79.915-1.26 0-2.271-.451-3.033-1.354-.757-.904-1.135-2.112-1.135-3.626v-1.025c0-.992.175-1.863.527-2.615.356-.752.86-1.328 1.509-1.729.65-.405 1.401-.608 2.256-.608 1.132 0 2.04.318 2.724.953.684.629 1.082 1.504 1.194 2.622h-1.413c-.123-.85-.389-1.465-.799-1.846-.405-.381-.974-.571-1.706-.571-.899 0-1.604.332-2.117.996-.508.664-.762 1.609-.762 2.834v1.033c0 1.157.242 2.078.725 2.761.484.684 1.16 1.026 2.03 1.026.78 0 1.379-.176 1.794-.528.42-.356.698-.974.834-1.853h1.414zm6.606 2.6c-.527.62-1.3.93-2.321.93-.845 0-1.49-.244-1.934-.732-.44-.493-.661-1.221-.666-2.183v-5.156h1.355v5.12c0 1.201.488 1.802 1.464 1.802 1.036 0 1.724-.386 2.066-1.158v-5.764h1.355V359h-1.29l-.029-.784zm7.215-5.925a4.08 4.08 0 00-.667-.051c-.888 0-1.491.378-1.809 1.135V359h-1.355v-7.925h1.319l.022.916c.444-.708 1.074-1.062 1.89-1.062.263 0 .463.034.6.102v1.26zM60.627 359h-1.355v-11.25h1.355V359zm107.807 0h-1.414l-5.369-8.218V359h-1.413v-10.664h1.413l5.384 8.254v-8.254h1.399V359zm1.926-4.036c0-.776.151-1.474.454-2.094.308-.62.732-1.099 1.274-1.436.547-.337 1.17-.505 1.868-.505 1.079 0 1.951.373 2.615 1.12.669.747 1.003 1.741 1.003 2.981v.095c0 .772-.149 1.465-.447 2.081a3.338 3.338 0 01-1.267 1.428c-.547.342-1.176.512-1.889.512-1.075 0-1.946-.373-2.615-1.12-.664-.747-.996-1.736-.996-2.966v-.096zm1.362.161c0 .879.203 1.585.608 2.117.41.532.957.799 1.641.799.688 0 1.235-.269 1.64-.806.406-.542.608-1.299.608-2.271 0-.869-.207-1.572-.622-2.109-.41-.542-.957-.813-1.641-.813-.669 0-1.208.266-1.619.798-.41.533-.615 1.294-.615 2.285zm7.222-.153c0-1.216.288-2.193.864-2.93.576-.742 1.331-1.113 2.263-1.113.928 0 1.663.317 2.205.952v-4.131h1.355V359h-1.245l-.066-.85c-.542.664-1.297.996-2.263.996-.918 0-1.668-.375-2.249-1.127-.576-.752-.864-1.734-.864-2.945v-.102zm1.355.153c0 .899.185 1.602.556 2.11.372.508.884.762 1.539.762.859 0 1.486-.386 1.882-1.158v-3.64c-.405-.747-1.028-1.12-1.868-1.12-.664 0-1.181.256-1.553.769-.371.512-.556 1.272-.556 2.277zm10.73 4.021c-1.074 0-1.948-.351-2.622-1.054-.674-.708-1.011-1.653-1.011-2.835v-.249c0-.786.149-1.487.447-2.102.303-.62.722-1.103 1.26-1.45a3.162 3.162 0 011.757-.527c1.031 0 1.831.339 2.403 1.018.571.678.857 1.65.857 2.915v.564h-5.369c.02.781.247 1.413.681 1.897.44.478.996.718 1.67.718.479 0 .884-.098 1.216-.293a3.07 3.07 0 00.871-.777l.828.645c-.664 1.02-1.66 1.53-2.988 1.53zm-.169-7.104a1.8 1.8 0 00-1.377.601c-.371.395-.6.952-.688 1.669h3.97v-.102c-.039-.689-.225-1.221-.557-1.597-.332-.381-.781-.571-1.348-.571zm91.784 2.783V359h-1.406v-10.664h3.933c1.167 0 2.08.298 2.739.893.664.596.996 1.385.996 2.366 0 1.035-.324 1.834-.974 2.395-.644.557-1.57.835-2.776.835h-2.512zm0-1.15h2.527c.752 0 1.328-.175 1.728-.527.401-.356.601-.869.601-1.538 0-.635-.2-1.143-.601-1.524-.4-.38-.949-.578-1.648-.593h-2.607v4.182zm10.554 3.34l1.846-5.94h1.45l-3.186 9.148c-.493 1.319-1.277 1.978-2.351 1.978l-.256-.022-.506-.096v-1.098l.367.029c.459 0 .815-.093 1.069-.278.259-.186.471-.525.637-1.018l.3-.806-2.827-7.837h1.48l1.977 5.94zm6.35-7.859v1.919h1.48v1.048h-1.48v4.914c0 .317.066.557.198.718.132.156.357.234.674.234.156 0 .371-.029.644-.088V359a3.91 3.91 0 01-1.04.146c-.605 0-1.062-.183-1.369-.549-.308-.366-.462-.886-.462-1.56v-4.914h-1.443v-1.048h1.443v-1.919h1.355zm4.424 2.879c.601-.738 1.382-1.106 2.344-1.106 1.675 0 2.519.945 2.534 2.834V359h-1.355v-5.244c-.005-.571-.137-.994-.395-1.267-.254-.274-.652-.41-1.194-.41-.44 0-.825.117-1.157.351a2.397 2.397 0 00-.777.923V359h-1.355v-11.25h1.355v4.285zm6.548 2.929c0-.776.151-1.474.454-2.094.308-.62.733-1.099 1.275-1.436.546-.337 1.169-.505 1.867-.505 1.079 0 1.951.373 2.615 1.12.669.747 1.003 1.741 1.003 2.981v.095c0 .772-.149 1.465-.446 2.081a3.345 3.345 0 01-1.267 1.428c-.547.342-1.177.512-1.89.512-1.074 0-1.946-.373-2.615-1.12-.664-.747-.996-1.736-.996-2.966v-.096zm1.362.161c0 .879.203 1.585.608 2.117.41.532.957.799 1.641.799.688 0 1.235-.269 1.64-.806.406-.542.608-1.299.608-2.271 0-.869-.207-1.572-.622-2.109-.41-.542-.957-.813-1.641-.813-.669 0-1.208.266-1.618.798-.411.533-.616 1.294-.616 2.285zm8.833-4.05l.044.996c.606-.761 1.397-1.142 2.373-1.142 1.675 0 2.52.945 2.535 2.834V359h-1.355v-5.244c-.005-.571-.137-.994-.396-1.267-.254-.274-.652-.41-1.194-.41-.439 0-.825.117-1.157.351a2.386 2.386 0 00-.776.923V359h-1.355v-7.925h1.281zm-221.566 3.611h-2.505V359h-1.413v-10.664h3.53c1.2 0 2.124.273 2.768.82.65.547.974 1.343.974 2.388 0 .664-.18 1.243-.542 1.736-.356.493-.854.862-1.494 1.106l2.505 4.526V359h-1.509l-2.314-4.314zm-2.505-1.15h2.16c.699 0 1.253-.181 1.663-.542.415-.361.623-.845.623-1.45 0-.659-.198-1.165-.593-1.516-.391-.352-.957-.53-1.7-.535h-2.153v4.043zm12.517 4.68c-.527.62-1.301.93-2.322.93-.844 0-1.489-.244-1.933-.732-.44-.493-.662-1.221-.667-2.183v-5.156h1.355v5.12c0 1.201.489 1.802 1.465 1.802 1.035 0 1.724-.386 2.066-1.158v-5.764h1.354V359h-1.289l-.029-.784zm10.093-3.091c0 1.211-.278 2.186-.835 2.923-.557.732-1.304 1.098-2.241 1.098-1.001 0-1.775-.354-2.322-1.062l-.066.916h-1.245v-11.25h1.355v4.197c.547-.679 1.301-1.018 2.263-1.018s1.716.363 2.263 1.091c.552.728.828 1.724.828 2.988v.117zm-1.355-.153c0-.923-.178-1.636-.535-2.139-.356-.503-.869-.754-1.538-.754-.893 0-1.535.415-1.926 1.245v3.427c.415.831 1.062 1.246 1.941 1.246.649 0 1.155-.252 1.516-.755s.542-1.26.542-2.27zm5.574 2.043l1.845-5.94h1.451l-3.186 9.148c-.494 1.319-1.277 1.978-2.352 1.978l-.256-.022-.505-.096v-1.098l.366.029c.459 0 .815-.093 1.069-.278.259-.186.471-.525.637-1.018l.301-.806-2.827-7.837h1.479l1.978 5.94zm238.995-2.911V358h-1.313v-9.953h3.671c1.089 0 1.942.278 2.557.834.62.556.929 1.292.929 2.208 0 .966-.303 1.711-.909 2.235-.601.52-1.465.78-2.591.78h-2.344zm0-1.074h2.358c.702 0 1.24-.164 1.613-.492.374-.333.561-.811.561-1.435 0-.593-.187-1.067-.561-1.422-.373-.356-.886-.54-1.538-.554h-2.433v3.903zm15.169 4.97h-1.32v-4.601H371.3V358h-1.313v-9.953h1.313v4.279h5.017v-4.279h1.32V358zm3.643-3.896V358h-1.312v-9.953h3.671c1.089 0 1.941.278 2.556.834.62.556.93 1.292.93 2.208 0 .966-.303 1.711-.909 2.235-.602.52-1.465.78-2.591.78h-2.345zm0-1.074h2.359c.701 0 1.239-.164 1.613-.492.374-.333.56-.811.56-1.435 0-.593-.186-1.067-.56-1.422-.374-.356-.886-.54-1.538-.554h-2.434v3.903zm-144.169 4.571c-.361.518-.866.906-1.516 1.165-.644.254-1.396.38-2.256.38-.869 0-1.64-.202-2.314-.607-.674-.411-1.196-.992-1.567-1.744-.367-.752-.555-1.623-.564-2.614v-.931c0-1.606.373-2.851 1.12-3.735.752-.884 1.807-1.326 3.164-1.326 1.114 0 2.01.286 2.688.857.679.567 1.094 1.372 1.245 2.417h-1.406c-.264-1.411-1.103-2.116-2.519-2.116-.943 0-1.658.332-2.146.996-.484.659-.728 1.616-.733 2.871v.871c0 1.197.274 2.149.82 2.857.547.703 1.287 1.055 2.22 1.055a4.9 4.9 0 001.384-.176c.395-.117.723-.315.981-.593v-2.395h-2.468v-1.143h3.867v3.911zm1.78-2.637c0-.776.151-1.474.454-2.094.308-.62.733-1.099 1.275-1.436.547-.337 1.169-.505 1.867-.505 1.079 0 1.951.373 2.615 1.12.669.747 1.003 1.741 1.003 2.981v.095c0 .772-.148 1.465-.446 2.081a3.345 3.345 0 01-1.267 1.428c-.547.342-1.177.512-1.89.512-1.074 0-1.946-.373-2.615-1.12-.664-.747-.996-1.736-.996-2.966v-.096zm1.362.161c0 .879.203 1.585.608 2.117.41.532.957.799 1.641.799.688 0 1.235-.269 1.641-.806.405-.542.607-1.299.607-2.271 0-.869-.207-1.572-.622-2.109-.41-.542-.957-.813-1.641-.813-.669 0-1.208.266-1.618.798-.411.533-.616 1.294-.616 2.285z" fill="#fff"/></g><defs><clipPath id="clip0"><path fill="#fff" d="M0 0h443v385H0z"/></clipPath><filter id="filter0_d" x="-50" y="-20" width="543" height="485" filterUnits="userSpaceOnUse" color-interpolation-filters="sRGB"><feFlood flood-opacity="0" result="BackgroundImageFix"/><feColorMatrix in="SourceAlpha" values="0 0 0 0 0 0 0 0 0 0 0 0 0 0 0 0 0 0 127 0" result="hardAlpha"/><feOffset dy="30"/><feGaussianBlur stdDeviation="25"/><feColorMatrix values="0 0 0 0 0.0235294 0 0 0 0 0.0901961 0 0 0 0 0.0352941 0 0 0 0.35 0"/><feBlend in2="BackgroundImageFix" result="effect1_dropShadow"/><feBlend in="SourceGraphic" in2="effect1_dropShadow" result="shape"/></filter></defs></svg>