<svg width="166" height="160" fill="none" xmlns="http://www.w3.org/2000/svg"><path d="M78.923 159.078c43.588 0 78.923-35.611 78.923-79.54C157.846 35.612 122.511 0 78.923 0S0 35.61 0 79.539c0 43.928 35.335 79.539 78.923 79.539z" fill="url(#paint0_linear)"/><path opacity=".25" d="M78.922 140.519c33.417 0 60.507-27.301 60.507-60.98 0-33.678-27.09-60.98-60.507-60.98-33.418 0-60.508 27.302-60.508 60.98 0 33.679 27.09 60.98 60.508 60.98z" fill="url(#paint1_linear)"/><path opacity=".35" d="M143.449 125.3l-25.929-9.142-82.88 29.228a63.652 63.652 0 002.673 1.739l32.254 11.379c3.072.361 6.187.573 9.355.573 26.676 0 50.247-13.352 64.527-33.777z" fill="#12102B"/><path d="M110.607 12.96l-.915-.403-81.417 28.718a2.515 2.515 0 00-1.673 2.376v65.487c0 .593.368 1.134.915 1.346v-.678l83.08-29.302V12.96h.01z" fill="url(#paint2_linear)"/><path d="M27.531 106.985V44.043c0-1.07.674-2.015 1.673-2.375l80.67-28.454a1.25 1.25 0 011.663 1.188v64.713a2.52 2.52 0 01-1.673 2.375l-79.008 27.87c-1.63.572-3.325-.637-3.325-2.376z" fill="#fff"/><path d="M83.535 126.976l-56.004-18.909v2.428l55.173 19.461a2.453 2.453 0 001.652 0l80.649-28.507v-3.266l-81.47 28.793z" fill="url(#paint3_linear)"/><path d="M29.18 106.391V45.539c0-1.071.673-2.015 1.673-2.376L108.24 15.92a1.25 1.25 0 011.662 1.187V79.72a2.527 2.527 0 01-1.673 2.376l-75.724 26.661c-1.62.573-3.325-.636-3.325-2.365v-.001z" fill="url(#paint4_linear)"/><path d="M27.531 108.067l84.006-29.631 52.636 18.57c1.116.392 1.116 1.983 0 2.375l-79.817 28.157a2.453 2.453 0 01-1.652 0L27.53 108.067h.001z" fill="url(#paint5_linear)"/><path d="M132.151 111.938l-16.553 5.843a.885.885 0 01-.801-.115.881.881 0 01-.367-.722l18.31-6.459v.615a.894.894 0 01-.589.838z" fill="#B0BDD6"/><path d="M37.895 47.002v45.94l63.296-22.28V24.72L37.894 47.002h.001z" fill="url(#paint6_linear)"/><path d="M37.895 100.717v3.5l63.296-22.282v-3.5l-63.297 22.282h.001z" fill="#D8BDF8"/><path d="M63.285 43.195v2.662l33.548-11.634v-2.662L63.285 43.195zm0 15.663v1.57l33.548-11.644v-1.56L63.285 58.859v-.001zm0 3.479v1.56l33.548-11.634v-1.57L63.285 62.338v-.001zm0 3.468v1.57l33.548-11.644v-1.56L63.285 65.806v-.001zm0 3.478v1.56l33.548-11.635v-1.57L63.285 69.284v-.001zm0 3.467v1.57l33.548-11.644v-1.56L63.285 72.752v-.002zm0 3.47v1.57l33.548-11.635v-1.57L63.285 76.22zm0-28.189v2.662l33.548-11.634v-2.662L63.285 48.031z" fill="#C0A2E3"/><path d="M63.506 40.416l2.473 20.426 18.92.085c1.369 11.273-5.998 20.383-16.447 20.33-10.46-.043-20.036-9.216-21.404-20.5-1.357-11.284 5.998-20.394 16.458-20.34v-.001z" fill="url(#paint7_linear)"/><path d="M77.418 78.67l-6.135 3.997c-2.536 1.655-5.588 2.599-8.965 2.588-10.46-.042-20.036-9.216-21.404-20.5-.926-7.636 2.146-14.274 7.481-17.753l6.136-3.998c-5.336 3.478-8.408 10.117-7.482 17.753 1.368 11.273 10.944 20.458 21.404 20.5 3.377.01 6.43-.933 8.965-2.588z" fill="url(#paint8_linear)"/><path d="M74.66 29.344c10.45.043 20.036 9.227 21.404 20.5l-18.93-.085-2.474-20.415z" fill="url(#paint9_linear)"/><path d="M96.063 49.844l-6.135 3.998-18.92-.074 6.124-4.01 18.931.086z" fill="url(#paint10_linear)"/><path d="M77.132 49.76l-6.124 4.008-2.473-20.426 6.125-3.998 2.472 20.415v.001z" fill="url(#paint11_linear)"/><path d="M125.382 52.114a6.079 6.079 0 00-.095-.615 8.183 8.183 0 00-.484-1.463 9.803 9.803 0 00-.768-1.41 12.383 12.383 0 00-1.273-1.655c-1.274-1.41-2.884-2.63-4.599-3.373-.042-.02-.084-.031-.126-.053a9.23 9.23 0 00-1.631-.51 6.824 6.824 0 00-1.337-.137 4.15 4.15 0 00-1.241.202c-.506.17-.916.435-1.242.795l-7.461 8.463c.316-.36.737-.636 1.242-.795a4.13 4.13 0 011.241-.202c.421-.01.863.043 1.337.138a9.2 9.2 0 011.631.51c.042.02.084.031.126.052 1.715.743 3.336 1.962 4.599 3.373.473.53.905 1.081 1.273 1.654.295.467.558.933.768 1.41.221.488.379.987.484 1.464.042.212.074.414.106.615.115 1.114-.137 1.994-.684 2.609l7.46-8.463c.527-.615.79-1.506.674-2.61z" fill="#3C0085"/><path d="M117.405 37.606c7.556 3.15 14.217 10.934 14.901 17.403.673 6.459-4.893 9.142-12.449 5.992-7.545-3.15-14.217-10.934-14.89-17.392-.684-6.47 4.893-9.153 12.438-6.003zm1.831 17.467c3.725 1.559 6.472.233 6.135-2.96-.337-3.191-3.62-7.03-7.345-8.58-3.725-1.547-6.472-.232-6.135 2.96.337 3.18 3.62 7.02 7.345 8.58z" fill="url(#paint12_linear)"/><path d="M128.4 61.913a8.18 8.18 0 01-2.525.403 12.468 12.468 0 01-2.715-.276 18.053 18.053 0 01-3.304-1.04c-.085-.031-.169-.074-.264-.105-3.472-1.506-6.745-3.977-9.323-6.84a26.414 26.414 0 01-2.578-3.362 21.197 21.197 0 01-1.558-2.864 15.383 15.383 0 01-.989-2.97c-.091-.413-.158-.83-.2-1.25-.231-2.25.284-4.041 1.389-5.293l-7.46 8.463c-1.095 1.252-1.621 3.044-1.39 5.292.042.414.116.827.2 1.252.21.975.548 1.972.99 2.97.42.953.947 1.919 1.557 2.863a26.159 26.159 0 002.578 3.36c2.568 2.865 5.851 5.336 9.324 6.84.084.044.168.076.263.108 1.157.477 2.262.827 3.304 1.039.958.2 1.873.286 2.715.276a8.18 8.18 0 002.525-.403c1.011-.34 1.863-.88 2.515-1.623l7.461-8.463c-.642.732-1.494 1.283-2.515 1.623z" fill="#3C0085"/><path d="M116.406 43.026a8.317 8.317 0 011.621.509c1.073.445 2.104 1.092 3.041 1.845l3.651-3.065c-1.925-1.559-3.925-3.415-7.976-4.963l-.337 5.674z" fill="url(#paint13_linear)"/><path d="M115.655 52.77l5.419-7.401c-.021-.022-.042-.032-.063-.053-.179-.138-.368-.276-.547-.414-.053-.032-.105-.074-.158-.106-.169-.117-.341-.23-.516-.34-.073-.042-.136-.084-.21-.127-.158-.095-.316-.18-.474-.275-.084-.043-.178-.096-.263-.138-.153-.077-.308-.15-.463-.223l-.347-.16a13.864 13.864 0 00-.768-.285l-.221-.064c-.179-.053-.358-.095-.526-.138-.042-.01-.074-.01-.105-.021l-3.968 5.45c.684 1.624 1.642 2.98 3.21 4.296z" fill="url(#paint14_linear)"/><path d="M124.728 42.305l-3.662 3.065c2.326 1.866 4.073 4.464 4.304 6.744.137 1.263-.221 2.228-.926 2.832l.137.053 6.787 4.688c.779-1.199 1.126-2.768.927-4.677-.39-3.755-2.821-7.965-6.262-11.443l-1.305-1.262z" fill="url(#paint15_linear)"/><path d="M125.38 52.114a6.085 6.085 0 00-.095-.615c-.011-.02-.011-.053-.021-.074a6.132 6.132 0 00-.253-.838 6.839 6.839 0 00-.179-.456c-.042-.085-.084-.18-.126-.265a6.737 6.737 0 00-.2-.403l-.147-.276c-.074-.138-.158-.265-.232-.403l-.158-.255a15.46 15.46 0 00-.526-.753c-.021-.02-.031-.042-.052-.063a16.17 16.17 0 00-.558-.668c-.053-.064-.116-.128-.168-.19a11.164 11.164 0 00-.695-.71l-.01-.012a14.317 14.317 0 00-.842-.732c-.011-.01-.032-.02-.042-.032l-5.42 7.392c1.074.954 2.305 1.76 3.578 2.301 2.536 1.06 4.609.785 5.577-.498a.277.277 0 01.053-.064c.074-.106.147-.223.2-.34.01-.03.031-.063.042-.084.044-.102.086-.204.126-.308a2.92 2.92 0 00.127-.53c0-.02.01-.053.01-.074.021-.127.032-.265.032-.403v-.138c0-.16-.011-.329-.021-.51v.001z" fill="#741783"/><path d="M68.168 106.922l44.46-15.686 24.056 8.59c.589.213.589 1.051 0 1.252l-42.24 14.901c-.284.095-.59.095-.873 0l-25.403-9.057z" fill="url(#paint16_linear)"/><path opacity=".1" d="M111.344 102.956l9.481-.69 7.114-2.513-16.595-2.79v5.993z" fill="#8596B3"/><path d="M111.345 99.773l7.114-19.757-7.114-2.503-7.103 2.503 7.103 19.757z" fill="#ACBEFB"/><path d="M104.242 80.017v20.425l7.103 2.514V82.53l-7.103-2.513z" fill="#7989C1"/><path d="M118.457 80.017v20.425l-7.113 2.514V82.53l7.113-2.513z" fill="#292F44"/><path opacity=".1" d="M100.516 106.71l9.491-.7 7.103-2.503-16.594-8.272v11.475z" fill="#002766"/><path d="M100.517 103.528l7.114-11.2-7.114-2.513-7.103 2.514 7.103 11.199z" fill="#ACBEFB"/><path d="M93.414 92.33v11.866l7.103 2.513V94.831l-7.103-2.502z" fill="#7989C1"/><path d="M107.629 92.33v11.866l-7.113 2.513V94.831l7.113-2.502z" fill="#282F44"/><path opacity=".1" d="M89.856 110.517l9.48-.69 7.114-2.513-16.594-2.79v5.993z" fill="#002766"/><path d="M89.856 107.335l7.113-2.502-7.113-2.514-7.114 2.514 7.114 2.502z" fill="#ACBEFB"/><path d="M82.742 104.833v3.17l7.114 2.514v-3.182l-7.114-2.502z" fill="#7989C1"/><path d="M96.97 104.833v3.17l-7.114 2.514v-3.182l7.113-2.502h.001z" fill="#282F44"/><defs><linearGradient id="paint0_linear" x1="78.923" y1="159.078" x2="78.923" y2="0" gradientUnits="userSpaceOnUse"><stop stop-color="#90479B"/><stop offset="1" stop-color="#DB68A6"/></linearGradient><linearGradient id="paint1_linear" x1="78.922" y1="18.56" x2="78.922" y2="140.519" gradientUnits="userSpaceOnUse"><stop stop-color="#2D0C5B"/><stop offset="1" stop-color="#2D0C5B" stop-opacity="0"/></linearGradient><linearGradient id="paint2_linear" x1="26.609" y1="61.522" x2="110.61" y2="61.522" gradientUnits="userSpaceOnUse"><stop offset=".45" stop-color="#DFE6F7"/><stop offset=".55" stop-color="#CAD4E8"/></linearGradient><linearGradient id="paint3_linear" x1="27.53" y1="114.135" x2="165.005" y2="114.135" gradientUnits="userSpaceOnUse"><stop offset=".37" stop-color="#DFE6F7"/><stop offset=".424" stop-color="#CAD4E8"/></linearGradient><linearGradient id="paint4_linear" x1="69.541" y1="15.847" x2="69.541" y2="108.9" gradientUnits="userSpaceOnUse"><stop stop-color="#9471BE"/><stop offset="1" stop-color="#B797DD"/></linearGradient><linearGradient id="paint5_linear" x1="27.53" y1="103.05" x2="165.005" y2="103.05" gradientUnits="userSpaceOnUse"><stop stop-color="#fff"/><stop offset="1" stop-color="#EBEFF7"/></linearGradient><linearGradient id="paint6_linear" x1="69.543" y1="24.72" x2="84.188" y2="83.015" gradientUnits="userSpaceOnUse"><stop stop-color="#AF92D1"/><stop offset="1" stop-color="#AF92D1" stop-opacity=".25"/></linearGradient><linearGradient id="paint7_linear" x1="75.71" y1="79.689" x2="54.394" y2="43.054" gradientUnits="userSpaceOnUse"><stop stop-color="#FEBE8F"/><stop offset="1" stop-color="#F78D6D"/></linearGradient><linearGradient id="paint8_linear" x1="40.761" y1="64.124" x2="77.423" y2="64.124" gradientUnits="userSpaceOnUse"><stop stop-color="#A32B62"/><stop offset="1" stop-color="#F27E5F"/></linearGradient><linearGradient id="paint9_linear" x1="89.785" y1="53.499" x2="75.459" y2="28.878" gradientUnits="userSpaceOnUse"><stop stop-color="#FEBE8F"/><stop offset="1" stop-color="#F78D6D"/></linearGradient><linearGradient id="paint10_linear" x1="71.005" y1="51.805" x2="96.062" y2="51.805" gradientUnits="userSpaceOnUse"><stop stop-color="#A32B62"/><stop offset="1" stop-color="#F27E5F"/></linearGradient><linearGradient id="paint11_linear" x1="68.531" y1="41.554" x2="77.136" y2="41.554" gradientUnits="userSpaceOnUse"><stop stop-color="#A32B62"/><stop offset="1" stop-color="#F27E5F"/></linearGradient><linearGradient id="paint12_linear" x1="104.909" y1="49.3" x2="132.361" y2="49.3" gradientUnits="userSpaceOnUse"><stop stop-color="#4E34B0"/><stop offset="1" stop-color="#431DAB"/></linearGradient><linearGradient id="paint13_linear" x1="116.398" y1="41.359" x2="124.73" y2="41.359" gradientUnits="userSpaceOnUse"><stop stop-color="#FEBE8F"/><stop offset="1" stop-color="#F78D6D"/></linearGradient><linearGradient id="paint14_linear" x1="112.436" y1="47.897" x2="121.068" y2="47.897" gradientUnits="userSpaceOnUse"><stop stop-color="#A32B62"/><stop offset="1" stop-color="#F27E5F"/></linearGradient><linearGradient id="paint15_linear" x1="131.656" y1="59.518" x2="122.421" y2="43.646" gradientUnits="userSpaceOnUse"><stop stop-color="#90479B"/><stop offset="1" stop-color="#DB68A6"/></linearGradient><linearGradient id="paint16_linear" x1="75.48" y1="119.687" x2="130.264" y2="88.303" gradientUnits="userSpaceOnUse"><stop stop-color="#DFE6F7"/><stop offset="1" stop-color="#CED3EA"/></linearGradient></defs></svg>