<svg width="164" height="168" fill="none" xmlns="http://www.w3.org/2000/svg"><path d="M81.693 78.04l-74.12 25.94c-.04-.28-.07-.57-.12-.85 5.2 36.35 36.44 64.29 74.23 64.29 37.49 0 68.55-27.51 74.11-63.44l-74.1-25.94z" fill="url(#paint0_linear)"/><path d="M6.691 92.42c0-41.42 33.58-75 75-75-41.43 0-75 33.58-75 75z" fill="url(#paint1_linear)"/><path d="M6.84 97.01c-.02-.38-.05-.75-.07-1.13.02.38.05.76.07 1.13z" fill="url(#paint2_linear)"/><path d="M156.531 97.01c.02-.37.05-.74.06-1.12-.01.37-.03.74-.06 1.12z" fill="url(#paint3_linear)"/><path d="M7.14 100.6c-.05-.42-.08-.83-.12-1.25.03.42.07.83.12 1.25z" fill="url(#paint4_linear)"/><path d="M156.23 100.6l.12-1.24c-.03.41-.07.82-.12 1.24z" fill="url(#paint5_linear)"/><path d="M155.801 103.98c.04-.28.07-.56.11-.85-.04.29-.07.57-.11.85z" fill="url(#paint6_linear)"/><path d="M81.691 17.42c-41.42 0-75 33.58-75 75 0 3.93.31 7.79.89 11.56l74.11-25.94 74.11 25.94c.58-3.77.89-7.63.89-11.56 0-41.42-33.58-75-75-75z" fill="#BDE8FD"/><path d="M24.558 76.04l35.09-12.8-12.07-4.23-35.09 12.81 12.07 4.22z" fill="#C1E4FC"/><path d="M12.488 71.82v15.02l12.07 4.22V76.04l-12.07-4.22z" fill="#53C1F9"/><path d="M59.649 63.24v15.02l-35.09 12.8V76.04l35.09-12.8z" fill="#94D9F7"/><path d="M49.96 45.65l26.11-9.53-8.98-3.14-26.11 9.53 8.98 3.14z" fill="#E1F3FF"/><path d="M40.98 42.51v11.18l8.98 3.14V45.65l-8.98-3.14z" fill="#53C1F9"/><path d="M76.07 36.12V47.3l-26.11 9.53V45.65l26.11-9.53z" fill="#94D9F7"/><path d="M0 106.63v12.66L81.69 90.7l81.68 28.59v-12.66L81.69 78.04 0 106.63z" fill="#001A77"/><path fill-rule="evenodd" clip-rule="evenodd" d="M30.77 129.19l.016.004-.017.006 70.081 24.24a58.93 58.93 0 0019.25 3.23h17.13l13.46-14.12c-.147-1.878-1.159-1.682-2.583-1.406-.826.16-1.791.348-2.806.171l-.463-.106a4.236 4.236 0 01-.218-.069L70.19 115.4l-15.026 5.26-24.395-5.59v14.12h.001z" fill="url(#paint7_linear)"/><path d="M144.62 127.02l-74.43-25.74-39.42 13.8 70.08 24.24a58.934 58.934 0 0019.25 3.23h30.59l-.66-8.51a8.056 8.056 0 00-5.41-7.02zM56.56 95.73l30.87-10.87-16.8-5.78-30.88 10.87 16.81 5.78z" fill="#E1F3FF"/><path d="M39.75 89.95v25.67l16.81 5.77V95.73l-16.81-5.78z" fill="#001D9B"/><path d="M87.429 84.86v25.67l-30.87 10.86V95.73l30.87-10.87z" fill="#53C1F9"/><path d="M85.409 100.84l14.95-5.21-7.78-2.72-14.95 5.21 7.78 2.72z" fill="#E1F3FF"/><path d="M77.629 98.12v19.68l7.78 2.73v-19.69l-7.78-2.72z" fill="#001D9B"/><path d="M100.36 95.63v19.68l-14.95 5.22v-19.69l14.95-5.21z" fill="#53C1F9"/><path d="M100.359 105.42l-14.95 5.21-7.78-2.72" stroke="#231F20" stroke-miterlimit="10"/><path d="M69.25 106.49l14.95-5.22-7.77-2.72-14.95 5.22 7.77 2.72z" fill="#E1F3FF"/><path d="M61.48 103.77v19.68l7.77 2.72v-19.68l-7.77-2.72z" fill="#001D9B"/><path d="M84.2 101.27v19.69l-14.95 5.21v-19.68l14.95-5.22z" fill="#53C1F9"/><path d="M84.2 111.11l-14.95 5.22-7.77-2.72" stroke="#2B91D6" stroke-miterlimit="10"/><path d="M97.378 104.81l14.95-5.21-7.78-2.72-14.95 5.21 7.78 2.72z" fill="#E1F3FF"/><path d="M89.598 102.09v19.68l7.78 2.72v-19.68l-7.78-2.72z" fill="#001D9B"/><path d="M112.329 99.6v19.68l-14.95 5.21v-19.68l14.95-5.21z" fill="#53C1F9"/><path d="M112.328 109.39l-14.95 5.21-7.78-2.72" stroke="#231F20" stroke-miterlimit="10"/><path d="M81.221 110.46l14.95-5.22-7.78-2.72-14.95 5.21 7.78 2.73z" fill="#E1F3FF"/><path d="M73.441 107.73v19.69l7.78 2.72v-19.68l-7.78-2.73z" fill="#001D9B"/><path d="M96.173 105.24v19.68l-14.95 5.22v-19.68l14.95-5.22z" fill="#53C1F9"/><path d="M96.171 115.08l-14.95 5.22-7.78-2.73" stroke="#2B91D6" stroke-miterlimit="10"/><path d="M109.35 108.78l14.94-5.21-7.77-2.73-14.95 5.22 7.78 2.72z" fill="#E1F3FF"/><path d="M101.57 106.06v19.68l7.78 2.72v-19.68l-7.78-2.72z" fill="#001D9B"/><path d="M124.292 103.57v19.68l-14.94 5.21v-19.68l14.94-5.21z" fill="#53C1F9"/><path d="M124.29 113.35l-14.94 5.22-7.78-2.72" stroke="#2B91D6" stroke-miterlimit="10"/><path d="M58.888 87.71l18.19-6.4-9.9-3.4-18.19 6.4 9.9 3.4z" fill="#E1F3FF"/><path d="M48.988 84.31v5.6l9.9 3.4v-5.6l-9.9-3.4z" fill="#001D9B"/><path d="M77.077 81.31v5.6l-18.19 6.4v-5.6l18.19-6.4zM60.36 71.06h-4.54l-1 13.47c0 .63 1.47 1.15 3.27 1.15 1.81 0 3.27-.51 3.27-1.15l-1-13.47z" fill="#53C1F9"/><path d="M58.09 71.85c1.254 0 2.27-.354 2.27-.79 0-.436-1.016-.79-2.27-.79-1.253 0-2.27.354-2.27.79 0 .436 1.017.79 2.27.79z" fill="#001D9B"/><path d="M109.35 118.57l-7.78-2.72m-32.32.48l-7.77-2.72 7.77 2.72zm11.971 3.97l-7.78-2.73 7.78 2.73z" stroke="#061A60" stroke-miterlimit="10"/><path d="M93.19 114.42l14.95-5.21-7.78-2.72-14.95 5.21 7.78 2.72z" fill="#E1F3FF"/><path d="M85.41 111.7v19.68l7.78 2.73v-19.69l-7.78-2.72z" fill="#001D9B"/><path d="M108.141 109.21v19.68l-14.95 5.22v-19.69l14.95-5.21z" fill="#53C1F9"/><path d="M108.14 119.05l-14.95 5.21-7.78-2.72" stroke="#2B91D6" stroke-miterlimit="10"/><path d="M93.19 124.26l-7.78-2.72" stroke="#061A60" stroke-miterlimit="10"/><path opacity=".1" d="M113.102 136.69l9.9-.72 7.43-2.6-17.33-2.89v6.21z" fill="#002766"/><path d="M113.1 126.78l7.43-2.6-7.43-2.59-7.42 2.59 7.42 2.6z" fill="#E1F3FF"/><path d="M105.68 124.18v9.91l7.42 2.6v-9.91l-7.42-2.6z" fill="#001D9B"/><path d="M120.532 124.18v9.91l-7.43 2.6v-9.91l7.43-2.6z" fill="#53C1F9"/><path opacity=".1" d="M130.07 135.52l8.82-.64 6.61-2.31-15.43-2.58v5.53z" fill="#002766"/><path d="M130.071 126.7l6.61-2.31-6.61-2.32-6.61 2.32 6.61 2.31z" fill="#E1F3FF"/><path d="M123.461 124.39v8.82l6.61 2.31v-8.82l-6.61-2.31z" fill="#001D9B"/><path d="M136.68 124.39v8.82l-6.61 2.31v-8.82l6.61-2.31z" fill="#53C1F9"/><path d="M92 65.04v8.49c0 3.187 7.388 5.78 16.508 5.78 9.121 0 16.509-2.584 16.509-5.78v-8.49H92z" fill="#001D9B"/><path d="M108.508 70.82c9.118 0 16.509-2.588 16.509-5.78 0-3.193-7.391-5.782-16.509-5.782C99.391 59.258 92 61.847 92 65.04s7.391 5.78 16.508 5.78z" fill="#E1F3FF"/><path d="M108.209 68.245c-7.788 0-12.033-2.246-12.033-3.4 0-1.155 4.245-3.402 12.033-3.402 7.788 0 12.032 2.247 12.032 3.4 0 1.156-4.244 3.402-12.032 3.402z" fill="#53C1F9"/><path d="M96.176 64.844l4.467-50.422h15.14l4.458 50.422H96.176z" fill="url(#paint8_linear)"/><path d="M108.509 16.704c6.41 0 11.606-1.817 11.606-4.06 0-2.24-5.196-4.057-11.606-4.057s-11.607 1.817-11.607 4.059c0 2.24 5.197 4.058 11.607 4.058z" fill="#001A77"/><path d="M99.644 5.95v4.555c0 1.714 3.97 3.1 8.863 3.1 4.893 0 8.863-1.386 8.863-3.1V5.95H99.644z" fill="#E1F3FF"/><path d="M108.507 9.05c4.895 0 8.863-1.389 8.863-3.1 0-1.71-3.968-3.099-8.863-3.099s-8.863 1.387-8.863 3.1c0 1.71 3.968 3.098 8.863 3.098z" fill="#E1F3FF"/><path d="M108.508 9.981c7.876 0 14.262-2.234 14.262-4.99 0-2.757-6.386-4.991-14.262-4.991-7.877 0-14.262 2.234-14.262 4.99 0 2.757 6.385 4.991 14.262 4.991z" fill="#001A77"/><path opacity=".35" d="M97.347 51.595l-.55 6.234c1.536 1.696 6.065 2.921 11.411 2.921 5.346 0 9.875-1.225 11.411-2.92l-.55-6.235c-1.901 1.438-6.039 2.433-10.861 2.433-4.822 0-8.951-.995-10.86-2.433h-.001zm1.038-11.73l-.506 5.7c1.456 1.51 5.523 2.593 10.328 2.593 4.804 0 8.862-1.084 10.327-2.593l-.506-5.7c-1.758 1.277-5.488 2.165-9.821 2.165-4.325 0-8.055-.888-9.822-2.166zm.942-10.622l-.48 5.39c1.564 1.27 5.16 2.158 9.36 2.158 4.192 0 7.797-.888 9.36-2.158l-.479-5.39c-1.75 1.083-5.071 1.82-8.881 1.82-3.809 0-7.13-.737-8.88-1.82zm17.299-6.127l-.373-4.227c-1.145 1.172-4.307 2.015-8.045 2.015-3.739 0-6.9-.843-8.046-2.015l-.373 4.227c.568 1.447 4.121 2.566 8.419 2.566s7.85-1.11 8.418-2.566z" fill="#E1F3FF"/><path opacity=".75" d="M55.05 71.06c3.22-2.12 2.92-9.77-1.84-10.35-4.76-.58-16.48 18.85-46.32 4.31l.51-2.32 12.55-22.68c14.34 9.52 19.36 3.25 33.71 7.56 14.35 4.31 10.39 19.23 5.7 23.47" fill="#fff"/><defs><linearGradient id="paint0_linear" x1="81.623" y1="78.04" x2="81.623" y2="167.42" gradientUnits="userSpaceOnUse"><stop stop-color="#39F2FE"/><stop offset="1" stop-color="#30A8F0"/></linearGradient><linearGradient id="paint1_linear" x1="44.191" y1="17.42" x2="44.191" y2="92.43" gradientUnits="userSpaceOnUse"><stop stop-color="#39F2FE"/><stop offset="1" stop-color="#30A8F0"/></linearGradient><linearGradient id="paint2_linear" x1="6.805" y1="95.88" x2="6.805" y2="97.01" gradientUnits="userSpaceOnUse"><stop stop-color="#39F2FE"/><stop offset="1" stop-color="#30A8F0"/></linearGradient><linearGradient id="paint3_linear" x1="156.561" y1="95.89" x2="156.561" y2="97.01" gradientUnits="userSpaceOnUse"><stop stop-color="#39F2FE"/><stop offset="1" stop-color="#30A8F0"/></linearGradient><linearGradient id="paint4_linear" x1="7.08" y1="99.35" x2="7.08" y2="100.6" gradientUnits="userSpaceOnUse"><stop stop-color="#39F2FE"/><stop offset="1" stop-color="#30A8F0"/></linearGradient><linearGradient id="paint5_linear" x1="156.29" y1="99.36" x2="156.29" y2="100.6" gradientUnits="userSpaceOnUse"><stop stop-color="#39F2FE"/><stop offset="1" stop-color="#30A8F0"/></linearGradient><linearGradient id="paint6_linear" x1="155.856" y1="103.13" x2="155.856" y2="103.98" gradientUnits="userSpaceOnUse"><stop stop-color="#39F2FE"/><stop offset="1" stop-color="#30A8F0"/></linearGradient><linearGradient id="paint7_linear" x1="31" y1="123" x2="145.5" y2="149" gradientUnits="userSpaceOnUse"><stop stop-color="#001D9B"/><stop offset="1" stop-color="#2D7FE0"/></linearGradient><linearGradient id="paint8_linear" x1="108.209" y1="14.422" x2="108.209" y2="64.844" gradientUnits="userSpaceOnUse"><stop stop-color="#53DBF9"/><stop offset="1" stop-color="#53C1F9"/></linearGradient></defs></svg>