<svg width="150" height="166" fill="none" xmlns="http://www.w3.org/2000/svg"><path d="M75 165.21c41.421 0 75-33.578 75-75 0-41.421-33.579-75-75-75s-75 33.58-75 75c0 41.422 33.579 75 75 75z" fill="url(#paint0_linear)"/><path opacity=".5" d="M11.602 109.99l63.57 55.21c37.42-.09 68.4-27.57 73.94-63.47l-10.11-4.03-127.4 12.29z" fill="#331E77"/><path d="M11.602 105.6v4.39l53.69 31v-4.4l-53.69-30.99z" fill="#F8F8F8"/><path d="M139.003 93.31v4.39l-73.71 43.29v-4.4l73.71-43.28z" fill="#D8DAE8"/><path d="M11.602 105.6l73.72-43.29 53.68 31-73.71 43.28-53.69-30.99z" fill="#E8EAEF"/><path d="M14.922 101.38l70.76-41.55 50 28.87-70.76 41.55-50-28.87z" fill="#E8EAEF"/><path d="M14.922 101.38v4.2l50 28.87v-4.2l-50-28.87z" fill="#F8F8F8"/><path d="M64.922 130.02v4.2l70.76-41.55v-4.2l-70.76 41.55z" fill="#D8DAE8"/><path d="M18.852 97.16l67.15-39.43 45.76 26.41-67.16 39.44-45.75-26.42z" fill="#EFF1F4"/><path d="M64.602 123.58v4.32l67.16-39.43v-4.33l-67.16 39.44z" fill="#D8DAE8"/><path d="M18.852 97.16v4.33l45.75 26.41v-4.32l-45.75-26.42z" fill="#F8F8F8"/><path d="M33.18 68.26l52.85-31.03 31.39 18.12-52.85 31.03-31.39-18.12z" fill="#fff"/><path d="M64.57 82.06v33.17l52.85-31.03V51.03L64.57 82.06z" fill="url(#paint1_linear)"/><path d="M87.922 84.08v17.53l10.26-6.11V77.97l-10.26 6.11z" fill="#C7CBDD"/><path d="M33.18 68.26v28.85l31.39 18.12V86.38L33.18 68.26z" fill="url(#paint2_linear)"/><path d="M64.02 78.66c-1.47-.85-3.86-.84-5.33.01-1.48.85-1.49 2.23-.02 3.08 1.47.85 3.86.84 5.33-.01 1.48-.85 1.49-2.23.02-3.08z" fill="#1C2958"/><path d="M61.883 114.69V81.37l-4.84.01v33.32c0 .36.23.72.7.99.94.55 2.48.54 3.42-.01.48-.27.72-.63.72-.99z" fill="url(#paint3_linear)"/><path d="M72.32 114.69V81.37l-4.84.01v33.32c0 .36.23.72.7.99.94.55 2.48.54 3.42-.01.49-.27.72-.63.72-.99z" fill="url(#paint4_linear)"/><path d="M53.723 109.94V76.62l-4.84.01v33.32c0 .36.23.72.7.99.94.55 2.48.54 3.42-.01.48-.27.71-.63.72-.99z" fill="url(#paint5_linear)"/><path d="M81.633 109.94V76.62l-4.84.01v33.32c0 .36.23.72.7.99.94.55 2.48.54 3.42-.01.48-.27.72-.63.72-.99z" fill="url(#paint6_linear)"/><path d="M109.543 92.96V59.65l-4.84.01v33.32c0 .36.23.72.7.99.94.55 2.48.54 3.42-.01.48-.28.72-.64.72-1z" fill="url(#paint7_linear)"/><path d="M118.852 88.22V54.9l-4.84.01v33.32c0 .36.23.72.7.99.94.55 2.48.54 3.42-.01.48-.28.72-.63.72-.99z" fill="url(#paint8_linear)"/><path d="M45.55 105.19V71.88l-4.84.01v33.32c0 .36.23.72.7.99.94.55 2.48.54 3.42-.01.48-.28.72-.64.72-1z" fill="url(#paint9_linear)"/><path d="M37.383 100.451v-33.32l-4.84.01v33.32c0 .36.23.72.7.99.94.55 2.48.54 3.42-.01.48-.28.72-.64.72-.99z" fill="url(#paint10_linear)"/><path d="M28.063 69.58l57.27-33.63 37.29 21.53-57.26 33.63-37.3-21.53z" fill="#fff"/><path d="M65.363 91.11v4.03l57.26-33.63v-4.03l-57.26 33.63zm-37.3-21.53v4.03l37.3 21.53v-4.03l-37.3-21.53z" fill="#EAECF4"/><path d="M46.132 55.59c0 .32 19.89 36.78 19.89 36.78l-40.42-23.42 20.53-13.36z" fill="#F8F8F8"/><path d="M46.133 55.59l60.26-35.82 19.88 36.78-60.26 35.82-19.88-36.78z" fill="url(#paint11_linear)"/><path d="M33.773 68.74l10.75-6.99c1.86 3.52 5.09 9.47 10.43 19.26l-21.18-12.27z" fill="#DDDEEA"/><path opacity=".25" d="M98.182 95.49l-10.26-5.92v-5.49l10.26-6.11v17.52z" fill="#A7AEC6"/><path d="M61.482 54.8l-6.66 5.53c5.58-4.67 7.83-13.02 5.1-22.44-4.11-14.18-17.82-25.43-30.66-25.08-4.32.13-7.96 1.51-10.77 3.85l6.66-5.53c2.81-2.34 6.49-3.72 10.77-3.85 12.84-.35 26.59 10.9 30.66 25.08 2.68 9.42.48 17.81-5.1 22.44z" fill="#845F0A"/><path d="M61.482 54.8l-6.66 5.53c5.58-4.67 7.83-13.02 5.1-22.44-4.11-14.18-17.82-25.43-30.66-25.08-4.32.13-7.96 1.51-10.77 3.85l6.66-5.53c2.81-2.34 6.49-3.72 10.77-3.85 12.84-.35 26.59 10.9 30.66 25.08 2.68 9.42.48 17.81-5.1 22.44z" fill="#845F0A"/><path d="M35.88 7.27c12.84-.35 26.59 10.9 30.66 25.08 4.11 14.18-3.03 25.99-15.87 26.29-12.84.35-26.59-10.9-30.66-25.08-4.06-14.18 3.03-25.98 15.87-26.29z" fill="#FF9D45"/><path d="M61.48 54.8l-6.66 5.53c-2.81 2.34-6.49 3.72-10.77 3.85-12.84.35-26.59-10.9-30.65-25.08-2.72-9.43-.48-17.82 5.1-22.44l6.66-5.53c-5.58 4.63-7.78 13.02-5.1 22.44C24.17 47.75 37.88 59 50.72 58.65c4.27-.09 7.95-1.52 10.76-3.85z" fill="#858585"/><path d="M66.58 60.94l-6.66 5.53c-3.59 2.98-8.3 4.8-13.79 4.93-16.47.43-34.07-13.97-39.31-32.17-3.5-12.11-.65-22.83 6.53-28.8l6.66-5.53c-7.13 5.97-9.99 16.69-6.53 28.8 5.23 18.2 22.83 32.6 39.31 32.17 5.49-.13 10.2-1.91 13.79-4.93z" fill="#FF9D45"/><path d="M33.809.01c16.48-.43 34.07 13.97 39.31 32.13 5.23 18.2-3.85 33.3-20.32 33.73-16.49.43-34.08-13.97-39.32-32.18C8.249 15.53 17.329.44 33.809.01zm16.9 58.64c12.84-.35 19.93-12.11 15.87-26.29-4.1-14.19-17.81-25.43-30.65-25.09-12.85.35-19.94 12.11-15.87 26.29 4.06 14.19 17.81 25.43 30.65 25.09z" fill="url(#paint12_linear)"/><path d="M122.951 32.51l3.98 1.26c-.09.07-.22.12-.31.19l-3.98-1.26c.09-.06.19-.11.31-.19z" fill="#CA9210"/><path d="M122.642 32.71l3.98 1.26c-1.45.93-2.79 2.26-3.9 3.86l-3.98-1.26c1.1-1.6 2.42-2.92 3.9-3.86z" fill="#CF9610"/><path d="M118.71 36.58l3.98 1.26c-.29.4-.56.82-.8 1.25l-3.98-1.26c.24-.43.52-.85.8-1.25z" fill="#CA9210"/><path d="M117.92 37.84l3.98 1.26c-.19.33-.4.69-.58 1.04l-3.98-1.26c.18-.36.39-.69.58-1.04z" fill="#C58F10"/><path d="M117.342 38.9l3.98 1.26c-.17.32-.31.62-.44.95l-3.98-1.26c.13-.33.29-.67.44-.95z" fill="#C08B0F"/><path d="M116.892 39.83l3.98 1.26c-.12.29-.26.6-.38.89l-3.98-1.26c.15-.31.26-.6.38-.89z" fill="#BB870F"/><path d="M116.542 40.71l3.98 1.26c-.12.29-.21.58-.3.86l-3.98-1.26c.07-.28.18-.57.3-.86z" fill="#B6840E"/><path d="M116.223 41.58l3.98 1.26c-.09.28-.18.56-.27.85l-3.98-1.26c.07-.32.16-.6.27-.85z" fill="#B1800E"/><path d="M115.931 42.4l3.98 1.26c-.09.28-.16.55-.22.82l-3.98-1.26c.07-.27.16-.55.22-.82z" fill="#AC7C0E"/><path d="M115.713 43.22l3.98 1.26c-.07.27-.13.54-.19.84l-3.98-1.26c.07-.27.14-.54.19-.84z" fill="#A7790D"/><path d="M115.521 44.06l3.98 1.26c-.07.27-.12.57-.15.85l-3.98-1.26c.03-.28.1-.55.15-.85z" fill="#A2750D"/><path d="M115.351 44.93l3.98 1.26c-.05.3-.08.58-.14.88l-3.98-1.26c.06-.3.11-.6.14-.88z" fill="#9D710C"/><path d="M115.242 45.79l3.98 1.26c-.04.32-.07.61-.09.92l-3.98-1.26c.02-.31.03-.62.09-.92z" fill="#986E0C"/><path d="M115.15 46.71l3.98 1.26c-.03.35-.05.66-.06 1l-3.98-1.26c.01-.34.01-.67.06-1z" fill="#936A0C"/><path d="M115.082 47.68l3.98 1.26c-.02.37-.02.74 0 1.12l-3.98-1.26c-.01-.35-.01-.72 0-1.12z" fill="#8E660B"/><path d="M115.082 48.81l3.98 1.26c.02.39.04.8.09 1.21 0 .06.02.11.01.18l-3.98-1.26c0-.06-.02-.11-.01-.18-.05-.41-.07-.8-.09-1.21z" fill="#89630B"/><path d="M115.191 50.19l3.98 1.26c.48 4.01 2.43 6.7 4.97 7.52l-3.98-1.26c-2.55-.82-4.47-3.52-4.97-7.52z" fill="#845F0A"/><path d="M115.191 50.19l3.98 1.26c.48 4.01 2.43 6.7 4.97 7.52l-3.98-1.26c-2.55-.82-4.47-3.52-4.97-7.52z" fill="#845F0A"/><path d="M115.191 50.19l3.98 1.26c.48 4.01 2.43 6.7 4.97 7.52l-3.98-1.26c-2.55-.82-4.47-3.52-4.97-7.52z" fill="#845F0A"/><path d="M128.413 31.65l3.98 1.26c-.1-.02-.17-.05-.28-.09l-3.98-1.26c.11.04.18.07.28.09z" fill="#A2750D"/><path d="M128.143 31.58l3.98 1.26c-.17-.05-.37-.08-.53-.11l-3.98-1.26c.16.03.35.07.53.11z" fill="#A7790D"/><path d="M127.613 31.48l3.979 1.26c-.19-.01-.36-.06-.55-.07l-3.98-1.26c.19.01.351.03.551.07z" fill="#AC7C0E"/><path d="M127.064 31.41l3.98 1.26c-.19-.01-.37-.02-.58 0l-3.98-1.26c.18-.01.39-.01.58 0z" fill="#B1800E"/><path d="M126.485 31.41l3.98 1.26c-.21 0-.39.02-.59.04l-3.98-1.26c.21-.02.38-.04.59-.04z" fill="#B6840E"/><path d="M125.894 31.46l3.98 1.26c-.2.03-.43.06-.64.13l-3.98-1.26c.22-.07.42-.1.64-.13z" fill="#BB870F"/><path d="M125.255 31.58l3.98 1.26c-.23.04-.47.11-.7.21l-3.98-1.26c.23-.1.45-.16.7-.21z" fill="#C08B0F"/><path d="M124.545 31.77l3.98 1.26c-.27.08-.55.21-.83.33l-3.98-1.26c.28-.13.55-.21.83-.33z" fill="#C58F10"/><path d="M123.723 32.12l3.98 1.26c-.26.11-.53.26-.77.39l-3.98-1.26c.24-.13.51-.28.77-.39z" fill="#CA9210"/><path d="M115.191 50.19l3.98 1.26c.48 4.01 2.43 6.7 4.97 7.52l-3.98-1.26c-2.55-.82-4.47-3.52-4.97-7.52z" fill="#845F0A"/><path d="M125.641 56.84l3.98 1.26c-.27.15-.52.28-.77.39l-3.98-1.26c.26-.11.5-.25.77-.39z" fill="#CCC"/><path d="M124.873 57.23l3.98 1.26c-.28.12-.54.23-.83.33l-3.98-1.26c.27-.09.56-.18.83-.33z" fill="#C7C7C7"/><path d="M124.052 57.58l3.98 1.26c-.24.07-.48.15-.7.21l-3.98-1.26c.22-.06.46-.13.7-.21z" fill="#C2C2C2"/><path d="M123.343 57.77l3.98 1.26c-.22.06-.42.09-.64.13l-3.98-1.26c.22-.04.42-.07.64-.13z" fill="#BDBDBD"/><path d="M122.692 57.89l3.98 1.26c-.2.03-.4.05-.59.04l-3.98-1.26c.19.02.39-.01.59-.04z" fill="#B8B8B8"/><path d="M122.103 57.94l3.98 1.26c-.18.01-.39.02-.58 0l-3.98-1.26c.2.01.38.02.58 0z" fill="#B3B3B3"/><path d="M121.53 57.94l3.98 1.26a2.507 2.507 0 01-.55-.07l-3.98-1.26c.18.05.36.06.55.07z" fill="#ADADAD"/><path d="M120.991 57.9l3.98 1.26c-.2-.04-.36-.06-.53-.11l-3.98-1.26c.16.02.34.07.53.11z" fill="#A8A8A8"/><path d="M120.452 57.77l3.98 1.26c-.1-.02-.17-.05-.28-.09l-3.98-1.26c.08.05.18.07.28.09z" fill="#A3A3A3"/><path d="M122.97 62.63L119 61.37c2.11.67 4.53.36 7-1.1l3.98 1.26c-2.49 1.44-4.91 1.75-7.01 1.1z" fill="#FF9D45"/><path d="M122.97 62.63L119 61.37c2.11.67 4.53.36 7-1.1l3.98 1.26c-2.49 1.44-4.91 1.75-7.01 1.1z" fill="#FF9D45"/><path d="M126.021 60.26l3.98 1.26c-.34.21-.66.37-.99.52l-3.98-1.26c.33-.15.65-.32.99-.52z" fill="#FF9D45"/><path d="M125.032 60.78l3.98 1.26c-.36.15-.69.3-1.04.42l-3.98-1.26c.35-.12.68-.27 1.04-.42zm-1.061.42l3.98 1.26c-.32.11-.61.2-.92.27l-3.98-1.26c.33-.07.62-.17.92-.27z" fill="#FF9D45"/><path d="M123.082 61.47l3.98 1.26c-.27.064-.544.11-.82.14l-3.98-1.26c.26-.03.54-.09.82-.14z" fill="#FF9D45"/><path d="M122.262 61.61l3.98 1.26c-.25.05-.52.07-.77.06l-3.98-1.26c.25.01.51-.02.77-.06zm-.76.08l3.98 1.26c-.24.01-.49 0-.74-.02l-3.98-1.26c.23.03.48.04.74.02z" fill="#FF9D45"/><path d="M120.77 61.67l3.98 1.26c-.25-.01-.47-.04-.7-.06l-3.98-1.26c.22.02.45.05.7.06z" fill="#FF9D45"/><path d="M120.073 61.61l3.98 1.26c-.23-.05-.46-.08-.69-.13l-3.98-1.26c.22.02.43.09.69.13z" fill="#FF9D45"/><path d="M119.371 61.45l3.98 1.26c-.11-.04-.23-.05-.34-.09l-3.98-1.26c.1.04.21.09.34.09z" fill="#FF9D45"/><path d="M128.41 31.65l3.98 1.26c2.57.81 4.48 3.48 4.97 7.52l-3.98-1.26c-.49-4.01-2.41-6.71-4.97-7.52z" fill="#858585"/><path d="M133.379 39.17l3.98 1.26c0 .06.02.11.01.18.05.4.07.79.09 1.21l-3.98-1.26c-.02-.39-.04-.8-.09-1.21.01-.07.01-.13-.01-.18z" fill="#8A8A8A"/><path d="M133.492 40.55l3.98 1.26c0 .36.02.75 0 1.12l-3.98-1.26c.03-.4.03-.77 0-1.12z" fill="#8F8F8F"/><path d="M133.509 41.66l3.98 1.26c-.01.34-.02.65-.06 1l-3.98-1.26c.03-.35.04-.68.06-1z" fill="#949494"/><path d="M133.442 42.64l3.98 1.26c-.02.31-.07.61-.09.92l-3.98-1.26c.06-.3.07-.61.09-.92z" fill="#999"/><path d="M133.351 43.56l3.98 1.26c-.03.29-.08.58-.14.88l-3.98-1.26c.06-.3.11-.6.14-.88z" fill="#9E9E9E"/><path d="M133.213 44.44l3.98 1.26c-.05.3-.091.56-.151.85l-3.98-1.26c.06-.3.121-.57.151-.85z" fill="#A3A3A3"/><path d="M133.061 45.29l3.98 1.26c-.07.27-.12.57-.19.84l-3.98-1.26c.06-.3.13-.57.19-.84z" fill="#A8A8A8"/><path d="M132.88 46.13l3.98 1.26c-.07.27-.16.55-.22.82l-3.98-1.26c.06-.27.13-.54.22-.82z" fill="#ADADAD"/><path d="M132.629 46.96l3.98 1.26c-.09.28-.18.56-.27.85l-3.98-1.26c.11-.29.21-.57.27-.85z" fill="#B3B3B3"/><path d="M132.382 47.8l3.98 1.26c-.09.28-.21.58-.3.86l-3.98-1.26c.08-.31.19-.57.3-.86z" fill="#B8B8B8"/><path d="M132.052 48.64l3.98 1.26c-.12.29-.23.59-.38.89l-3.98-1.26c.14-.3.26-.59.38-.89z" fill="#BDBDBD"/><path d="M131.67 49.53l3.98 1.26-.44.95-3.98-1.26c.17-.31.3-.64.44-.95z" fill="#C2C2C2"/><path d="M131.232 50.48l3.98 1.26c-.18.35-.37.7-.58 1.04l-3.98-1.26c.21-.33.4-.68.58-1.04z" fill="#C7C7C7"/><path d="M130.671 51.51l3.98 1.26c-.26.45-.51.86-.8 1.25l-3.98-1.26c.26-.38.54-.8.8-1.25z" fill="#CCC"/><path d="M129.849 52.78l3.98 1.26c-1.1 1.6-2.44 2.93-3.9 3.86l-3.98-1.26c1.46-.93 2.79-2.26 3.9-3.86z" fill="#D1D1D1"/><path d="M125.951 56.64l3.98 1.26c-.09.07-.22.12-.31.19l-3.98-1.26c.09-.06.22-.12.31-.19z" fill="#CCC"/><path d="M129.571 27.99l3.98 1.26c3.34 1.05 5.83 4.57 6.4 9.85.97 8.6-3.49 18.64-9.94 22.42l-3.98-1.26c6.45-3.78 10.91-13.81 9.94-22.42-.58-5.28-3.06-8.8-6.4-9.85z" fill="#DB9812"/><path d="M129.571 27.99l3.98 1.26c3.34 1.05 5.83 4.57 6.4 9.85.97 8.6-3.49 18.64-9.94 22.42l-3.98-1.26c6.45-3.78 10.91-13.81 9.94-22.42-.58-5.28-3.06-8.8-6.4-9.85z" fill="#FF9D45"/><path d="M129.57 27.99l3.98 1.26c3.28 1.05 5.76 4.48 6.39 9.61l-3.98-1.26c-.64-5.13-3.12-8.56-6.39-9.61zm6.379 9.62l3.98 1.26c.01.09 0 .15.04.23.07.52.1 1.02.11 1.53l-3.98-1.26c-.01-.51-.05-1.04-.11-1.53-.02-.06-.03-.15-.04-.23zm.129 1.76l3.98 1.26c.02.48.01.94.01 1.43l-3.98-1.26c.01-.46.01-.95-.01-1.43zm.002 1.43l3.98 1.26c0 .42-.04.84-.06 1.27l-3.98-1.26c.04-.41.06-.85.06-1.27z" fill="#FF9D45"/><path d="M136.021 42.07l3.98 1.26c-.05.38-.06.78-.13 1.18l-3.98-1.26c.08-.39.12-.78.13-1.18z" fill="#FF9D45"/><path d="M135.922 43.24l3.98 1.26c-.05.38-.11.74-.16 1.1l-3.98-1.26c.05-.36.11-.72.16-1.1zm-.183 1.14l3.98 1.26c-.06.36-.14.73-.2 1.09l-3.98-1.26c.08-.37.14-.73.2-1.09z" fill="#FF9D45"/><path d="M135.541 45.47l3.98 1.26c-.08.37-.15.7-.24 1.07l-3.98-1.26c.09-.37.15-.73.24-1.07zm-.272 1.06l3.98 1.26c-.09.34-.18.71-.3 1.07l-3.98-1.26c.12-.36.21-.7.3-1.07z" fill="#FF9D45"/><path d="M134.989 47.59l3.98 1.26c-.12.36-.23.74-.36 1.07l-3.98-1.26c.14-.34.26-.69.36-1.07zm-.349 1.09l3.98 1.26c-.12.36-.27.72-.41 1.09l-3.98-1.26c.15-.37.29-.74.41-1.09zm-.41 1.09l3.98 1.26c-.15.37-.31.77-.48 1.15l-3.98-1.26c.17-.41.34-.79.48-1.15z" fill="#FF9D45"/><path d="M133.769 50.88l3.98 1.26c-.19.41-.38.8-.57 1.22l-3.98-1.26c.2-.39.38-.81.57-1.22z" fill="#FF9D45"/><path d="M133.199 52.1l3.98 1.26c-.23.46-.46.9-.73 1.35l-3.98-1.26c.24-.44.5-.89.73-1.35z" fill="#FF9D45"/><path d="M132.471 53.44l3.98 1.26c-.33.57-.68 1.11-1.03 1.63l-3.98-1.26c.35-.54.7-1.06 1.03-1.63z" fill="#FF9D45"/><path d="M131.432 55.04l3.98 1.26c-1.43 2.04-3.12 3.77-5.01 4.95l-3.98-1.26c1.87-1.16 3.57-2.87 5.01-4.95zm-5.002 4.98l3.94 1.25c-.12.08-.26.17-.39.23L126 60.24c.16-.07.28-.15.43-.22z" fill="#FF9D45"/><path d="M126.021 60.26c-6.45 3.78-12.45-.14-13.42-8.74-.97-8.6 3.49-18.64 9.94-22.42 6.45-3.78 12.45.14 13.42 8.74.97 8.6-3.49 18.64-9.94 22.42zm-3.07-27.75c-5.02 2.95-8.52 10.77-7.75 17.49.74 6.73 5.43 9.78 10.47 6.82 5.02-2.95 8.52-10.77 7.75-17.49-.77-6.72-5.44-9.74-10.47-6.82z" fill="url(#paint13_linear)"/><path d="M125.64 56.84c-5.02 2.95-9.71-.11-10.47-6.82-.74-6.73 2.73-14.54 7.75-17.49 5.02-2.95 9.71.11 10.47 6.82.77 6.71-2.7 14.53-7.75 17.49z" fill="#FF9D45"/><g filter="url(#filter0_d)"><path d="M121 116H28a6 6 0 00-6 6v18a6 6 0 006 6h93a6 6 0 006-6v-18a6 6 0 00-6-6z" fill="url(#paint14_linear)"/></g><path d="M32.414 135.685a.29.29 0 00.289.289h1.685c.152 0 .273-.137.273-.289v-9.747c0-.152-.121-.289-.273-.289h-1.397l-2.216 1.731a.43.43 0 00-.091.228v.956c0 .152.121.289.273.289h1.457v6.832zm8.716 0c0 .152.121.289.288.289h1.685c.152 0 .274-.137.274-.289v-9.747c0-.152-.122-.289-.274-.289h-1.396l-2.217 1.731a.43.43 0 00-.091.228v.956c0 .152.121.289.273.289h1.458v6.832zm8.715 0c0 .152.122.289.288.289h1.686c.152 0 .273-.137.273-.289v-9.747c0-.152-.121-.289-.273-.289h-1.397l-2.217 1.731a.43.43 0 00-.09.228v.956c0 .152.12.289.272.289h1.458v6.832zm11.297.441c2.475 0 3.887-1.989 3.887-5.314s-1.412-5.314-3.887-5.314c-2.474 0-3.886 1.989-3.886 5.314s1.412 5.314 3.886 5.314zm0-2.202c-.926 0-1.442-1.108-1.442-3.112 0-1.989.516-3.113 1.442-3.113.927 0 1.443 1.124 1.443 3.113 0 2.004-.516 3.112-1.443 3.112zm9.885 1.761c0 .152.121.289.288.289h1.686c.151 0 .273-.137.273-.289v-9.747c0-.152-.122-.289-.273-.289h-1.397l-2.217 1.731a.432.432 0 00-.091.228v.956c0 .152.121.289.273.289h1.458v6.832zm8.715 0c0 .152.121.289.288.289h1.686c.152 0 .273-.137.273-.289v-9.747c0-.152-.121-.289-.273-.289h-1.397l-2.217 1.731a.432.432 0 00-.09.228v.956c0 .152.12.289.272.289h1.458v6.832zm11.298.441c2.474 0 3.886-1.989 3.886-5.314s-1.412-5.314-3.886-5.314c-2.475 0-3.887 1.989-3.887 5.314s1.412 5.314 3.886 5.314h.001zm0-2.202c-.927 0-1.443-1.108-1.443-3.112 0-1.989.516-3.113 1.443-3.113.926 0 1.442 1.124 1.442 3.113 0 2.004-.516 3.112-1.442 3.112zm12.51 2.202c2.475 0 3.887-1.989 3.887-5.314s-1.412-5.314-3.887-5.314c-2.474 0-3.886 1.989-3.886 5.314s1.412 5.314 3.886 5.314zm0-2.202c-.926 0-1.442-1.108-1.442-3.112 0-1.989.516-3.113 1.442-3.113.927 0 1.443 1.124 1.443 3.113 0 2.004-.516 3.112-1.443 3.112zm9.885 1.761c0 .152.121.289.288.289h1.686c.151 0 .273-.137.273-.289v-9.747c0-.152-.122-.289-.273-.289h-1.397l-2.217 1.731a.435.435 0 00-.091.228v.956c0 .152.121.289.273.289h1.458v6.832z" fill="#fff"/><defs><linearGradient id="paint0_linear" x1="75" y1="165.206" x2="75" y2="15.206" gradientUnits="userSpaceOnUse"><stop stop-color="#1F5BB2"/><stop offset="1" stop-color="#001A77"/></linearGradient><linearGradient id="paint1_linear" x1="83.703" y1="70.498" x2="98.289" y2="95.762" gradientUnits="userSpaceOnUse"><stop stop-color="#CDD3E4"/><stop offset="1" stop-color="#EEEDF2"/></linearGradient><linearGradient id="paint2_linear" x1="48.873" y1="115.231" x2="48.873" y2="68.264" gradientUnits="userSpaceOnUse"><stop stop-color="#EEEDF2"/><stop offset="1" stop-color="#CDD3E4"/></linearGradient><linearGradient id="paint3_linear" x1="59.463" y1="116.094" x2="59.463" y2="81.371" gradientUnits="userSpaceOnUse"><stop stop-color="#fff"/><stop offset=".436" stop-color="#FBFBFD"/><stop offset=".88" stop-color="#EFF0F6"/><stop offset="1" stop-color="#EAECF4"/></linearGradient><linearGradient id="paint4_linear" x1="69.904" y1="116.094" x2="69.904" y2="81.371" gradientUnits="userSpaceOnUse"><stop stop-color="#fff"/><stop offset=".436" stop-color="#FBFBFD"/><stop offset=".88" stop-color="#EFF0F6"/><stop offset="1" stop-color="#EAECF4"/></linearGradient><linearGradient id="paint5_linear" x1="51.297" y1="111.346" x2="51.297" y2="76.624" gradientUnits="userSpaceOnUse"><stop stop-color="#fff"/><stop offset=".436" stop-color="#FBFBFD"/><stop offset=".88" stop-color="#EFF0F6"/><stop offset="1" stop-color="#EAECF4"/></linearGradient><linearGradient id="paint6_linear" x1="79.211" y1="111.346" x2="79.211" y2="76.624" gradientUnits="userSpaceOnUse"><stop stop-color="#fff"/><stop offset=".436" stop-color="#FBFBFD"/><stop offset=".88" stop-color="#EFF0F6"/><stop offset="1" stop-color="#EAECF4"/></linearGradient><linearGradient id="paint7_linear" x1="107.125" y1="94.369" x2="107.125" y2="59.647" gradientUnits="userSpaceOnUse"><stop stop-color="#fff"/><stop offset=".436" stop-color="#FBFBFD"/><stop offset=".88" stop-color="#EFF0F6"/><stop offset="1" stop-color="#EAECF4"/></linearGradient><linearGradient id="paint8_linear" x1="116.428" y1="89.622" x2="116.428" y2="54.899" gradientUnits="userSpaceOnUse"><stop stop-color="#fff"/><stop offset=".436" stop-color="#FBFBFD"/><stop offset=".88" stop-color="#EFF0F6"/><stop offset="1" stop-color="#EAECF4"/></linearGradient><linearGradient id="paint9_linear" x1="43.129" y1="106.599" x2="43.129" y2="71.876" gradientUnits="userSpaceOnUse"><stop stop-color="#fff"/><stop offset=".436" stop-color="#FBFBFD"/><stop offset=".88" stop-color="#EFF0F6"/><stop offset="1" stop-color="#EAECF4"/></linearGradient><linearGradient id="paint10_linear" x1="34.965" y1="101.852" x2="34.965" y2="67.129" gradientUnits="userSpaceOnUse"><stop stop-color="#fff"/><stop offset=".436" stop-color="#FBFBFD"/><stop offset=".88" stop-color="#EFF0F6"/><stop offset="1" stop-color="#EAECF4"/></linearGradient><linearGradient id="paint11_linear" x1="46.129" y1="56.069" x2="126.275" y2="56.069" gradientUnits="userSpaceOnUse"><stop stop-color="#EEEDF2"/><stop offset="1" stop-color="#C2CDCF"/></linearGradient><linearGradient id="paint12_linear" x1="12.002" y1="32.938" x2="74.592" y2="32.938" gradientUnits="userSpaceOnUse"><stop stop-color="#FFB24D"/><stop offset="1" stop-color="#FFDC7B"/></linearGradient><linearGradient id="paint13_linear" x1="114.882" y1="36.913" x2="133.676" y2="52.44" gradientUnits="userSpaceOnUse"><stop stop-color="#FFB24D"/><stop offset="1" stop-color="#FFDC7B"/></linearGradient><linearGradient id="paint14_linear" x1="74.5" y1="116" x2="74.5" y2="146" gradientUnits="userSpaceOnUse"><stop stop-color="#415C83"/><stop offset="1" stop-color="#131E45"/></linearGradient><filter id="filter0_d" x="12" y="110" width="125" height="50" filterUnits="userSpaceOnUse" color-interpolation-filters="sRGB"><feFlood flood-opacity="0" result="BackgroundImageFix"/><feColorMatrix in="SourceAlpha" values="0 0 0 0 0 0 0 0 0 0 0 0 0 0 0 0 0 0 127 0" result="hardAlpha"/><feOffset dy="4"/><feGaussianBlur stdDeviation="5"/><feColorMatrix values="0 0 0 0 0.101961 0 0 0 0 0.207843 0 0 0 0 0.0941176 0 0 0 0.15 0"/><feBlend in2="BackgroundImageFix" result="effect1_dropShadow"/><feBlend in="SourceGraphic" in2="effect1_dropShadow" result="shape"/></filter></defs></svg>