<svg width="176" height="151" fill="none" xmlns="http://www.w3.org/2000/svg"><path d="M87.882 150.5c41.478 0 75.103-33.579 75.103-75S129.36.5 87.882.5c-41.479 0-75.103 33.579-75.103 75s33.624 75 75.103 75z" fill="url(#paint0_linear)"/><path opacity=".25" d="M87.882 133c31.8 0 57.579-25.744 57.579-57.5S119.68 18 87.88 18c-31.8 0-57.578 25.744-57.578 57.5s25.78 57.5 57.58 57.5z" fill="#2D0C5B"/><path opacity=".25" d="M87.86 120.66l56.668-19.8L87.86 81.05l-56.658 19.81 56.658 19.8z" fill="#122749"/><path opacity=".25" d="M22.42 112.26a75.63 75.63 0 0011.206 15.08l48.066-16.92-26.887-9.4v-.15L22.42 112.26z" fill="#122749"/><path d="M87.859 53.39l38.673-13.51-38.673-13.52-38.663 13.52 38.663 13.51z" fill="#fff"/><path d="M49.196 39.88V98.9l38.663 13.51V53.39L49.196 39.88z" fill="#E2E5E8"/><path d="M126.53 39.88V98.9l-38.672 13.51V53.39l38.672-13.51z" fill="#C4CACE"/><path opacity=".25" d="M153.38 112.19l-32.174-11.33v.15l-26.898 9.4 47.876 16.86a75.208 75.208 0 0011.196-15.08z" fill="#122749"/><path d="M121.034 92.71V48.02l-27.097 9.47v44.7l27.097-9.48z" fill="#084259"/><path d="M54.985 92.71V48.02l27.097 9.47v44.7l-27.097-9.48z" fill="#331E77"/><path d="M82.082 77.5l-27.097 9.54v.16l26.887 9.4.21-.07V77.5z" fill="#fff"/><path d="M54.986 92.71v-.15L.692 111.68l27.107 9.47 54.074-19.04-26.887-9.4z" fill="#C4CACE"/><path d="M54.794 87.21v-.16L.5 106.17l27.117 9.48 54.074-19.04-26.897-9.4z" fill="#fff"/><path d="M.5 106.17v5.64l27.297 9.34v-5.5L.5 106.17z" fill="#7782E5"/><path d="M81.693 96.61v5.5L27.8 121.15v-5.5l53.893-19.04z" fill="#2C4A84"/><path d="M82.082 77.5v19.03l-.21.07-26.887-9.4V48.02l27.097 9.47V77.5z" fill="url(#paint1_linear)"/><path d="M121.014 92.71V48.02l-27.097 9.47v44.7l27.097-9.48z" fill="#331E77"/><path d="M93.917 77.5l27.097 9.54v.16l-26.897 9.4-.2-.07V77.5z" fill="#fff"/><path d="M121.013 92.71v-.15l54.295 19.12-27.107 9.47-54.084-19.04 26.896-9.4z" fill="#C4CACE"/><path d="M121.206 87.21v-.16l54.294 19.12-27.117 9.48-54.075-19.04 26.898-9.4z" fill="#fff"/><path d="M175.5 106.17v5.64l-27.297 9.34v-5.5l27.297-9.48z" fill="#7782E5"/><path d="M94.308 96.61v5.5l53.895 19.04v-5.5L94.308 96.61z" fill="#2C4A84"/><path d="M93.917 77.5v19.03l.2.07 26.897-9.4V48.02l-27.097 9.47V77.5z" fill="url(#paint2_linear)"/><path d="M142.143 97.5l18.075-10.2-4.756-7.23-13.319 17.43z" fill="#A04100"/><path d="M142.143 97.5l13.319-17.43-8.242-2.68-5.077 20.11z" fill="#FF8622"/><path d="M165.327 67.16l-18.075 10.2 4.757 7.23 13.318-17.43z" fill="#FFAF6E"/><path d="M165.327 67.16L152.01 84.59l8.231 2.68 5.086-20.11z" fill="#CE5D00"/><path d="M55.256 83.44l-9.002-22.47 21.86 17.33-12.858 5.14z" fill="#7AC6F4"/><path d="M55.255 83.44l-9.002-22.47-3.856 27.6 12.858-5.13z" fill="#2F7DD1"/><path d="M42.397 88.57s10.545-9.65 11.055-9.63c.511.02 14.66-.64 14.66-.64l-11.055 9.63-14.66.64z" fill="#214FAA"/><path d="M121.013 88.47c7.39 0 13.379-5.981 13.379-13.36 0-7.378-5.99-13.36-13.379-13.36-7.388 0-13.378 5.981-13.378 13.36 0 7.378 5.99 13.36 13.378 13.36z" fill="#A2EAF4"/><path d="M127.964 63.72a13.224 13.224 0 011.962 6.94c0 7.38-5.988 13.36-13.378 13.36-2.553 0-4.927-.73-6.95-1.96 2.354 3.84 6.58 6.42 11.416 6.42 7.39 0 13.379-5.98 13.379-13.36 0-4.84-2.584-9.06-6.43-11.4h.001z" fill="#89C4E8"/><path d="M115.612 69.856c1.664-1.538 2.37-3.479 1.577-4.334-.792-.855-2.784-.301-4.448 1.237-1.664 1.538-2.37 3.478-1.578 4.333.793.856 2.785.302 4.449-1.236z" fill="#fff"/><path opacity=".1" d="M27.967 107.17c-7.55 0-11.676-1.92-11.676-2.91 0-.99 4.116-2.91 11.676-2.91 7.56 0 11.676 1.92 11.676 2.91 0 .99-4.125 2.91-11.676 2.91zm26.087-7.89c-7.55 0-11.676-1.92-11.676-2.91 0-.99 4.115-2.91 11.676-2.91 7.56 0 11.676 1.92 11.676 2.91 0 .98-4.116 2.91-11.676 2.91zm66.962-1.23c-7.55 0-11.676-1.92-11.676-2.91 0-.99 4.116-2.91 11.676-2.91 7.56 0 11.676 1.92 11.676 2.91 0 .98-4.125 2.91-11.676 2.91zm24.964 9.12c-7.55 0-11.675-1.92-11.675-2.91 0-.99 4.115-2.91 11.676-2.91 7.56 0 11.676 1.92 11.676 2.91-.01.99-4.126 2.91-11.676 2.91h-.001z" fill="#122749"/><path d="M38.421 83.4L23.09 70.36c-2.123-1.81-6.63 0-10.074 4.03-3.445 4.03-4.506 8.76-2.383 10.57L25.963 98l12.458-14.6z" fill="#F26BA9"/><path d="M36.03 93.964c3.44-4.031 4.508-8.763 2.386-10.568-2.121-1.805-6.63 0-10.069 4.031-3.44 4.032-4.507 8.764-2.386 10.569 2.122 1.805 6.63 0 10.07-4.032h-.001z" fill="#D63A88"/><defs><linearGradient id="paint0_linear" x1="87.877" y1="150.5" x2="87.877" y2=".5" gradientUnits="userSpaceOnUse"><stop stop-color="#205EBC"/><stop offset="1" stop-color="#9986F7"/></linearGradient><linearGradient id="paint1_linear" x1="60.342" y1="95.274" x2="77.156" y2="47.917" gradientUnits="userSpaceOnUse"><stop offset=".19" stop-color="#331E77" stop-opacity="0"/><stop offset=".378" stop-color="#331E77"/></linearGradient><linearGradient id="paint2_linear" x1="115.655" y1="95.274" x2="98.84" y2="47.917" gradientUnits="userSpaceOnUse"><stop offset=".19" stop-color="#331E77" stop-opacity="0"/><stop offset=".378" stop-color="#331E77"/></linearGradient></defs></svg>