<svg width="161" height="162" fill="none" xmlns="http://www.w3.org/2000/svg"><path d="M80.003 161.098c44.185 0 80.004-36.063 80.004-80.549C160.007 36.063 124.188 0 80.003 0 35.82 0 0 36.063 0 80.55c0 44.485 35.819 80.548 80.003 80.548z" fill="url(#paint0_linear)"/><path opacity=".25" d="M80.004 142.304c33.875 0 61.336-27.648 61.336-61.754 0-34.106-27.461-61.755-61.336-61.755S18.668 46.444 18.668 80.55s27.461 61.754 61.336 61.754z" fill="url(#paint1_linear)"/><path d="M111.358 17.72H49.446C40.912 17.72 34 24.68 34 33.273v128.363h92.804V33.272c0-8.592-6.912-15.551-15.446-15.551v-.001z" fill="#fff"/><path d="M109.696 20.942H50.707c-7.573 0-13.707 6.176-13.707 13.8v126.893h86.404V34.743c0-7.625-6.134-13.8-13.708-13.8v-.001z" fill="url(#paint2_linear)"/><path d="M107.129 135.978h-55.98v25.657h55.98v-25.657z" fill="#185A46"/><path d="M107.143 135.978h-14.87v25.657h14.87v-25.657z" fill="url(#paint3_linear)"/><path d="M95.81 29.534H64.725c-2.602 0-4.725-2.126-4.725-4.757v-2.76h40.535v2.76c0 2.631-2.112 4.757-4.725 4.757z" fill="#C6D3DF"/><path d="M95.81 27.387H64.725c-2.602 0-4.725-2.127-4.725-4.758v-2.76h40.535v2.76c0 2.63-2.112 4.758-4.725 4.758z" fill="#fff"/><g filter="url(#filter0_dd)"><path d="M79.868 111.694c20.914 0 37.869-17.07 37.869-38.126 0-21.057-16.955-38.127-37.869-38.127S42 52.51 42 73.568c0 21.056 16.954 38.126 37.868 38.126z" fill="url(#paint4_linear)"/></g><path d="M79.601 107.399c18.558 0 33.602-15.146 33.602-33.83 0-18.685-15.044-33.831-33.602-33.831C61.044 39.738 46 54.884 46 73.568 46 92.254 61.044 107.4 79.601 107.4v-.001z" fill="url(#paint5_linear)"/><path d="M56.156 88.93h36.59l5.557-27.516a4.007 4.007 0 012.944-3.104l3.958-1.01H93.343l-3.958 1.01a4.022 4.022 0 00-2.944 3.104L80.883 88.93" stroke="#1E2848" stroke-miterlimit="10" stroke-linejoin="round"/><path d="M93.743 84.001H67.32l-2.539-20.149h33.026l-4.064 20.149z" fill="#0A7EE8"/><path d="M67.77 95.062a2.547 2.547 0 002.538-2.556 2.548 2.548 0 00-2.539-2.556 2.545 2.545 0 00-2.538 2.556 2.546 2.546 0 002.538 2.556h.001z" fill="#95CA3C"/><path d="M67.88 93.022h-.213a1.17 1.17 0 01-1.163-1.171V88.93h2.539v2.92a1.17 1.17 0 01-1.163 1.17v.002z" fill="#1D2848"/><path d="M59.14 95.062a2.548 2.548 0 002.54-2.556 2.547 2.547 0 00-2.54-2.556 2.545 2.545 0 00-2.538 2.556 2.546 2.546 0 002.538 2.556z" fill="#95CA3C"/><path d="M59.247 93.022h-.213a1.17 1.17 0 01-1.163-1.171V88.93h2.539v2.92c.01.646-.512 1.17-1.163 1.17v.002z" fill="#1D2848"/><path d="M90.406 95.062a2.548 2.548 0 002.539-2.556 2.548 2.548 0 00-2.539-2.556 2.546 2.546 0 00-2.539 2.556 2.548 2.548 0 002.539 2.556z" fill="#95CA3C"/><path d="M90.517 93.022h-.214a1.17 1.17 0 01-1.162-1.171V88.93h2.538v2.92a1.17 1.17 0 01-1.162 1.17v.002z" fill="#1D2848"/><path d="M81.793 95.062a2.548 2.548 0 002.539-2.556 2.546 2.546 0 00-2.54-2.556 2.545 2.545 0 00-2.538 2.556 2.548 2.548 0 002.539 2.556z" fill="#95CA3C"/><path d="M81.884 93.022h-.213a1.17 1.17 0 01-1.163-1.171V88.93h2.539v2.92c.01.646-.512 1.17-1.163 1.17v.002zm-8.503-28.558l-4.075-4.103a3.537 3.537 0 00-5.024 0l-4.075 4.103" fill="#1D2848"/><path d="M81.724 65.431l-3.478-3.5a3.017 3.017 0 00-4.288 0l-3.477 3.5" fill="#1DAE50"/><path d="M96.73 63.852H64.781l2.54 20.138h27.5l4.064-20.137H96.73z" fill="url(#paint6_linear)"/><path d="M96.594 69.627l.213-1.063-.213 1.063zm-28.923-.946c.064.537.523.945 1.067.945h24.77c.512 0 .95-.365 1.056-.87a1.078 1.078 0 00-1.056-1.299h-24.77c-.64 0-1.141.58-1.067 1.224zm1.636 6.33h23.17c.511 0 .949-.365 1.055-.87a1.078 1.078 0 00-1.056-1.3h-23.17c-.65 0-1.151.57-1.066 1.225.064.537.523.945 1.067.945zM95.7 74.28l.298-1.439-.299 1.44.001-.001zm-29.169 3.447l.267 2.17-.267-2.17zm2.33 1.214c.064.537.523.945 1.067.945h21.559c.512 0 .949-.365 1.056-.87a1.078 1.078 0 00-1.056-1.3h-21.56c-.65.012-1.151.58-1.066 1.225zm25.702.956l.437-2.17-.438 2.17h.001z" fill="#76E17A"/><path d="M54 63.852l2.539 20.149h10.784l-2.538-20.149H54z" fill="url(#paint7_linear)"/><path d="M62.168 67.955h-4.256c-.65 0-1.152.57-1.067 1.224.064.537.523.945 1.067.945h4.256c.651 0 1.153-.57 1.067-1.224a1.075 1.075 0 00-1.067-.945zm3.406 2.17l-.277-2.17.277 2.17zm-2.788 2.717h-4.257c-.65 0-1.152.57-1.066 1.224.064.537.522.945 1.066.945h4.257c.65 0 1.152-.57 1.066-1.224a1.074 1.074 0 00-1.066-.945zm3.394 2.168l-.266-2.169.267 2.17h-.001zm-1.703 3.663a1.074 1.074 0 00-1.066-.945h-4.257c-.65 0-1.152.57-1.066 1.224.064.537.522.945 1.066.945h4.257c.65 0 1.152-.58 1.066-1.224zm-8.727-.945l.277 2.17-.277-2.17z" fill="#3AB46C"/><path d="M91.135 63.852c-.81-3.018-3.542-5.252-6.806-5.252-3.264 0-5.995 2.223-6.806 5.252h13.612z" fill="#97CA3C"/><path d="M40 119.75H.53v41.885H40V119.75z" fill="#033C1A"/><path d="M60.27 119.75H20.8v41.885h39.47V119.75z" fill="url(#paint8_linear)"/><path d="M20.799 161.635H.53V119.75l10.134 3.222 10.134-3.222v41.885h.001z" fill="#148B44"/><path d="M158.684 126.193h-52.332v35.442h52.332v-35.442z" fill="#148D46"/><path d="M158.693 126.193h-20.267v35.442h20.267v-35.442z" fill="url(#paint9_linear)"/><path opacity=".25" d="M50.67 128.341v12.351c0 6.229-4.534 11.277-10.134 11.277-5.6 0-10.134-5.048-10.134-11.277v-12.351" stroke="#3E4044" stroke-miterlimit="10"/><path d="M30.399 130.489a2.15 2.15 0 001.512-.633 2.136 2.136 0 00.621-1.516 2.141 2.141 0 00-2.133-2.148 2.14 2.14 0 00-2.133 2.148c0 1.187.955 2.149 2.133 2.149zm20.273 0a2.133 2.133 0 001.512-.632 2.15 2.15 0 00.622-1.517 2.141 2.141 0 00-2.133-2.148 2.15 2.15 0 00-1.512.632 2.137 2.137 0 00-.622 1.516c0 1.187.955 2.149 2.133 2.149z" fill="#3E4044"/><path d="M51.021 128.341l5.206 12.351c2.624 6.229.213 11.277-5.376 11.277-5.6 0-12.267-5.048-14.892-11.277l-5.205-12.351" stroke="#383A3E" stroke-miterlimit="10"/><path opacity=".25" d="M11.198 122.972v34.368L.531 161.635V119.75l10.667 3.222z" fill="#1D2848"/><path d="M137.316 116.528c-2.656 0-4.8 2.158-4.8 4.833v4.832h4.8c2.656 0 4.8-2.158 4.8-4.832 0-2.675-2.144-4.833-4.8-4.833z" stroke="#3E4044" stroke-miterlimit="10"/><path d="M127.718 116.528c2.656 0 4.8 2.158 4.8 4.833v4.832h-4.8c-2.656 0-4.8-2.158-4.8-4.832 0-2.675 2.155-4.833 4.8-4.833z" stroke="#3E4044" stroke-miterlimit="10"/><path d="M110.405 132.637H60.269v4.296h50.136v-4.296z" fill="#2A7C03"/><path d="M92 132.9H56v4.028h36V132.9z" fill="#091A2E"/><defs><linearGradient id="paint0_linear" x1="80.004" y1="161.098" x2="80.004" y2="0" gradientUnits="userSpaceOnUse"><stop stop-color="#5EB155"/><stop offset="1" stop-color="#FFFA81"/></linearGradient><linearGradient id="paint1_linear" x1="80.005" y1="142.304" x2="80.005" y2="18.795" gradientUnits="userSpaceOnUse"><stop stop-color="#32A37F" stop-opacity="0"/><stop offset="1" stop-color="#0A6259"/></linearGradient><linearGradient id="paint2_linear" x1="80.202" y1="20.942" x2="80.202" y2="161.635" gradientUnits="userSpaceOnUse"><stop offset=".245" stop-color="#E2EAF1"/><stop offset="1" stop-color="#AFC5D8" stop-opacity="0"/></linearGradient><linearGradient id="paint3_linear" x1="99.708" y1="135.978" x2="99.708" y2="161.635" gradientUnits="userSpaceOnUse"><stop stop-color="#BAE956"/><stop offset="1" stop-color="#15AB51"/></linearGradient><linearGradient id="paint4_linear" x1="79.868" y1="35.441" x2="79.868" y2="111.694" gradientUnits="userSpaceOnUse"><stop stop-color="#fff"/><stop offset="1" stop-color="#E5EBF5"/></linearGradient><linearGradient id="paint5_linear" x1="79.601" y1="39.738" x2="79.601" y2="107.399" gradientUnits="userSpaceOnUse"><stop stop-color="#E5EBF5"/><stop offset="1" stop-color="#fff"/></linearGradient><linearGradient id="paint6_linear" x1="81.833" y1="63.852" x2="81.833" y2="83.99" gradientUnits="userSpaceOnUse"><stop stop-color="#15AB51"/><stop offset="1" stop-color="#9DCB3A"/></linearGradient><linearGradient id="paint7_linear" x1="60.662" y1="63.852" x2="60.662" y2="84.001" gradientUnits="userSpaceOnUse"><stop stop-color="#138942"/><stop offset=".679" stop-color="#179850"/><stop offset="1" stop-color="#199F57"/></linearGradient><linearGradient id="paint8_linear" x1="40.535" y1="119.75" x2="40.535" y2="161.635" gradientUnits="userSpaceOnUse"><stop stop-color="#BAE956"/><stop offset="1" stop-color="#15AB51"/></linearGradient><linearGradient id="paint9_linear" x1="148.56" y1="126.193" x2="148.56" y2="161.635" gradientUnits="userSpaceOnUse"><stop stop-color="#BAE956"/><stop offset="1" stop-color="#15AB51"/></linearGradient><filter id="filter0_dd" x="22" y="33.441" width="115.737" height="118.253" filterUnits="userSpaceOnUse" color-interpolation-filters="sRGB"><feFlood flood-opacity="0" result="BackgroundImageFix"/><feColorMatrix in="SourceAlpha" values="0 0 0 0 0 0 0 0 0 0 0 0 0 0 0 0 0 0 127 0" result="hardAlpha"/><feOffset dy="20"/><feGaussianBlur stdDeviation="10"/><feColorMatrix values="0 0 0 0 0.0527778 0 0 0 0 0.172727 0 0 0 0 0.316667 0 0 0 0.15 0"/><feBlend in2="BackgroundImageFix" result="effect1_dropShadow"/><feColorMatrix in="SourceAlpha" values="0 0 0 0 0 0 0 0 0 0 0 0 0 0 0 0 0 0 127 0" result="hardAlpha"/><feOffset dy="4"/><feGaussianBlur stdDeviation="3"/><feColorMatrix values="0 0 0 0 0.0509804 0 0 0 0 0.172549 0 0 0 0 0.317647 0 0 0 0.05 0"/><feBlend in2="effect1_dropShadow" result="effect2_dropShadow"/><feBlend in="SourceGraphic" in2="effect2_dropShadow" result="shape"/></filter></defs></svg>