<svg width="164" height="161" fill="none" xmlns="http://www.w3.org/2000/svg"><path d="M83.937 150.875c41.511 0 75.164-33.663 75.164-75.188C159.101 34.163 125.448.5 83.937.5 42.425.5 8.772 34.163 8.772 75.688c0 41.524 33.653 75.187 75.165 75.187z" fill="url(#paint0_linear)"/><path d="M83.436 133.832c31.825 0 57.626-25.808 57.626-57.643 0-31.836-25.801-57.644-57.626-57.644-31.826 0-57.626 25.808-57.626 57.644 0 31.835 25.8 57.643 57.626 57.643z" fill="url(#paint1_linear)"/><path d="M34.078 109.301H23.104v36.04h10.974v-36.04z" fill="#fff"/><path d="M41.574 109.301h-7.496v36.04h7.496v-36.04z" fill="url(#paint2_linear)"/><path d="M117.647 97.261H95.168v59.489h22.479V97.261z" fill="#fff"/><path d="M133.001 97.261h-15.354v59.489h15.354V97.261z" fill="url(#paint3_linear)"/><path d="M131.09 33.392l-29.314 9.825a2.728 2.728 0 01-3.458-1.725l-1.082-3.238 27.209-9.123a6.855 6.855 0 016.474 1.153l.632.502c.932.751.671 2.225-.461 2.606z" fill="#082A3F"/><path d="M108.662 24.26a1.48 1.48 0 00-1.012 1.413c.001.208.045.412.13.601l3.307 7.349 7.777-2.607-8.849-6.536a1.486 1.486 0 00-1.353-.22zm8.087 24.12a1.477 1.477 0 01-1.914-1.073l-1.784-7.86 7.777-2.606-3.116 10.556a1.565 1.565 0 01-.963.983zM97.276 34.555c.33-.11.691-.07.992.1l3.548 2.075-4.57 1.534-.732-2.185c-.21-.632.13-1.313.762-1.524z" fill="#082A3F"/><path d="M1.636 70.896l22.83-8.08 22.87-7.99c7.616-2.667 15.203-5.444 22.9-7.89 7.707-2.396 15.413-4.822 23.25-6.847l.06.19c-7.466 3.108-15.082 5.815-22.669 8.552-7.616 2.686-15.333 5.042-23.02 7.508l-23.06 7.419-23.091 7.318-.07-.18zm0 5.012l22.83-8.08 22.87-7.99c7.616-2.666 15.203-5.444 22.9-7.89 7.707-2.395 15.413-4.822 23.25-6.847l.06.19c-7.466 3.109-15.082 5.815-22.669 8.552-7.616 2.687-15.333 5.043-23.02 7.509l-23.06 7.418-23.091 7.32-.07-.18z" fill="#fff"/><path d="M125.027 30.575s3.507-1.504 4.509.501l-4.008 1.003-.501-1.504z" fill="#4094D3"/><path d="M131.09 33.392l-29.314 9.825a2.728 2.728 0 01-3.458-1.725l-1.082-3.238 27.209-9.123a6.855 6.855 0 016.474 1.153l.632.502c.932.751.671 2.225-.461 2.606z" fill="#082A3F"/><path d="M130.549 29.793l-.632-.501a6.851 6.851 0 00-6.474-1.153l-27.21 9.123 1.083 3.238a2.737 2.737 0 003.458 1.724l29.314-9.824c1.132-.391 1.393-1.865.461-2.607z" fill="url(#paint4_linear)"/><path d="M72.602 73.823H39.57v83.097h33.032V73.823z" fill="#fff"/><path d="M95.171 73.823H72.612v83.097h22.56V73.823z" fill="url(#paint5_linear)"/><path d="M146.713 103.106h-15.454v48.772h15.454v-48.772z" fill="#fff"/><path d="M157.268 103.106h-10.553v48.772h10.553v-48.772z" fill="url(#paint6_linear)"/><path d="M25.83 108.94H5.696v48.772H25.83V108.94z" fill="#fff"/><path d="M39.58 108.94H25.83v48.772h13.75V108.94z" fill="url(#paint7_linear)"/><g opacity=".75"><path opacity=".75" d="M50.915 82.966h-4.74v10.526h4.74V82.966z" fill="url(#paint8_linear)"/><path opacity=".75" d="M63.442 82.966h-4.74v10.526h4.74V82.966z" fill="url(#paint9_linear)"/></g><g opacity=".75"><path opacity=".75" d="M50.915 100.52h-4.74v10.526h4.74V100.52z" fill="url(#paint10_linear)"/><path opacity=".75" d="M63.442 100.52h-4.74v10.526h4.74V100.52z" fill="url(#paint11_linear)"/></g><g opacity=".75"><path opacity=".75" d="M50.915 118.063h-4.74v10.526h4.74v-10.526z" fill="url(#paint12_linear)"/><path opacity=".75" d="M63.442 118.063h-4.74v10.526h4.74v-10.526z" fill="url(#paint13_linear)"/></g><g opacity=".75"><path opacity=".75" d="M50.915 135.607h-4.74v10.526h4.74v-10.526z" fill="url(#paint14_linear)"/><path opacity=".75" d="M63.442 135.607h-4.74v10.526h4.74v-10.526z" fill="url(#paint15_linear)"/></g><g opacity=".5"><path opacity=".5" d="M113.811 104.309h-5.121v5.123h5.121v-5.123z" fill="url(#paint16_linear)"/><path opacity=".5" d="M113.811 118.154h-5.121v5.123h5.121v-5.123z" fill="url(#paint17_linear)"/></g><g opacity=".5"><path opacity=".5" d="M104.13 104.309h-5.121v5.123h5.121v-5.123z" fill="url(#paint18_linear)"/><path opacity=".5" d="M104.13 118.154h-5.121v5.123h5.121v-5.123z" fill="url(#paint19_linear)"/></g><g opacity=".75"><path opacity=".25" d="M18.321 117.833h-5.12v5.122h5.12v-5.122z" fill="url(#paint20_linear)"/><path opacity=".25" d="M18.321 132.68h-5.12v5.122h5.12v-5.122z" fill="url(#paint21_linear)"/><path opacity=".25" d="M18.321 146.143h-5.12v5.123h5.12v-5.123z" fill="url(#paint22_linear)"/></g><path d="M141.781 109.211h-4.74v8.16h4.74v-8.16z" fill="url(#paint23_linear)"/><path d="M141.781 123.667h-4.74v8.16h4.74v-8.16z" fill="url(#paint24_linear)"/><path d="M141.781 138.123h-4.74v8.16h4.74v-8.16z" fill="url(#paint25_linear)"/><path d="M102.908 120.95H77.924v39.549h24.984V120.95z" fill="#fff"/><path d="M119.965 120.95h-17.057v39.549h17.057V120.95z" fill="url(#paint26_linear)"/><g opacity=".5"><path opacity=".5" d="M92.977 130.484h-5.122v5.123h5.121v-5.123z" fill="url(#paint27_linear)"/><path opacity=".5" d="M92.977 145.332h-5.122v5.122h5.121v-5.122z" fill="url(#paint28_linear)"/></g><path d="M163.501 129.822h-163v34.085h163v-34.085z" fill="url(#paint29_linear)"/><defs><linearGradient id="paint0_linear" x1="83.937" y1=".5" x2="83.937" y2="150.875" gradientUnits="userSpaceOnUse"><stop stop-color="#CFEBFF"/><stop offset="1" stop-color="#81BBFF"/></linearGradient><linearGradient id="paint1_linear" x1="83.436" y1="18.545" x2="83.436" y2="133.832" gradientUnits="userSpaceOnUse"><stop stop-color="#81BBFF"/><stop offset="1" stop-color="#CFEBFF"/></linearGradient><linearGradient id="paint2_linear" x1="37.83" y1="145.336" x2="37.83" y2="109.3" gradientUnits="userSpaceOnUse"><stop stop-color="#fff"/><stop offset=".88" stop-color="#80B1D3"/></linearGradient><linearGradient id="paint3_linear" x1="125.324" y1="97.261" x2="125.324" y2="156.75" gradientUnits="userSpaceOnUse"><stop stop-color="#5D9AE0"/><stop offset=".626" stop-color="#C3D9F3"/><stop offset="1" stop-color="#fff"/></linearGradient><linearGradient id="paint4_linear" x1="113.68" y1="42.357" x2="113.68" y2="27.782" gradientUnits="userSpaceOnUse"><stop stop-color="#EBEFF7"/><stop offset="1" stop-color="#fff"/></linearGradient><linearGradient id="paint5_linear" x1="83.891" y1="73.823" x2="83.891" y2="156.92" gradientUnits="userSpaceOnUse"><stop stop-color="#5D9AE0"/><stop offset=".626" stop-color="#C3D9F3"/><stop offset="1" stop-color="#fff"/></linearGradient><linearGradient id="paint6_linear" x1="151.991" y1="103.106" x2="151.991" y2="151.878" gradientUnits="userSpaceOnUse"><stop stop-color="#5D9AE0"/><stop offset=".626" stop-color="#C3D9F3"/><stop offset="1" stop-color="#fff"/></linearGradient><linearGradient id="paint7_linear" x1="32.705" y1="108.94" x2="32.705" y2="157.712" gradientUnits="userSpaceOnUse"><stop stop-color="#5D9AE0"/><stop offset=".626" stop-color="#C3D9F3"/><stop offset="1" stop-color="#fff"/></linearGradient><linearGradient id="paint8_linear" x1="48.542" y1="93.498" x2="48.542" y2="82.969" gradientUnits="userSpaceOnUse"><stop stop-color="#fff"/><stop offset=".996" stop-color="#799EC6"/></linearGradient><linearGradient id="paint9_linear" x1="61.076" y1="93.498" x2="61.076" y2="82.969" gradientUnits="userSpaceOnUse"><stop stop-color="#fff"/><stop offset=".996" stop-color="#799EC6"/></linearGradient><linearGradient id="paint10_linear" x1="48.542" y1="111.045" x2="48.542" y2="100.516" gradientUnits="userSpaceOnUse"><stop stop-color="#fff"/><stop offset=".996" stop-color="#799EC6"/></linearGradient><linearGradient id="paint11_linear" x1="61.076" y1="111.045" x2="61.076" y2="100.516" gradientUnits="userSpaceOnUse"><stop stop-color="#fff"/><stop offset=".996" stop-color="#799EC6"/></linearGradient><linearGradient id="paint12_linear" x1="48.542" y1="128.591" x2="48.542" y2="118.062" gradientUnits="userSpaceOnUse"><stop stop-color="#fff"/><stop offset=".996" stop-color="#799EC6"/></linearGradient><linearGradient id="paint13_linear" x1="61.076" y1="128.591" x2="61.076" y2="118.062" gradientUnits="userSpaceOnUse"><stop stop-color="#fff"/><stop offset=".996" stop-color="#799EC6"/></linearGradient><linearGradient id="paint14_linear" x1="48.542" y1="146.138" x2="48.542" y2="135.609" gradientUnits="userSpaceOnUse"><stop stop-color="#fff"/><stop offset=".996" stop-color="#799EC6"/></linearGradient><linearGradient id="paint15_linear" x1="61.076" y1="146.138" x2="61.076" y2="135.609" gradientUnits="userSpaceOnUse"><stop stop-color="#fff"/><stop offset=".996" stop-color="#799EC6"/></linearGradient><linearGradient id="paint16_linear" x1="111.253" y1="109.432" x2="111.253" y2="104.31" gradientUnits="userSpaceOnUse"><stop stop-color="#fff"/><stop offset=".996" stop-color="#799EC6"/></linearGradient><linearGradient id="paint17_linear" x1="111.253" y1="123.278" x2="111.253" y2="118.156" gradientUnits="userSpaceOnUse"><stop stop-color="#fff"/><stop offset=".996" stop-color="#799EC6"/></linearGradient><linearGradient id="paint18_linear" x1="101.571" y1="109.432" x2="101.571" y2="104.31" gradientUnits="userSpaceOnUse"><stop stop-color="#fff"/><stop offset=".996" stop-color="#799EC6"/></linearGradient><linearGradient id="paint19_linear" x1="101.571" y1="123.278" x2="101.571" y2="118.156" gradientUnits="userSpaceOnUse"><stop stop-color="#fff"/><stop offset=".996" stop-color="#799EC6"/></linearGradient><linearGradient id="paint20_linear" x1="15.761" y1="122.954" x2="15.761" y2="117.833" gradientUnits="userSpaceOnUse"><stop stop-color="#fff"/><stop offset=".996" stop-color="#799EC6"/></linearGradient><linearGradient id="paint21_linear" x1="15.761" y1="137.802" x2="15.761" y2="132.681" gradientUnits="userSpaceOnUse"><stop stop-color="#fff"/><stop offset=".996" stop-color="#799EC6"/></linearGradient><linearGradient id="paint22_linear" x1="15.761" y1="151.261" x2="15.761" y2="146.139" gradientUnits="userSpaceOnUse"><stop stop-color="#fff"/><stop offset=".996" stop-color="#799EC6"/></linearGradient><linearGradient id="paint23_linear" x1="139.414" y1="117.371" x2="139.414" y2="109.213" gradientUnits="userSpaceOnUse"><stop stop-color="#fff"/><stop offset=".996" stop-color="#799EC6"/></linearGradient><linearGradient id="paint24_linear" x1="139.414" y1="131.827" x2="139.414" y2="123.669" gradientUnits="userSpaceOnUse"><stop stop-color="#fff"/><stop offset=".996" stop-color="#799EC6"/></linearGradient><linearGradient id="paint25_linear" x1="139.414" y1="146.283" x2="139.414" y2="138.125" gradientUnits="userSpaceOnUse"><stop stop-color="#fff"/><stop offset=".996" stop-color="#799EC6"/></linearGradient><linearGradient id="paint26_linear" x1="111.437" y1="120.95" x2="111.437" y2="160.499" gradientUnits="userSpaceOnUse"><stop stop-color="#5D9AE0"/><stop offset=".626" stop-color="#C3D9F3"/><stop offset="1" stop-color="#fff"/></linearGradient><linearGradient id="paint27_linear" x1="90.415" y1="135.61" x2="90.415" y2="130.488" gradientUnits="userSpaceOnUse"><stop stop-color="#fff"/><stop offset=".996" stop-color="#799EC6"/></linearGradient><linearGradient id="paint28_linear" x1="90.415" y1="150.458" x2="90.415" y2="145.337" gradientUnits="userSpaceOnUse"><stop stop-color="#fff"/><stop offset=".996" stop-color="#799EC6"/></linearGradient><linearGradient id="paint29_linear" x1="82" y1="163.907" x2="82" y2="129.822" gradientUnits="userSpaceOnUse"><stop stop-color="#FBFCF5"/><stop offset="1" stop-color="#FBFCF5" stop-opacity="0"/></linearGradient></defs></svg>