<svg width="153" height="151" fill="none" xmlns="http://www.w3.org/2000/svg"><path d="M75.21 150.5c41.26 0 74.709-33.579 74.709-75S116.47.5 75.209.5C33.95.5.5 34.079.5 75.5s33.449 75 74.71 75z" fill="url(#paint0_linear)"/><path opacity=".15" d="M75.21 133c31.632 0 57.277-25.744 57.277-57.5S106.842 18 75.21 18c-31.634 0-57.278 25.744-57.278 57.5S43.576 133 75.21 133z" fill="url(#paint1_linear)"/><path d="M19.625 89.99c6.415 24.8 28.858 43.11 55.564 43.11s49.158-18.31 55.564-43.11H19.625z" fill="#387A63"/><path d="M12.504 116.26c13.318 20.6 36.419 34.24 62.696 34.24 26.278 0 49.388-13.64 62.697-34.24H12.504z" fill="#2F604D"/><path d="M44.887 64.56H22.862v26.3h22.025v-26.3z" fill="#316853"/><path d="M44.888 78.22H19.637v12.64h25.251V78.22z" fill="#316853"/><path d="M60.276 74.55h-15.39v16.31h15.39V74.55z" fill="#316853"/><path d="M44.887 76.96H17.932v1.26h26.955v-1.26zm18.619-3.67H36.551v1.26h26.955v-1.26zM47.05 63.3H20.097v1.26H47.05V63.3zM30.644 42.96H26.78l-.687 20.34h5.06l-.509-20.34zm12.578 6.56h-3.865L38.68 63.3h5.06l-.518-13.78zm33.292 40.63H67.67V71.43c0-2.27 1.832-4.11 4.094-4.11h.657a4.102 4.102 0 014.094 4.11l-.001 18.72zm13.008 0h-8.845V71.43c0-2.27 1.832-4.11 4.094-4.11h.657a4.102 4.102 0 014.094 4.11v18.72zm41.233.71H96.408v-7.58c0-8.81 7.112-15.95 15.888-15.95h2.57c8.776 0 15.889 7.14 15.889 15.95v7.58z" fill="#316853"/><path d="M92.155 80.51H57.808v10.35h34.347V80.51z" fill="#316853"/><path d="M114.685 84.94H80.338v5.92h34.347v-5.92z" fill="#316853"/><path d="M85.1 67.32v-8.15c0-2.04 1.784-3.69 3.975-3.69h20.78c2.201 0 3.974 1.65 3.974 3.69v8.15" stroke="#316853" stroke-width=".998" stroke-miterlimit="10"/><path d="M50.538 100.54h-2.032c-.717 0-1.305.71-1.305 1.6 0 2.32 1.335 1.92 3.337 1.92v-3.52z" fill="#FF4F26"/><path d="M145.359 85.91c0 .63.508 1.14 1.135 1.14h3.208c.627 0 1.135-.51 1.135-1.14V75.68c0-.63-.508-1.14-1.135-1.14h-3.208c-.627 0-1.135.51-1.135 1.14v10.23zm-56.601 21.86c0 4.97 2.53 9 5.649 9 3.117 0 5.648-4.03 5.648-9s-2.53-9-5.648-9c-3.118-.01-5.649 4.03-5.649 9z" fill="#2D2A2F"/><path d="M94.408 116.77c3.118 0 5.649-4.03 5.649-9s-2.53-9-5.649-9h4.284c3.118 0 5.648 4.03 5.648 9s-2.53 9-5.648 9h-4.284z" fill="#2D2A2F"/><path d="M106.739 111c0 .88.588 1.6 1.305 1.6h10.658c.718 0 1.305-.71 1.305-1.6V99.86c0-.88-.577-1.6-1.305-1.6h-10.658c-.717 0-1.305.71-1.305 1.6V111z" fill="#99102D"/><path d="M53.196 94.54h64.798l-.916 14.17H51.692l1.504-14.17z" fill="#99102D"/><path d="M141.961 65.71h-30.342v2.67h30.342v-2.67z" fill="#F44A4A"/><path d="M129.102 107.77c0 4.97 2.53 9 5.648 9s5.648-4.03 5.648-9-2.53-9-5.648-9c-3.118-.01-5.648 4.03-5.648 9z" fill="#2D2A2F"/><path d="M134.752 116.77c3.118 0 5.648-4.03 5.648-9s-2.53-9-5.648-9h4.283c3.118 0 5.648 4.03 5.648 9s-2.53 9-5.648 9h-4.283z" fill="#2D2A2F"/><path d="M103.223 95.63V65.84l41.538-.09c.568 0 1.026.57 1.036 1.26v.17c.01.68-.249 1.33-.687 1.75-.429.41-.648 1.08-.558 1.74l1.853 13.93c.04.32-1.056.24-1.006 1.49l.05 22.6h-29.765s2.241-.72 2.152-1.6c-.618-5.97-7.491-12.2-12.532-12.2-5.05 0-17.751 6.25-18.369 12.22-.09.87-.657 1.58-1.374 1.58h-3.128c-.717 0-1.305-.71-1.305-1.6V95.63h22.095z" fill="#F44A4A"/><path d="M149.543 108.34l-3.068 2.5c-.468.38-1.085-.03-1.085-.71V86.1c0-.88.587-1.6 1.305-1.6h1.544c.717 0 1.304.71 1.304 1.6v22.24z" fill="#F44A4A"/><path d="M89.408 95.63V65.56l24.714.19c1.225.01 1.395 2.18.339 3.19-.428.41-.648 1.08-.558 1.74l1.803 13.55c.04.32-.807 1.3-.757 2.56l-.15 22.19c-.02-1.16-.099-2.74-.338-3.9-.976-4.79-5.25-8.54-9.742-8.54-5.17 0-9.215 4.77-9.812 10.59-.09.87-.658 1.58-1.375 1.58H77.315c-.717 0-1.285-.72-1.385-1.6-.617-5.97-4.771-10.58-9.812-10.58-5.05 0-9.214 4.63-9.821 10.61-.09.87-.658 1.58-1.375 1.58h-3.128c-.717 0-1.305-.71-1.305-1.6V95.63h38.919z" fill="#B71833"/><path d="M92.327 72.15c0-.88.587-1.6 1.305-1.6l15.47-.06c.737 0 1.344.69 1.394 1.59l.578 10.08c.05.86-.508 1.59-1.205 1.59H93.632c-.718 0-1.305-.71-1.305-1.6v-10z" fill="#82B79E"/><path d="M94.776 90.26h2.142c1.414 0 1.414-2.63 0-2.63h-2.142c-1.424 0-1.424 2.63 0 2.63z" fill="#040002"/><path d="M76.097 111c0 .88.577 1.6 1.305 1.6H88.06c.717 0 1.305-.71 1.305-1.6V99.86c0-.88-.578-1.6-1.305-1.6H77.402c-.718 0-1.305.71-1.305 1.6V111z" fill="#B71833"/><path d="M85.262 110.99V99.85c0-.88-.588-1.6-1.305-1.6h4.064c.717 0 1.305.71 1.305 1.6v11.14c0 .88-.588 1.6-1.305 1.6h-4.064c.727 0 1.305-.72 1.305-1.6z" fill="#99102D"/><path d="M64.396 116.77c3.118 0 5.648-4.03 5.648-9s-2.53-9-5.648-9h4.284c3.117 0 5.648 4.03 5.648 9s-2.53 9-5.648 9h-4.284z" fill="#2D2A2F"/><path d="M60.579 107.77c0 3.37 1.713 6.11 3.835 6.11 2.112 0 3.835-2.73 3.835-6.11 0-3.37-1.713-6.1-3.835-6.1-2.122-.01-3.835 2.73-3.835 6.1z" fill="#4F4C43"/><path d="M64.336 113.87c-2.112 0-3.835-2.73-3.835-6.11 0-3.37 1.713-6.1 3.835-6.1h2.63c-2.112 0-3.835 2.73-3.835 6.1 0 3.37 1.713 6.11 3.835 6.11h-2.63z" fill="#73716B"/><path d="M62.61 107.77c0 1.57.797 2.84 1.783 2.84.986 0 1.783-1.27 1.783-2.84 0-1.57-.797-2.84-1.783-2.84-.986 0-1.783 1.27-1.783 2.84z" fill="#F9F8F9"/><path d="M64.392 104.93c.986 0 1.783 1.27 1.783 2.84 0 1.57-.797 2.84-1.783 2.84h.787c.986 0 1.783-1.27 1.783-2.84 0-1.57-.797-2.84-1.783-2.84h-.787z" fill="#73716B"/><path d="M58.746 107.77c0 4.97 2.53 9 5.648 9s5.648-4.03 5.648-9-2.53-9-5.648-9c-3.118-.01-5.648 4.03-5.648 9zm1.833 0c0-3.37 1.713-6.1 3.835-6.1 2.112 0 3.835 2.73 3.835 6.1 0 3.37-1.713 6.11-3.835 6.11-2.122-.01-3.835-2.74-3.835-6.11z" fill="#2D2A2F"/><path d="M114.878 68.35h30.641c-.349.7-1.096.99-.966 2.25h-30.641c-.12-1.26.618-1.55.966-2.25z" fill="#B71833"/><path d="M120.733 58.53c.12.01.23.06.34.17l7.251 7.04-38.3.02v-7.23h30.709z" fill="#F44A4A"/><path d="M97.684 65.74l-7.252-7.04c-.408-.4-1.016-.04-1.016.6v6.44h8.268z" fill="#B71833"/><path d="M127.776 65.31l.498.51h-38.48v-.51h37.982z" fill="#B71833"/><path d="M148.785 84.68h-30.57v13.89h30.57V84.68z" fill="#F44A4A"/><path d="M103.054 116.77c3.118 0 5.648-4.03 5.648-9s-2.53-9-5.648-9h4.284c3.117 0 5.648 4.03 5.648 9s-2.53 9-5.648 9h-4.284z" fill="#2D2A2F"/><path d="M99.241 107.771c0 3.37 1.713 6.11 3.835 6.11 2.112 0 3.835-2.73 3.835-6.11 0-3.37-1.713-6.1-3.835-6.1-2.122-.01-3.835 2.73-3.835 6.1z" fill="#4F4C43"/><path d="M102.994 113.87c-2.111 0-3.835-2.73-3.835-6.11 0-3.37 1.714-6.1 3.835-6.1h2.63c-2.112 0-3.835 2.73-3.835 6.1 0 3.37 1.713 6.11 3.835 6.11h-2.63z" fill="#73716B"/><path d="M101.272 107.77c0 1.57.797 2.84 1.783 2.84.986 0 1.783-1.27 1.783-2.84 0-1.57-.797-2.84-1.783-2.84-.986 0-1.783 1.27-1.783 2.84z" fill="#F9F8F9"/><path d="M103.054 104.93c.986 0 1.783 1.27 1.783 2.84 0 1.57-.797 2.84-1.783 2.84h.787c.986 0 1.783-1.27 1.783-2.84 0-1.57-.797-2.84-1.783-2.84h-.787z" fill="#73716B"/><path d="M97.397 107.77c0 4.97 2.53 9 5.648 9s5.648-4.03 5.648-9-2.53-9-5.648-9c-3.118-.01-5.648 4.03-5.648 9zm1.843 0c0-3.37 1.713-6.1 3.835-6.1 2.112 0 3.835 2.73 3.835 6.1 0 3.37-1.713 6.11-3.835 6.11-2.122-.01-3.835-2.74-3.835-6.11z" fill="#2D2A2F"/><path d="M115.036 84.51v.65h34.256c-.219-.28-.508-.62-.896-.63a62.82 62.82 0 00-2.52-.01c-3.776.04-12.103.01-30.84-.01z" fill="#B71833"/><path d="M123.413 101.86c0-.88-.707-1.6-1.594-1.6h-2.908v4.29h2.908c.877 0 1.594-.71 1.594-1.6v-1.09zm21.666 0c0-.88.707-1.6 1.594-1.6h2.908v4.29h-2.908c-.877 0-1.594-.71-1.594-1.6v-1.09z" fill="#B3F9FA"/><path d="M115.393 110.96h30.163c1.026 0 1.195-.36 1.992-1l1.983-1.61h-32.365l-1.773 2.61z" fill="#99102D"/><path d="M118.913 108.34l-3.069 2.5c-.468.38-1.085-.03-1.085-.71V86.1c0-.88.587-1.6 1.305-1.6h1.544c.717 0 1.305.71 1.305 1.6v22.24z" fill="#B71833"/><path d="M118.91 104.55l-.826-.5c-.698-.42-1.146-1.3-1.146-2.25 0-.86.568-1.56 1.275-1.56h.688v4.31h.009z" fill="#5BDDDD"/><path d="M123.524 106.97c0-.88-.568-1.6-1.275-1.6h-7.332c-.707 0-1.275.71-1.275 1.6v2.72c0 .88.568 1.6 1.275 1.6h7.332c.707 0 1.275-.71 1.275-1.6v-2.72zm-67.309 0c0-.88-.568-1.6-1.275-1.6h-7.331c-.708 0-1.275.71-1.275 1.6v2.72c0 .88.567 1.6 1.275 1.6h7.331c.707 0 1.275-.71 1.275-1.6v-2.72z" fill="#474046"/><path d="M53.367 109.69v-2.72c0-.88-.567-1.6-1.275-1.6h2.8c.707 0 1.275.71 1.275 1.6v2.72c0 .88-.568 1.6-1.275 1.6h-2.8c.708 0 1.275-.72 1.275-1.6z" fill="#2D2A2F"/><path d="M152.5 106.97c0-.88-.568-1.6-1.275-1.6h-31.448c-.707 0-1.275.71-1.275 1.6v2.72c0 .88.568 1.6 1.275 1.6h31.448c.707 0 1.275-.71 1.275-1.6v-2.72z" fill="#898589"/><path d="M117.866 82.83c-.987 0-1.684-.51-1.803-1.36l-1.126-8.35c-.259-1.23 1.833-.98 1.833-.98h26.228c.538 0 .896.36.986.98l1.126 8.35c.08.6-.688 1.36-1.375 1.36h-25.869z" fill="#A0DEC0"/><path d="M109.857 83.73h-4.503v-5.68c0-.85.658-1.53 1.484-1.59h3.895l.33 5.68c.049.86-.499 1.59-1.206 1.59z" fill="#377E8E"/><path d="M102.646 76.46h4.193c-.826.06-1.484.74-1.484 1.59v5.68h-4.293v-5.67a1.578 1.578 0 011.584-1.6z" fill="#2E707C"/><path d="M111.053 85.14h-.528v11.93h.528V85.14zm19.613 21.4c0-.18.14-.32.319-.32h9.035c.179 0 .318.14.318.32v3.58c0 .18-.14.32-.318.32h-9.035a.32.32 0 01-.297-.197.306.306 0 01-.023-.123l.001-3.58z" fill="#F44A4A"/><path d="M139.553 106.54v3.58c0 .18-.14.32-.318.32.458 0 1.115.12 1.115-.32v-3.58c0-.18-.14-.32-.319-.32h-.796c.169 0 .318.14.318.32z" fill="#2D2A2F"/><path d="M135.329 78.09c0-.88-.708-1.6-1.594-1.6h-10.758v-4.34h18.17c.607 10.47.677 10.15.477 10.69h-6.305v-4.75h.01z" fill="#82B79E"/><path d="M121.521 82.85c-4.721 0-5.21.4-5.548-2.15 1.903-1.34 5.12-.69 5.548 2.15z" fill="#377E8E"/><path d="M122.976 76.49h10.758c.877 0 1.594.71 1.594 1.6v4.76h-12.382c-.498-3.36-4.234-5.15-7.142-3.4l-.399-2.96h7.571z" fill="#377E8E"/><path d="M115.971 80.69l-.17-1.25c2.9-1.75 6.645.04 7.143 3.4h-1.425c-.428-2.83-3.645-3.48-5.548-2.15z" fill="#B9B9B9"/><path d="M140.775 72.13l1.484 10.68h1.006l-1.554-10.68h-.936zm-3.187 0l1.494 10.68h2.68l-1.554-10.68h-2.62z" fill="#C7F2DB"/><path d="M93.62 70.55h1.126c-.718 0-1.305.72-1.305 1.6v10c0 .88.587 1.6 1.305 1.6H93.62c-.717 0-1.305-.71-1.305-1.6v-10c0-.88.578-1.6 1.305-1.6z" fill="#41825E"/><path d="M125.685 87.5h16.247c.877 0 1.594.71 1.594 1.6v13.49h-17.84l-.001-15.09z" fill="#474046"/><path d="M127.758 90.04c.04.21.24.39.458.39 15.54 0 15.161.18 15.062-.39a.49.49 0 00-.458-.39h-14.743c-.22 0-.359.17-.319.39z" fill="#B71833"/><path d="M142.242 89.65c.468 0 .946-.08 1.036.39.08.47-.428.39-.897.39.508-.01.379-.78-.14-.78h.001z" fill="#1B2A59"/><path d="M127.758 91.78c.04.22.24.39.458.39 15.54 0 15.161.18 15.062-.39a.489.489 0 00-.458-.39h-14.743c-.22 0-.359.17-.319.39z" fill="#B71833"/><path d="M142.242 91.39c.468 0 .946-.08 1.036.39.08.47-.428.39-.897.39.508-.01.379-.78-.14-.78h.001z" fill="#1B2A59"/><path d="M127.758 93.52c.04.21.24.39.458.39 15.54 0 15.161.18 15.062-.39a.49.49 0 00-.458-.39h-14.743c-.22 0-.359.17-.319.39z" fill="#B71833"/><path d="M142.242 93.13c.468 0 .946-.08 1.036.39.08.47-.428.39-.897.39.508-.01.379-.78-.14-.78h.001z" fill="#1B2A59"/><path d="M127.758 100.47c.04.21.24.39.458.39 15.54 0 15.161.18 15.062-.39a.49.49 0 00-.458-.39h-14.743c-.22 0-.359.18-.319.39z" fill="#B71833"/><path d="M142.242 100.08c.468 0 .946-.08 1.036.39.08.47-.428.39-.897.39.508 0 .379-.78-.14-.78h.001z" fill="#1B2A59"/><path d="M127.758 96.99c.04.22.24.39.458.39 15.54 0 15.161.18 15.062-.39a.49.49 0 00-.458-.39h-14.743c-.22.01-.359.18-.319.39z" fill="#B71833"/><path d="M142.242 96.61c.468 0 .946-.08 1.036.39.08.47-.428.39-.897.39.508-.01.379-.78-.14-.78h.001z" fill="#1B2A59"/><path d="M127.758 98.73c.04.22.24.39.458.39 15.54 0 15.161.18 15.062-.39a.49.49 0 00-.458-.39h-14.743c-.22.01-.359.18-.319.39z" fill="#B71833"/><path d="M142.242 98.35c.468 0 .946-.08 1.036.39a.317.317 0 01-.065.273.314.314 0 01-.254.117h-.578c.508-.01.379-.78-.14-.78h.001z" fill="#1B2A59"/><path d="M127.758 95.25c.04.21.24.39.458.39 15.54 0 15.161.18 15.062-.39a.49.49 0 00-.458-.39h-14.743c-.22.01-.359.18-.319.39z" fill="#B71833"/><path d="M142.242 94.87c.468 0 .946-.08 1.036.39.08.47-.428.39-.897.39.508-.01.379-.78-.14-.78h.001z" fill="#1B2A59"/><path d="M143.526 102.58h-17.84v.87h16.973a.87.87 0 00.867-.87z" fill="#99102D"/><path d="M125.685 103.45c.668 0 1.216-.55 1.216-1.22V88.72c0-.67-.548-1.22-1.216-1.22v15.95z" fill="#B71833"/><path d="M36.34 26.25h-2.271a1 1 0 00-.996 1v88.01a1 1 0 00.996 1h2.27c.549 0 .997-.45.997-1V27.25c0-.56-.448-1-.996-1z" fill="#F44A4A"/><path d="M43.891 29.87h-3.367l.996 2.62h1.375l.996-2.62zm-13.728 0h-3.367l.996 2.62h1.375l.996-2.62z" fill="#12102B"/><path d="M40.417 109.98h-10.43c-.737 0-1.335.6-1.335 1.34v5.03h13.1v-5.03c.01-.74-.588-1.34-1.335-1.34z" fill="#F44A4A"/><path d="M73.908 89.87l-53.283-20.2 60.664-11.93" stroke="#fff" stroke-width="3.992" stroke-miterlimit="10" stroke-linejoin="round"/><path d="M29.35 66.31H17.605v7.97H29.35v-7.97zm58.531-16.5H70.44v15.52h17.442l-.001-15.52z" fill="#242D3A"/><path d="M85.264 56.38H73.062v13.56h12.202V56.38zm-3.648 32.69H65.209v6.59h16.407v-6.59z" fill="#242D3A"/><path d="M79.217 83.87H67.622v5.25h11.595v-5.25z" fill="#242D3A"/><path d="M28.784 30.44c-5.651 4.126-12.057 7.359-18.887 9.786m17.977-9.786c30.617 22.358 85.272 17.51 107.692 1.665L27.874 30.44zm14.456 0c27.142 19.82 71.694 19.004 97.005 7.56L42.33 30.44zm.906 0C33.149 37.805 20.658 42.32 7.644 44.5l35.592-14.06z" stroke="#242D3A" stroke-width=".998" stroke-miterlimit="10"/><path d="M45.205 35.77v-2.28a1 1 0 00-.996-1H26.19a1 1 0 00-.996 1v2.28a1 1 0 00.996 1h18.02c.558 0 .996-.45.996-1h-.001z" fill="#F44A4A"/><defs><linearGradient id="paint0_linear" x1="75.208" y1="150.5" x2="75.208" y2=".5" gradientUnits="userSpaceOnUse"><stop stop-color="#A0D69A"/><stop offset="1" stop-color="#F1ED98"/></linearGradient><linearGradient id="paint1_linear" x1="75.208" y1="133" x2="75.208" y2="18" gradientUnits="userSpaceOnUse"><stop stop-color="#32A37F" stop-opacity="0"/><stop offset="1" stop-color="#0A6259"/></linearGradient></defs></svg>