<svg width="98" height="102" viewBox="0 0 98 102" fill="none" xmlns="http://www.w3.org/2000/svg">
<mask id="mask0" mask-type="alpha" maskUnits="userSpaceOnUse" x="0" y="15" width="86" height="87">
<path d="M43 101.632C66.7482 101.632 86 82.3803 86 58.6321C86 34.8838 66.7482 15.6321 43 15.6321C19.2518 15.6321 0 34.8838 0 58.6321C0 82.3803 19.2518 101.632 43 101.632Z" fill="#C4C4C4"/>
</mask>
<g mask="url(#mask0)">
<path d="M64.5 22.7539H21.5C9.627 22.7539 0 32.4299 0 44.3629V87.5799C0 99.5129 9.627 109.188 21.5 109.188H64.5C76.373 109.188 86 99.5129 86 87.5799V44.3629C86 32.4299 76.373 22.7539 64.5 22.7539Z" fill="url(#paint0_linear)"/>
<path d="M6.29798 29.084C4.29599 31.0924 2.70934 33.4756 1.62871 36.0974C0.54807 38.7192 -0.00538066 41.5282 -2.2499e-05 44.364V87.58C-2.2499e-05 99.513 9.62698 109.189 21.5 109.189H64.5C70.438 109.189 75.813 106.771 79.702 102.859L6.29798 29.085V29.084Z" fill="url(#paint1_linear)"/>
<path d="M87.133 62.9268C86.6865 62.9127 86.2397 62.9054 85.793 62.9048C60.911 62.9048 40.738 83.2148 40.738 108.266C40.738 108.717 40.746 109.168 40.76 109.616H56.704L73.82 93.4788L87.133 79.0928V62.9268Z" fill="url(#paint2_linear)"/>
<path d="M55.45 108.231C55.45 108.697 55.46 109.157 55.482 109.617H62.627C76.161 109.617 87.133 98.5698 87.133 84.9438V77.7498C86.676 77.7298 86.219 77.7168 85.757 77.7168C69.018 77.7168 55.449 91.3778 55.449 108.231H55.45Z" fill="#32A37F"/>
<path d="M86.001 91.9618L17.156 22.9248C8.82399 24.6078 2.22499 31.0868 0.343994 39.3668L69.605 108.821C73.3592 107.96 76.8147 106.11 79.613 103.463C80.059 103.023 80.494 102.574 80.925 102.113C83.4884 99.2403 85.2404 95.7369 86.001 91.9628V91.9618Z" fill="url(#paint3_linear)"/>
<mask id="mask1" mask-type="alpha" maskUnits="userSpaceOnUse" x="16" y="28" width="49" height="74">
<path d="M16.973 28.0789H64.499V101.632H16.973V28.0789Z" fill="#C4C4C4"/>
</mask>
<g mask="url(#mask1)">
<g filter="url(#filter0_d)">
<path d="M32.956 109.188H23.293V44.478C23.293 43.4172 23.7144 42.3997 24.4645 41.6496C25.2147 40.8995 26.2321 40.478 27.293 40.478H64.017V50.189H32.956V109.188Z" fill="white"/>
</g>
<path d="M30.538 84.4228H25.707V44.9048C25.707 44.3744 25.9177 43.8656 26.2928 43.4906C26.6678 43.1155 27.1765 42.9048 27.707 42.9048H64.015V47.7608H30.538V84.4228Z" fill="url(#paint4_linear)"/>
</g>
<g filter="url(#filter1_d)">
<path d="M28.125 87.806C36.341 87.806 43.001 81.113 43.001 72.856C43.001 64.599 36.341 57.906 28.126 57.906C19.91 57.906 13.25 64.599 13.25 72.856C13.25 81.113 19.91 87.806 28.125 87.806Z" fill="url(#paint5_linear)"/>
</g>
<g filter="url(#filter2_i)">
<path d="M28.124 82.65C33.506 82.65 37.869 78.265 37.869 72.856C37.869 67.447 33.506 63.062 28.124 63.062C22.742 63.062 18.379 67.447 18.379 72.856C18.379 78.266 22.742 82.65 28.124 82.65Z" fill="#32A37F"/>
</g>
<path d="M84.87 20.7049C84.87 9.40492 75.422 0.24292 63.765 0.24292C52.108 0.24292 42.66 9.40492 42.66 20.7049C42.66 26.2969 44.974 31.3439 48.707 35.0499L64.221 50.0899L78.684 35.1669C82.504 31.4639 84.87 26.3489 84.87 20.7049Z" fill="url(#paint6_linear)"/>
<g filter="url(#filter3_d)">
<path d="M63.63 35.0749C71.351 35.0749 77.612 28.7739 77.612 20.9979C77.612 13.2229 71.352 6.9209 63.63 6.9209C55.909 6.9209 49.648 13.2229 49.648 20.9979C49.648 28.7739 55.908 35.0749 63.63 35.0749Z" fill="url(#paint7_linear)"/>
</g>
</g>
<defs>
<filter id="filter0_d" x="17.293" y="38.478" width="52.724" height="80.71" filterUnits="userSpaceOnUse" color-interpolation-filters="sRGB">
<feFlood flood-opacity="0" result="BackgroundImageFix"/>
<feColorMatrix in="SourceAlpha" type="matrix" values="0 0 0 0 0 0 0 0 0 0 0 0 0 0 0 0 0 0 127 0" result="hardAlpha"/>
<feOffset dy="4"/>
<feGaussianBlur stdDeviation="3"/>
<feColorMatrix type="matrix" values="0 0 0 0 0 0 0 0 0 0 0 0 0 0 0 0 0 0 0.15 0"/>
<feBlend mode="normal" in2="BackgroundImageFix" result="effect1_dropShadow"/>
<feBlend mode="normal" in="SourceGraphic" in2="effect1_dropShadow" result="shape"/>
</filter>
<filter id="filter1_d" x="5.25" y="54.906" width="45.751" height="45.9" filterUnits="userSpaceOnUse" color-interpolation-filters="sRGB">
<feFlood flood-opacity="0" result="BackgroundImageFix"/>
<feColorMatrix in="SourceAlpha" type="matrix" values="0 0 0 0 0 0 0 0 0 0 0 0 0 0 0 0 0 0 127 0" result="hardAlpha"/>
<feOffset dy="5"/>
<feGaussianBlur stdDeviation="4"/>
<feColorMatrix type="matrix" values="0 0 0 0 0 0 0 0 0 0 0 0 0 0 0 0 0 0 0.25 0"/>
<feBlend mode="normal" in2="BackgroundImageFix" result="effect1_dropShadow"/>
<feBlend mode="normal" in="SourceGraphic" in2="effect1_dropShadow" result="shape"/>
</filter>
<filter id="filter2_i" x="18.379" y="63.062" width="19.49" height="23.588" filterUnits="userSpaceOnUse" color-interpolation-filters="sRGB">
<feFlood flood-opacity="0" result="BackgroundImageFix"/>
<feBlend mode="normal" in="SourceGraphic" in2="BackgroundImageFix" result="shape"/>
<feColorMatrix in="SourceAlpha" type="matrix" values="0 0 0 0 0 0 0 0 0 0 0 0 0 0 0 0 0 0 127 0" result="hardAlpha"/>
<feOffset dy="4"/>
<feGaussianBlur stdDeviation="3"/>
<feComposite in2="hardAlpha" operator="arithmetic" k2="-1" k3="1"/>
<feColorMatrix type="matrix" values="0 0 0 0 0 0 0 0 0 0 0 0 0 0 0 0 0 0 0.25 0"/>
<feBlend mode="normal" in2="shape" result="effect1_innerShadow"/>
</filter>
<filter id="filter3_d" x="29.648" y="1.9209" width="67.964" height="68.154" filterUnits="userSpaceOnUse" color-interpolation-filters="sRGB">
<feFlood flood-opacity="0" result="BackgroundImageFix"/>
<feColorMatrix in="SourceAlpha" type="matrix" values="0 0 0 0 0 0 0 0 0 0 0 0 0 0 0 0 0 0 127 0" result="hardAlpha"/>
<feOffset dy="15"/>
<feGaussianBlur stdDeviation="10"/>
<feColorMatrix type="matrix" values="0 0 0 0 0.529167 0 0 0 0 0.34559 0 0 0 0 0.130087 0 0 0 0.2 0"/>
<feBlend mode="normal" in2="BackgroundImageFix" result="effect1_dropShadow"/>
<feBlend mode="normal" in="SourceGraphic" in2="effect1_dropShadow" result="shape"/>
</filter>
<linearGradient id="paint0_linear" x1="43" y1="109.188" x2="43" y2="22.7539" gradientUnits="userSpaceOnUse">
<stop offset="0.495" stop-color="#A2DD9A"/>
<stop offset="1" stop-color="#DDF2C2"/>
</linearGradient>
<linearGradient id="paint1_linear" x1="39.851" y1="109.189" x2="39.851" y2="29.084" gradientUnits="userSpaceOnUse">
<stop stop-color="#32A5D8"/>
<stop offset="1" stop-color="#7CCEF6"/>
</linearGradient>
<linearGradient id="paint2_linear" x1="63.936" y1="62.9048" x2="63.936" y2="109.616" gradientUnits="userSpaceOnUse">
<stop stop-color="white"/>
<stop offset="1" stop-color="#E6E6E6"/>
</linearGradient>
<linearGradient id="paint3_linear" x1="36.73" y1="75.3658" x2="54.058" y2="59.6688" gradientUnits="userSpaceOnUse">
<stop stop-color="#FFB24D"/>
<stop offset="1" stop-color="#FFDC7B"/>
</linearGradient>
<linearGradient id="paint4_linear" x1="42.032" y1="84.4228" x2="42.032" y2="42.9048" gradientUnits="userSpaceOnUse">
<stop stop-color="#32A37F"/>
<stop offset="1" stop-color="#A2DD9A"/>
</linearGradient>
<linearGradient id="paint5_linear" x1="28.125" y1="57.905" x2="28.125" y2="87.806" gradientUnits="userSpaceOnUse">
<stop stop-color="white"/>
<stop offset="1" stop-color="#E6E6E6"/>
</linearGradient>
<linearGradient id="paint6_linear" x1="63.765" y1="0.24292" x2="63.765" y2="50.0899" gradientUnits="userSpaceOnUse">
<stop stop-color="#FE652F"/>
<stop offset="1" stop-color="#FED02F"/>
</linearGradient>
<linearGradient id="paint7_linear" x1="63.63" y1="6.9209" x2="63.63" y2="35.0749" gradientUnits="userSpaceOnUse">
<stop stop-color="white"/>
<stop offset="1" stop-color="#E6E6E6"/>
</linearGradient>
</defs>
</svg>
