<svg width="161" height="162" viewBox="0 0 161 162" fill="none" xmlns="http://www.w3.org/2000/svg">
<path d="M80.003 161.098C124.188 161.098 160.007 125.035 160.007 80.549C160.007 36.063 124.188 0 80.003 0C35.82 0 0 36.063 0 80.55C0 125.035 35.819 161.098 80.003 161.098Z" fill="url(#paint0_linear)"/>
<path opacity="0.25" d="M80.004 142.304C113.879 142.304 141.34 114.656 141.34 80.5499C141.34 46.4439 113.879 18.7949 80.004 18.7949C46.129 18.7949 18.668 46.4439 18.668 80.5499C18.668 114.656 46.129 142.304 80.004 142.304Z" fill="url(#paint1_linear)"/>
<path d="M111.358 17.72H49.446C40.912 17.72 34 24.68 34 33.273V161.636H126.804V33.272C126.804 24.68 119.892 17.721 111.358 17.721V17.72Z" fill="white"/>
<path d="M109.696 20.9419H50.707C43.134 20.9419 37 27.1179 37 34.7429V161.635H123.404V34.7429C123.404 27.1179 117.27 20.9429 109.696 20.9429V20.9419Z" fill="url(#paint2_linear)"/>
<path d="M107.129 135.978H51.149V161.635H107.129V135.978Z" fill="#185A46"/>
<path d="M107.143 135.978H92.273V161.635H107.143V135.978Z" fill="url(#paint3_linear)"/>
<path d="M95.81 29.5341H64.725C62.123 29.5341 60 27.4081 60 24.7771V22.0171H100.535V24.7771C100.535 27.4081 98.423 29.5341 95.81 29.5341Z" fill="#C6D3DF"/>
<path d="M95.81 27.3869H64.725C62.123 27.3869 60 25.2599 60 22.6289V19.8689H100.535V22.6289C100.535 25.2599 98.423 27.3869 95.81 27.3869Z" fill="white"/>
<g filter="url(#filter0_dd)">
<path d="M79.868 111.694C100.782 111.694 117.737 94.6239 117.737 73.5679C117.737 52.5109 100.782 35.4409 79.868 35.4409C58.954 35.4409 42 52.5109 42 73.5679C42 94.6239 58.954 111.694 79.868 111.694Z" fill="url(#paint4_linear)"/>
</g>
<path d="M79.601 107.399C98.159 107.399 113.203 92.253 113.203 73.569C113.203 54.884 98.159 39.738 79.601 39.738C61.044 39.738 46 54.884 46 73.568C46 92.254 61.044 107.4 79.601 107.4V107.399Z" fill="url(#paint5_linear)"/>
<path d="M56.156 88.93H92.746L98.303 61.4141C98.4503 60.6714 98.8051 59.9856 99.3261 59.4363C99.8471 58.8869 100.513 58.4964 101.247 58.3101L105.205 57.3H93.343L89.385 58.3101C88.652 58.4981 87.9869 58.8891 87.4661 59.4382C86.9453 59.9872 86.59 60.6721 86.441 61.4141L80.883 88.93" stroke="#1E2848" stroke-miterlimit="10" stroke-linejoin="round"/>
<path d="M93.743 84.001H67.32L64.781 63.8521H97.807L93.743 84.001Z" fill="#0A7EE8"/>
<path d="M67.77 95.062C68.1045 95.0608 68.4354 94.9937 68.744 94.8646C69.0526 94.7355 69.3327 94.5469 69.5684 94.3096C69.804 94.0722 69.9907 93.7908 70.1176 93.4813C70.2445 93.1719 70.3092 92.8404 70.308 92.506C70.3092 92.1714 70.2444 91.8399 70.1175 91.5303C69.9905 91.2208 69.8038 90.9393 69.568 90.702C69.3322 90.4646 69.052 90.276 68.7433 90.147C68.4346 90.018 68.1036 89.951 67.769 89.95C67.4345 89.9511 67.1036 90.0182 66.795 90.1473C66.4864 90.2764 66.2063 90.465 65.9706 90.7023C65.735 90.9397 65.5483 91.2211 65.4214 91.5306C65.2945 91.84 65.2298 92.1715 65.231 92.506C65.2298 92.8404 65.2945 93.1719 65.4214 93.4813C65.5483 93.7908 65.735 94.0722 65.9706 94.3096C66.2063 94.5469 66.4864 94.7355 66.795 94.8646C67.1036 94.9937 67.4345 95.0608 67.769 95.062H67.77Z" fill="#95CA3C"/>
<path d="M67.88 93.0219H67.667C67.3577 93.0201 67.0618 92.8959 66.8439 92.6764C66.6259 92.457 66.5037 92.1602 66.504 91.8509V88.9299H69.043V91.8509C69.043 92.16 68.9207 92.4566 68.7028 92.6758C68.4849 92.895 68.1891 93.0191 67.88 93.0209V93.0219Z" fill="#1D2848"/>
<path d="M59.14 95.062C59.4746 95.061 59.8058 94.9942 60.1146 94.8652C60.4234 94.7362 60.7038 94.5477 60.9397 94.3103C61.1756 94.0729 61.3624 93.7914 61.4894 93.4818C61.6164 93.1722 61.6812 92.8406 61.68 92.506C61.6812 92.1713 61.6164 91.8397 61.4894 91.5301C61.3624 91.2205 61.1756 90.939 60.9397 90.7016C60.7038 90.4642 60.4234 90.2757 60.1146 90.1467C59.8058 90.0177 59.4746 89.9509 59.14 89.95C58.8055 89.9511 58.4746 90.0182 58.166 90.1473C57.8574 90.2764 57.5773 90.465 57.3416 90.7023C57.106 90.9397 56.9193 91.2211 56.7924 91.5306C56.6655 91.84 56.6008 92.1715 56.602 92.506C56.6008 92.8404 56.6655 93.1719 56.7924 93.4813C56.9193 93.7908 57.106 94.0722 57.3416 94.3096C57.5773 94.5469 57.8574 94.7355 58.166 94.8646C58.4746 94.9937 58.8055 95.0608 59.14 95.062Z" fill="#95CA3C"/>
<path d="M59.247 93.0219H59.034C58.7247 93.0201 58.4288 92.8959 58.2109 92.6764C57.9929 92.457 57.8707 92.1602 57.871 91.8509V88.9299H60.41V91.8509C60.42 92.4959 59.898 93.0209 59.247 93.0209V93.0219Z" fill="#1D2848"/>
<path d="M90.406 95.062C91.0816 95.0596 91.7286 94.789 92.2047 94.3097C92.6808 93.8303 92.9471 93.1816 92.945 92.506C92.9471 91.8304 92.6808 91.1816 92.2047 90.7023C91.7286 90.2229 91.0816 89.9523 90.406 89.95C90.0714 89.951 89.7404 90.018 89.4317 90.147C89.123 90.276 88.8428 90.4646 88.607 90.702C88.3712 90.9393 88.1845 91.2208 88.0575 91.5303C87.9306 91.8399 87.8658 92.1714 87.867 92.506C87.8649 93.1816 88.1311 93.8303 88.6073 94.3097C89.0834 94.789 89.7304 95.0596 90.406 95.062Z" fill="#95CA3C"/>
<path d="M90.517 93.0219H90.303C89.9939 93.0198 89.6982 92.8955 89.4805 92.6761C89.2628 92.4567 89.1407 92.16 89.141 91.8509V88.9299H91.679V91.8509C91.679 92.1599 91.5568 92.4562 91.3391 92.6754C91.1215 92.8946 90.8259 93.0188 90.517 93.0209V93.0219Z" fill="#1D2848"/>
<path d="M81.793 95.062C82.4686 95.0596 83.1156 94.789 83.5917 94.3097C84.0678 93.8303 84.3341 93.1816 84.332 92.506C84.3331 92.1713 84.2682 91.8398 84.1411 91.5303C84.014 91.2207 83.8272 90.9392 83.5914 90.7019C83.3555 90.4645 83.0752 90.276 82.7665 90.147C82.4577 90.0179 82.1266 89.951 81.792 89.95C81.4575 89.9511 81.1266 90.0182 80.818 90.1473C80.5094 90.2764 80.2293 90.465 79.9936 90.7023C79.758 90.9397 79.5713 91.2211 79.4444 91.5306C79.3175 91.84 79.2528 92.1715 79.254 92.506C79.2519 93.1816 79.5182 93.8303 79.9943 94.3097C80.4704 94.789 81.1174 95.0596 81.793 95.062Z" fill="#95CA3C"/>
<path d="M81.884 93.0219H81.671C81.3617 93.0201 81.0658 92.8959 80.8479 92.6764C80.6299 92.457 80.5077 92.1602 80.508 91.8509V88.9299H83.047V91.8509C83.057 92.4959 82.535 93.0209 81.884 93.0209V93.0219ZM73.381 64.4639L69.306 60.3609C68.9772 60.0292 68.5859 59.7659 68.1547 59.5862C67.7236 59.4065 67.2611 59.314 66.794 59.314C66.3269 59.314 65.8644 59.4065 65.4333 59.5862C65.0021 59.7659 64.6108 60.0292 64.282 60.3609L60.207 64.4639" fill="#1D2848"/>
<path d="M81.724 65.4311L78.246 61.9301C77.9654 61.6468 77.6314 61.422 77.2635 61.2686C76.8955 61.1151 76.5007 61.0361 76.102 61.0361C75.7033 61.0361 75.3085 61.1151 74.9406 61.2686C74.5726 61.422 74.2386 61.6468 73.958 61.9301L70.481 65.4311" fill="#1DAE50"/>
<path d="M96.73 63.8521H64.781L67.321 83.99H94.821L98.885 63.8531H96.73V63.8521Z" fill="url(#paint6_linear)"/>
<path d="M96.594 69.627L96.807 68.564L96.594 69.627ZM67.671 68.681C67.735 69.218 68.194 69.626 68.738 69.626H93.508C94.02 69.626 94.458 69.261 94.564 68.756C94.5969 68.599 94.5943 68.4367 94.5565 68.2808C94.5187 68.125 94.4466 67.9795 94.3454 67.855C94.2442 67.7306 94.1165 67.6303 93.9717 67.5614C93.8268 67.4926 93.6684 67.4569 93.508 67.457H68.738C68.098 67.457 67.597 68.037 67.671 68.681ZM69.307 75.011H92.477C92.988 75.011 93.426 74.646 93.532 74.141C93.5651 73.984 93.5626 73.8215 93.5249 73.6655C93.4871 73.5095 93.415 73.3639 93.3138 73.2393C93.2126 73.1148 93.0849 73.0144 92.94 72.9455C92.795 72.8765 92.6365 72.8409 92.476 72.841H69.306C68.656 72.841 68.155 73.411 68.24 74.066C68.304 74.603 68.763 75.011 69.307 75.011ZM95.7 74.28L95.998 72.841L95.699 74.281L95.7 74.28ZM66.531 77.727L66.798 79.897L66.531 77.727ZM68.861 78.941C68.925 79.478 69.384 79.886 69.928 79.886H91.487C91.999 79.886 92.436 79.521 92.543 79.016C92.5761 78.859 92.5736 78.6965 92.5359 78.5405C92.4981 78.3845 92.426 78.2389 92.3248 78.1143C92.2236 77.9898 92.0959 77.8894 91.951 77.8204C91.806 77.7515 91.6475 77.7159 91.487 77.716H69.927C69.277 77.728 68.776 78.296 68.861 78.941ZM94.563 79.897L95 77.727L94.562 79.897H94.563Z" fill="#76E17A"/>
<path d="M54 63.8521L56.539 84.001H67.323L64.785 63.8521H54Z" fill="url(#paint7_linear)"/>
<path d="M62.168 67.9551H57.912C57.262 67.9551 56.76 68.5241 56.845 69.1791C56.909 69.7161 57.368 70.1241 57.912 70.1241H62.168C62.819 70.1241 63.321 69.5541 63.235 68.9001C63.2032 68.6395 63.0772 68.3994 62.8806 68.2253C62.6841 68.0513 62.4306 67.9551 62.168 67.9551ZM65.574 70.1241L65.297 67.9541L65.574 70.1241ZM62.786 72.8421H58.529C57.879 72.8421 57.377 73.4111 57.463 74.0661C57.527 74.6031 57.985 75.0111 58.529 75.0111H62.786C63.436 75.0111 63.938 74.4411 63.852 73.7871C63.8203 73.5266 63.6944 73.2867 63.498 73.1127C63.3016 72.9386 63.0484 72.8424 62.786 72.8421ZM66.18 75.0101L65.914 72.8411L66.181 75.0111L66.18 75.0101ZM64.477 78.6731C64.4453 78.4126 64.3194 78.1727 64.123 77.9987C63.9266 77.8246 63.6734 77.7284 63.411 77.7281H59.154C58.504 77.7281 58.002 78.2971 58.088 78.9521C58.152 79.4891 58.61 79.8971 59.154 79.8971H63.411C64.061 79.8971 64.563 79.3171 64.477 78.6731ZM55.75 77.7281L56.027 79.8981L55.75 77.7281Z" fill="#3AB46C"/>
<path d="M91.135 63.8521C90.325 60.8341 87.593 58.6001 84.329 58.6001C81.065 58.6001 78.334 60.8231 77.523 63.8521H91.135Z" fill="#97CA3C"/>
<path d="M40 119.75H0.529999V161.635H40V119.75Z" fill="#033C1A"/>
<path d="M60.27 119.75H20.8V161.635H60.27V119.75Z" fill="url(#paint8_linear)"/>
<path d="M20.799 161.635H0.529999V119.75L10.664 122.972L20.798 119.75V161.635H20.799Z" fill="#148B44"/>
<path d="M158.684 126.193H106.352V161.635H158.684V126.193Z" fill="#148D46"/>
<path d="M158.693 126.193H138.426V161.635H158.693V126.193Z" fill="url(#paint9_linear)"/>
<path opacity="0.25" d="M50.67 128.341V140.692C50.67 146.921 46.136 151.969 40.536 151.969C34.936 151.969 30.402 146.921 30.402 140.692V128.341" stroke="#3E4044" stroke-miterlimit="10"/>
<path d="M30.399 130.489C30.6802 130.488 30.9584 130.431 31.2177 130.323C31.4771 130.214 31.7125 130.056 31.9106 129.856C32.1086 129.657 32.2655 129.42 32.3721 129.16C32.4787 128.9 32.5331 128.621 32.532 128.34C32.5339 127.772 32.3102 127.227 31.9102 126.824C31.5102 126.421 30.9667 126.194 30.399 126.192C29.8313 126.194 29.2878 126.421 28.8878 126.824C28.4878 127.227 28.2641 127.772 28.266 128.34C28.266 129.527 29.221 130.489 30.399 130.489ZM50.672 130.489C50.9532 130.488 51.2316 130.432 51.491 130.323C51.7505 130.215 51.9861 130.056 52.1842 129.857C52.3824 129.657 52.5393 129.42 52.646 129.16C52.7527 128.9 52.8071 128.621 52.806 128.34C52.8079 127.772 52.5842 127.227 52.1842 126.824C51.7842 126.421 51.2407 126.194 50.673 126.192C50.3918 126.193 50.1135 126.249 49.8541 126.357C49.5946 126.466 49.359 126.624 49.1608 126.824C48.9627 127.023 48.8057 127.26 48.699 127.52C48.5923 127.78 48.538 128.059 48.539 128.34C48.539 129.527 49.494 130.489 50.672 130.489Z" fill="#3E4044"/>
<path d="M51.021 128.341L56.227 140.692C58.851 146.921 56.44 151.969 50.851 151.969C45.251 151.969 38.584 146.921 35.959 140.692L30.754 128.341" stroke="#383A3E" stroke-miterlimit="10"/>
<path opacity="0.25" d="M11.198 122.972V157.34L0.531006 161.635V119.75L11.198 122.972Z" fill="#1D2848"/>
<path d="M137.316 116.528C134.66 116.528 132.516 118.686 132.516 121.361V126.193H137.316C139.972 126.193 142.116 124.035 142.116 121.361C142.116 118.686 139.972 116.528 137.316 116.528Z" stroke="#3E4044" stroke-miterlimit="10"/>
<path d="M127.718 116.528C130.374 116.528 132.518 118.686 132.518 121.361V126.193H127.718C125.062 126.193 122.918 124.035 122.918 121.361C122.918 118.686 125.073 116.528 127.718 116.528Z" stroke="#3E4044" stroke-miterlimit="10"/>
<path d="M110.405 132.637H60.269V136.933H110.405V132.637Z" fill="#2A7C03"/>
<path d="M92 132.9H56V136.928H92V132.9Z" fill="#091A2E"/>
<defs>
<filter id="filter0_dd" x="22" y="33.4409" width="115.737" height="118.253" filterUnits="userSpaceOnUse" color-interpolation-filters="sRGB">
<feFlood flood-opacity="0" result="BackgroundImageFix"/>
<feColorMatrix in="SourceAlpha" type="matrix" values="0 0 0 0 0 0 0 0 0 0 0 0 0 0 0 0 0 0 127 0" result="hardAlpha"/>
<feOffset dy="20"/>
<feGaussianBlur stdDeviation="10"/>
<feColorMatrix type="matrix" values="0 0 0 0 0.0527778 0 0 0 0 0.172727 0 0 0 0 0.316667 0 0 0 0.15 0"/>
<feBlend mode="normal" in2="BackgroundImageFix" result="effect1_dropShadow"/>
<feColorMatrix in="SourceAlpha" type="matrix" values="0 0 0 0 0 0 0 0 0 0 0 0 0 0 0 0 0 0 127 0" result="hardAlpha"/>
<feOffset dy="4"/>
<feGaussianBlur stdDeviation="3"/>
<feColorMatrix type="matrix" values="0 0 0 0 0.0509804 0 0 0 0 0.172549 0 0 0 0 0.317647 0 0 0 0.05 0"/>
<feBlend mode="normal" in2="effect1_dropShadow" result="effect2_dropShadow"/>
<feBlend mode="normal" in="SourceGraphic" in2="effect2_dropShadow" result="shape"/>
</filter>
<linearGradient id="paint0_linear" x1="80.004" y1="161.098" x2="80.004" y2="0" gradientUnits="userSpaceOnUse">
<stop stop-color="#5EB155"/>
<stop offset="1" stop-color="#FFFA81"/>
</linearGradient>
<linearGradient id="paint1_linear" x1="80.005" y1="142.304" x2="80.005" y2="18.7949" gradientUnits="userSpaceOnUse">
<stop stop-color="#32A37F" stop-opacity="0"/>
<stop offset="1" stop-color="#0A6259"/>
</linearGradient>
<linearGradient id="paint2_linear" x1="80.202" y1="20.9419" x2="80.202" y2="161.635" gradientUnits="userSpaceOnUse">
<stop offset="0.245" stop-color="#E2EAF1"/>
<stop offset="1" stop-color="#AFC5D8" stop-opacity="0"/>
</linearGradient>
<linearGradient id="paint3_linear" x1="99.708" y1="135.978" x2="99.708" y2="161.635" gradientUnits="userSpaceOnUse">
<stop stop-color="#BAE956"/>
<stop offset="1" stop-color="#15AB51"/>
</linearGradient>
<linearGradient id="paint4_linear" x1="79.868" y1="35.4409" x2="79.868" y2="111.694" gradientUnits="userSpaceOnUse">
<stop stop-color="white"/>
<stop offset="1" stop-color="#E5EBF5"/>
</linearGradient>
<linearGradient id="paint5_linear" x1="79.601" y1="39.738" x2="79.601" y2="107.399" gradientUnits="userSpaceOnUse">
<stop stop-color="#E5EBF5"/>
<stop offset="1" stop-color="white"/>
</linearGradient>
<linearGradient id="paint6_linear" x1="81.833" y1="63.8521" x2="81.833" y2="83.99" gradientUnits="userSpaceOnUse">
<stop stop-color="#15AB51"/>
<stop offset="1" stop-color="#9DCB3A"/>
</linearGradient>
<linearGradient id="paint7_linear" x1="60.662" y1="63.8521" x2="60.662" y2="84.001" gradientUnits="userSpaceOnUse">
<stop stop-color="#138942"/>
<stop offset="0.679" stop-color="#179850"/>
<stop offset="1" stop-color="#199F57"/>
</linearGradient>
<linearGradient id="paint8_linear" x1="40.535" y1="119.75" x2="40.535" y2="161.635" gradientUnits="userSpaceOnUse">
<stop stop-color="#BAE956"/>
<stop offset="1" stop-color="#15AB51"/>
</linearGradient>
<linearGradient id="paint9_linear" x1="148.56" y1="126.193" x2="148.56" y2="161.635" gradientUnits="userSpaceOnUse">
<stop stop-color="#BAE956"/>
<stop offset="1" stop-color="#15AB51"/>
</linearGradient>
</defs>
</svg>
