<svg width="164" height="161" viewBox="0 0 164 161" fill="none" xmlns="http://www.w3.org/2000/svg">
<path d="M83.9367 150.875C125.448 150.875 159.101 117.212 159.101 75.6875C159.101 34.1629 125.448 0.5 83.9367 0.5C42.425 0.5 8.77248 34.1629 8.77248 75.6875C8.77248 117.212 42.425 150.875 83.9367 150.875Z" fill="url(#paint0_linear)"/>
<path d="M83.4356 133.832C115.261 133.832 141.062 108.024 141.062 76.1887C141.062 44.3533 115.261 18.5449 83.4356 18.5449C51.6101 18.5449 25.8097 44.3533 25.8097 76.1887C25.8097 108.024 51.6101 133.832 83.4356 133.832Z" fill="url(#paint1_linear)"/>
<path d="M34.0778 109.301H23.1038V145.341H34.0778V109.301Z" fill="white"/>
<path d="M41.5742 109.301H34.0778V145.341H41.5742V109.301Z" fill="url(#paint2_linear)"/>
<path d="M117.647 97.2612H95.1683V156.75H117.647V97.2612Z" fill="white"/>
<path d="M133.001 97.2612H117.647V156.75H133.001V97.2612Z" fill="url(#paint3_linear)"/>
<path d="M131.09 33.392L101.776 43.2165C100.343 43.6977 98.7992 42.9258 98.3181 41.4922L97.2358 38.2541L124.445 29.1314C126.66 28.3895 129.095 28.8206 130.919 30.2843L131.551 30.7855C132.483 31.5374 132.222 33.0111 131.09 33.392Z" fill="#082A3F"/>
<path d="M108.662 24.2593C108.465 24.3251 108.285 24.4314 108.132 24.5712C107.979 24.711 107.857 24.8813 107.774 25.0712C107.691 25.261 107.649 25.4661 107.65 25.6734C107.651 25.8806 107.695 26.0853 107.78 26.2743L111.087 33.6227L118.864 31.0162L110.015 24.4799C109.624 24.1891 109.123 24.1089 108.662 24.2593ZM116.749 48.3795C115.918 48.6602 115.026 48.1589 114.835 47.3068L113.051 39.4472L120.828 36.8407L117.712 47.397C117.561 47.8582 117.2 48.2191 116.749 48.3795ZM97.2759 34.555C97.6066 34.4447 97.9674 34.4848 98.268 34.6552L101.816 36.7304L97.2458 38.2642L96.5142 36.0788C96.3038 35.4472 96.6445 34.7655 97.2759 34.555Z" fill="#082A3F"/>
<path d="M1.63588 70.8957L24.4658 62.8155L47.3357 54.8256C54.9524 52.159 62.539 49.382 70.2358 46.9359C77.9426 44.54 85.6495 42.1139 93.4866 40.0889L93.5467 40.2793C86.0804 43.3871 78.4638 46.0938 70.8772 48.8307C63.2605 51.5174 55.5437 53.8732 47.8569 56.3394L24.7965 63.7579L1.70603 71.0761L1.63588 70.8957ZM1.63588 75.9082L24.4658 67.828L47.3357 59.8381C54.9524 57.1715 62.539 54.3945 70.2358 51.9484C77.9426 49.5525 85.6495 47.1264 93.4866 45.1014L93.5467 45.2918C86.0804 48.3996 78.4638 51.1063 70.8772 53.8432C63.2605 56.5299 55.5437 58.8857 47.8569 61.3519L24.7965 68.7704L1.70603 76.0886L1.63588 75.9082Z" fill="white"/>
<path d="M125.027 30.575C125.027 30.575 128.534 29.0713 129.536 31.0763L125.528 32.0788L125.027 30.575Z" fill="#4094D3"/>
<path d="M131.09 33.392L101.776 43.2165C100.343 43.6977 98.7992 42.9258 98.3181 41.4922L97.2358 38.2541L124.445 29.1314C126.66 28.3895 129.095 28.8206 130.919 30.2843L131.551 30.7855C132.483 31.5374 132.222 33.0111 131.09 33.392Z" fill="#082A3F"/>
<path d="M130.549 29.7931L129.917 29.2918C129.021 28.5724 127.959 28.0898 126.827 27.8884C125.696 27.6869 124.532 27.7731 123.443 28.1389L96.2336 37.2617L97.3159 40.4998C97.5468 41.1864 98.0404 41.7535 98.6885 42.0767C99.3366 42.3999 100.086 42.4529 100.774 42.2241L130.088 32.3996C131.22 32.0086 131.481 30.5349 130.549 29.7931Z" fill="url(#paint4_linear)"/>
<path d="M72.6019 73.8228H39.5698V156.92H72.6019V73.8228Z" fill="white"/>
<path d="M95.1713 73.8228H72.612V156.92H95.1713V73.8228Z" fill="url(#paint5_linear)"/>
<path d="M146.713 103.106H131.259V151.878H146.713V103.106Z" fill="white"/>
<path d="M157.268 103.106H146.715V151.878H157.268V103.106Z" fill="url(#paint6_linear)"/>
<path d="M25.8298 108.94H5.69576V157.712H25.8298V108.94Z" fill="white"/>
<path d="M39.5798 108.94H25.8297V157.712H39.5798V108.94Z" fill="url(#paint7_linear)"/>
<g opacity="0.75">
<path opacity="0.75" d="M50.9146 82.9658H46.1742V93.4921H50.9146V82.9658Z" fill="url(#paint8_linear)"/>
<path opacity="0.75" d="M63.4419 82.9658H58.7016V93.4921H63.4419V82.9658Z" fill="url(#paint9_linear)"/>
</g>
<g opacity="0.75">
<path opacity="0.75" d="M50.9146 100.52H46.1742V111.046H50.9146V100.52Z" fill="url(#paint10_linear)"/>
<path opacity="0.75" d="M63.4419 100.52H58.7016V111.046H63.4419V100.52Z" fill="url(#paint11_linear)"/>
</g>
<g opacity="0.75">
<path opacity="0.75" d="M50.9146 118.063H46.1742V128.589H50.9146V118.063Z" fill="url(#paint12_linear)"/>
<path opacity="0.75" d="M63.4419 118.063H58.7016V128.589H63.4419V118.063Z" fill="url(#paint13_linear)"/>
</g>
<g opacity="0.75">
<path opacity="0.75" d="M50.9146 135.607H46.1742V146.133H50.9146V135.607Z" fill="url(#paint14_linear)"/>
<path opacity="0.75" d="M63.4419 135.607H58.7016V146.133H63.4419V135.607Z" fill="url(#paint15_linear)"/>
</g>
<g opacity="0.5">
<path opacity="0.5" d="M113.811 104.309H108.69V109.432H113.811V104.309Z" fill="url(#paint16_linear)"/>
<path opacity="0.5" d="M113.811 118.154H108.69V123.277H113.811V118.154Z" fill="url(#paint17_linear)"/>
</g>
<g opacity="0.5">
<path opacity="0.5" d="M104.13 104.309H99.0087V109.432H104.13V104.309Z" fill="url(#paint18_linear)"/>
<path opacity="0.5" d="M104.13 118.154H99.0087V123.277H104.13V118.154Z" fill="url(#paint19_linear)"/>
</g>
<g opacity="0.75">
<path opacity="0.25" d="M18.3213 117.833H13.2001V122.955H18.3213V117.833Z" fill="url(#paint20_linear)"/>
<path opacity="0.25" d="M18.3213 132.68H13.2001V137.802H18.3213V132.68Z" fill="url(#paint21_linear)"/>
<path opacity="0.25" d="M18.3213 146.143H13.2001V151.266H18.3213V146.143Z" fill="url(#paint22_linear)"/>
</g>
<path d="M141.781 109.211H137.041V117.371H141.781V109.211Z" fill="url(#paint23_linear)"/>
<path d="M141.781 123.667H137.041V131.827H141.781V123.667Z" fill="url(#paint24_linear)"/>
<path d="M141.781 138.123H137.041V146.283H141.781V138.123Z" fill="url(#paint25_linear)"/>
<path d="M102.908 120.95H77.9236V160.499H102.908V120.95Z" fill="white"/>
<path d="M119.965 120.95H102.908V160.499H119.965V120.95Z" fill="url(#paint26_linear)"/>
<g opacity="0.5">
<path opacity="0.5" d="M92.9765 130.484H87.8553V135.607H92.9765V130.484Z" fill="url(#paint27_linear)"/>
<path opacity="0.5" d="M92.9765 145.332H87.8553V150.454H92.9765V145.332Z" fill="url(#paint28_linear)"/>
</g>
<path d="M163.501 129.822H0.500397V163.907H163.501V129.822Z" fill="url(#paint29_linear)"/>
<defs>
<linearGradient id="paint0_linear" x1="83.9367" y1="0.5" x2="83.9367" y2="150.875" gradientUnits="userSpaceOnUse">
<stop stop-color="#CFEBFF"/>
<stop offset="1" stop-color="#81BBFF"/>
</linearGradient>
<linearGradient id="paint1_linear" x1="83.4356" y1="18.5449" x2="83.4356" y2="133.832" gradientUnits="userSpaceOnUse">
<stop stop-color="#81BBFF"/>
<stop offset="1" stop-color="#CFEBFF"/>
</linearGradient>
<linearGradient id="paint2_linear" x1="37.83" y1="145.336" x2="37.83" y2="109.3" gradientUnits="userSpaceOnUse">
<stop stop-color="white"/>
<stop offset="0.88" stop-color="#80B1D3"/>
</linearGradient>
<linearGradient id="paint3_linear" x1="125.324" y1="97.2612" x2="125.324" y2="156.75" gradientUnits="userSpaceOnUse">
<stop stop-color="#5D9AE0"/>
<stop offset="0.626" stop-color="#C3D9F3"/>
<stop offset="1" stop-color="white"/>
</linearGradient>
<linearGradient id="paint4_linear" x1="113.68" y1="42.3574" x2="113.68" y2="27.782" gradientUnits="userSpaceOnUse">
<stop stop-color="#EBEFF7"/>
<stop offset="1" stop-color="white"/>
</linearGradient>
<linearGradient id="paint5_linear" x1="83.8906" y1="73.8228" x2="83.8906" y2="156.92" gradientUnits="userSpaceOnUse">
<stop stop-color="#5D9AE0"/>
<stop offset="0.626" stop-color="#C3D9F3"/>
<stop offset="1" stop-color="white"/>
</linearGradient>
<linearGradient id="paint6_linear" x1="151.991" y1="103.106" x2="151.991" y2="151.878" gradientUnits="userSpaceOnUse">
<stop stop-color="#5D9AE0"/>
<stop offset="0.626" stop-color="#C3D9F3"/>
<stop offset="1" stop-color="white"/>
</linearGradient>
<linearGradient id="paint7_linear" x1="32.7048" y1="108.94" x2="32.7048" y2="157.712" gradientUnits="userSpaceOnUse">
<stop stop-color="#5D9AE0"/>
<stop offset="0.626" stop-color="#C3D9F3"/>
<stop offset="1" stop-color="white"/>
</linearGradient>
<linearGradient id="paint8_linear" x1="48.5424" y1="93.4981" x2="48.5424" y2="82.9688" gradientUnits="userSpaceOnUse">
<stop stop-color="white"/>
<stop offset="0.996" stop-color="#799EC6"/>
</linearGradient>
<linearGradient id="paint9_linear" x1="61.0758" y1="93.4981" x2="61.0758" y2="82.9688" gradientUnits="userSpaceOnUse">
<stop stop-color="white"/>
<stop offset="0.996" stop-color="#799EC6"/>
</linearGradient>
<linearGradient id="paint10_linear" x1="48.5424" y1="111.045" x2="48.5424" y2="100.516" gradientUnits="userSpaceOnUse">
<stop stop-color="white"/>
<stop offset="0.996" stop-color="#799EC6"/>
</linearGradient>
<linearGradient id="paint11_linear" x1="61.0758" y1="111.045" x2="61.0758" y2="100.516" gradientUnits="userSpaceOnUse">
<stop stop-color="white"/>
<stop offset="0.996" stop-color="#799EC6"/>
</linearGradient>
<linearGradient id="paint12_linear" x1="48.5424" y1="128.591" x2="48.5424" y2="118.062" gradientUnits="userSpaceOnUse">
<stop stop-color="white"/>
<stop offset="0.996" stop-color="#799EC6"/>
</linearGradient>
<linearGradient id="paint13_linear" x1="61.0758" y1="128.591" x2="61.0758" y2="118.062" gradientUnits="userSpaceOnUse">
<stop stop-color="white"/>
<stop offset="0.996" stop-color="#799EC6"/>
</linearGradient>
<linearGradient id="paint14_linear" x1="48.5424" y1="146.138" x2="48.5424" y2="135.609" gradientUnits="userSpaceOnUse">
<stop stop-color="white"/>
<stop offset="0.996" stop-color="#799EC6"/>
</linearGradient>
<linearGradient id="paint15_linear" x1="61.0758" y1="146.138" x2="61.0758" y2="135.609" gradientUnits="userSpaceOnUse">
<stop stop-color="white"/>
<stop offset="0.996" stop-color="#799EC6"/>
</linearGradient>
<linearGradient id="paint16_linear" x1="111.253" y1="109.432" x2="111.253" y2="104.31" gradientUnits="userSpaceOnUse">
<stop stop-color="white"/>
<stop offset="0.996" stop-color="#799EC6"/>
</linearGradient>
<linearGradient id="paint17_linear" x1="111.253" y1="123.278" x2="111.253" y2="118.156" gradientUnits="userSpaceOnUse">
<stop stop-color="white"/>
<stop offset="0.996" stop-color="#799EC6"/>
</linearGradient>
<linearGradient id="paint18_linear" x1="101.571" y1="109.432" x2="101.571" y2="104.31" gradientUnits="userSpaceOnUse">
<stop stop-color="white"/>
<stop offset="0.996" stop-color="#799EC6"/>
</linearGradient>
<linearGradient id="paint19_linear" x1="101.571" y1="123.278" x2="101.571" y2="118.156" gradientUnits="userSpaceOnUse">
<stop stop-color="white"/>
<stop offset="0.996" stop-color="#799EC6"/>
</linearGradient>
<linearGradient id="paint20_linear" x1="15.7607" y1="122.954" x2="15.7607" y2="117.833" gradientUnits="userSpaceOnUse">
<stop stop-color="white"/>
<stop offset="0.996" stop-color="#799EC6"/>
</linearGradient>
<linearGradient id="paint21_linear" x1="15.7607" y1="137.802" x2="15.7607" y2="132.681" gradientUnits="userSpaceOnUse">
<stop stop-color="white"/>
<stop offset="0.996" stop-color="#799EC6"/>
</linearGradient>
<linearGradient id="paint22_linear" x1="15.7607" y1="151.261" x2="15.7607" y2="146.139" gradientUnits="userSpaceOnUse">
<stop stop-color="white"/>
<stop offset="0.996" stop-color="#799EC6"/>
</linearGradient>
<linearGradient id="paint23_linear" x1="139.414" y1="117.371" x2="139.414" y2="109.213" gradientUnits="userSpaceOnUse">
<stop stop-color="white"/>
<stop offset="0.996" stop-color="#799EC6"/>
</linearGradient>
<linearGradient id="paint24_linear" x1="139.414" y1="131.827" x2="139.414" y2="123.669" gradientUnits="userSpaceOnUse">
<stop stop-color="white"/>
<stop offset="0.996" stop-color="#799EC6"/>
</linearGradient>
<linearGradient id="paint25_linear" x1="139.414" y1="146.283" x2="139.414" y2="138.125" gradientUnits="userSpaceOnUse">
<stop stop-color="white"/>
<stop offset="0.996" stop-color="#799EC6"/>
</linearGradient>
<linearGradient id="paint26_linear" x1="111.437" y1="120.95" x2="111.437" y2="160.499" gradientUnits="userSpaceOnUse">
<stop stop-color="#5D9AE0"/>
<stop offset="0.626" stop-color="#C3D9F3"/>
<stop offset="1" stop-color="white"/>
</linearGradient>
<linearGradient id="paint27_linear" x1="90.4149" y1="135.61" x2="90.4149" y2="130.488" gradientUnits="userSpaceOnUse">
<stop stop-color="white"/>
<stop offset="0.996" stop-color="#799EC6"/>
</linearGradient>
<linearGradient id="paint28_linear" x1="90.4149" y1="150.458" x2="90.4149" y2="145.337" gradientUnits="userSpaceOnUse">
<stop stop-color="white"/>
<stop offset="0.996" stop-color="#799EC6"/>
</linearGradient>
<linearGradient id="paint29_linear" x1="82" y1="163.907" x2="82" y2="129.822" gradientUnits="userSpaceOnUse">
<stop stop-color="#FBFCF5"/>
<stop offset="1" stop-color="#FBFCF5" stop-opacity="0"/>
</linearGradient>
</defs>
</svg>
