<svg width="164" height="168" viewBox="0 0 164 168" fill="none" xmlns="http://www.w3.org/2000/svg">
<path d="M81.693 78.04L7.573 103.98C7.533 103.7 7.503 103.41 7.453 103.13C12.653 139.48 43.893 167.42 81.683 167.42C119.173 167.42 150.233 139.91 155.793 103.98L81.693 78.04Z" fill="url(#paint0_linear)"/>
<path d="M6.69098 92.4199C6.69098 50.9999 40.271 17.4199 81.691 17.4199C40.261 17.4199 6.69098 50.9999 6.69098 92.4199Z" fill="url(#paint1_linear)"/>
<path d="M6.84002 97.0099C6.82002 96.6299 6.79002 96.2599 6.77002 95.8799C6.79002 96.2599 6.82002 96.6399 6.84002 97.0099Z" fill="url(#paint2_linear)"/>
<path d="M156.531 97.0101C156.551 96.6401 156.581 96.2701 156.591 95.8901C156.581 96.2601 156.561 96.6301 156.531 97.0101Z" fill="url(#paint3_linear)"/>
<path d="M7.14002 100.6C7.09002 100.18 7.06002 99.7701 7.02002 99.3501C7.05002 99.7701 7.09002 100.18 7.14002 100.6Z" fill="url(#paint4_linear)"/>
<path d="M156.23 100.6L156.35 99.3599C156.32 99.7699 156.28 100.18 156.23 100.6Z" fill="url(#paint5_linear)"/>
<path d="M155.801 103.98C155.841 103.7 155.871 103.42 155.911 103.13C155.871 103.42 155.841 103.7 155.801 103.98Z" fill="url(#paint6_linear)"/>
<path d="M81.691 17.4199C40.271 17.4199 6.69098 50.9999 6.69098 92.4199C6.69098 96.3499 7.00098 100.21 7.58098 103.98L81.691 78.0399L155.801 103.98C156.381 100.21 156.691 96.3499 156.691 92.4199C156.691 50.9999 123.111 17.4199 81.691 17.4199Z" fill="#BDE8FD"/>
<path d="M24.558 76.0398L59.648 63.2398L47.578 59.0098L12.488 71.8198L24.558 76.0398Z" fill="#C1E4FC"/>
<path d="M12.488 71.8198V86.8398L24.558 91.0598V76.0398L12.488 71.8198Z" fill="#53C1F9"/>
<path d="M59.649 63.2402V78.2602L24.559 91.0602V76.0402L59.649 63.2402Z" fill="#94D9F7"/>
<path d="M49.96 45.65L76.07 36.12L67.09 32.98L40.98 42.51L49.96 45.65Z" fill="#E1F3FF"/>
<path d="M40.98 42.5098V53.6898L49.96 56.8298V45.6498L40.98 42.5098Z" fill="#53C1F9"/>
<path d="M76.07 36.1201V47.3001L49.96 56.8301V45.6501L76.07 36.1201Z" fill="#94D9F7"/>
<path d="M0 106.63V119.29L81.69 90.7L163.37 119.29V106.63L81.69 78.04L0 106.63Z" fill="#001A77"/>
<path fill-rule="evenodd" clip-rule="evenodd" d="M30.77 129.19L30.786 129.194L30.769 129.2L100.85 153.44C107.042 155.579 113.548 156.671 120.1 156.67H137.23L150.69 142.55C150.543 140.672 149.531 140.868 148.107 141.144C147.281 141.304 146.316 141.492 145.301 141.315L144.838 141.209C144.765 141.188 144.692 141.165 144.62 141.14L70.19 115.4L55.164 120.66L30.769 115.07V129.19H30.77Z" fill="url(#paint7_linear)"/>
<path d="M144.62 127.02L70.19 101.28L30.77 115.08L100.85 139.32C107.043 141.459 113.548 142.551 120.1 142.55H150.69L150.03 134.04C149.913 132.469 149.339 130.967 148.377 129.719C147.416 128.471 146.109 127.533 144.62 127.02ZM56.56 95.7301L87.43 84.8601L70.63 79.0801L39.75 89.9501L56.56 95.7301Z" fill="#E1F3FF"/>
<path d="M39.75 89.9502V115.62L56.56 121.39V95.7302L39.75 89.9502Z" fill="#001D9B"/>
<path d="M87.429 84.8599V110.53L56.559 121.39V95.7299L87.429 84.8599Z" fill="#53C1F9"/>
<path d="M85.409 100.84L100.359 95.6301L92.579 92.9102L77.629 98.1202L85.409 100.84Z" fill="#E1F3FF"/>
<path d="M77.629 98.1201V117.8L85.409 120.53V100.84L77.629 98.1201Z" fill="#001D9B"/>
<path d="M100.36 95.6299V115.31L85.41 120.53V100.84L100.36 95.6299Z" fill="#53C1F9"/>
<path d="M100.359 105.42L85.409 110.63L77.629 107.91" stroke="#231F20" stroke-miterlimit="10"/>
<path d="M69.25 106.49L84.2 101.27L76.43 98.5498L61.48 103.77L69.25 106.49Z" fill="#E1F3FF"/>
<path d="M61.48 103.77V123.45L69.25 126.17V106.49L61.48 103.77Z" fill="#001D9B"/>
<path d="M84.2 101.27V120.96L69.25 126.17V106.49L84.2 101.27Z" fill="#53C1F9"/>
<path d="M84.2 111.11L69.25 116.33L61.48 113.61" stroke="#2B91D6" stroke-miterlimit="10"/>
<path d="M97.378 104.81L112.328 99.5999L104.548 96.8799L89.598 102.09L97.378 104.81Z" fill="#E1F3FF"/>
<path d="M89.598 102.09V121.77L97.378 124.49V104.81L89.598 102.09Z" fill="#001D9B"/>
<path d="M112.329 99.6001V119.28L97.379 124.49V104.81L112.329 99.6001Z" fill="#53C1F9"/>
<path d="M112.328 109.39L97.378 114.6L89.598 111.88" stroke="#231F20" stroke-miterlimit="10"/>
<path d="M81.221 110.46L96.171 105.24L88.391 102.52L73.441 107.73L81.221 110.46Z" fill="#E1F3FF"/>
<path d="M73.441 107.73V127.42L81.221 130.14V110.46L73.441 107.73Z" fill="#001D9B"/>
<path d="M96.173 105.24V124.92L81.223 130.14V110.46L96.173 105.24Z" fill="#53C1F9"/>
<path d="M96.171 115.08L81.221 120.3L73.441 117.57" stroke="#2B91D6" stroke-miterlimit="10"/>
<path d="M109.35 108.78L124.29 103.57L116.52 100.84L101.57 106.06L109.35 108.78Z" fill="#E1F3FF"/>
<path d="M101.57 106.06V125.74L109.35 128.46V108.78L101.57 106.06Z" fill="#001D9B"/>
<path d="M124.292 103.57V123.25L109.352 128.46V108.78L124.292 103.57Z" fill="#53C1F9"/>
<path d="M124.29 113.35L109.35 118.57L101.57 115.85" stroke="#2B91D6" stroke-miterlimit="10"/>
<path d="M58.888 87.7102L77.078 81.3102L67.178 77.9102L48.988 84.3102L58.888 87.7102Z" fill="#E1F3FF"/>
<path d="M48.988 84.3101V89.9101L58.888 93.3101V87.7101L48.988 84.3101Z" fill="#001D9B"/>
<path d="M77.077 81.3101V86.9101L58.887 93.3101V87.7101L77.077 81.3101ZM60.36 71.0601H55.82L54.82 84.5301C54.82 85.1601 56.29 85.6801 58.09 85.6801C59.9 85.6801 61.36 85.1701 61.36 84.5301L60.36 71.0601Z" fill="#53C1F9"/>
<path d="M58.09 71.85C59.344 71.85 60.36 71.496 60.36 71.06C60.36 70.624 59.344 70.27 58.09 70.27C56.837 70.27 55.82 70.624 55.82 71.06C55.82 71.496 56.837 71.85 58.09 71.85Z" fill="#001D9B"/>
<path d="M109.35 118.57L101.57 115.85M69.25 116.33L61.48 113.61L69.25 116.33ZM81.221 120.3L73.441 117.57L81.221 120.3Z" stroke="#061A60" stroke-miterlimit="10"/>
<path d="M93.19 114.42L108.14 109.21L100.36 106.49L85.41 111.7L93.19 114.42Z" fill="#E1F3FF"/>
<path d="M85.41 111.7V131.38L93.19 134.11V114.42L85.41 111.7Z" fill="#001D9B"/>
<path d="M108.141 109.21V128.89L93.191 134.11V114.42L108.141 109.21Z" fill="#53C1F9"/>
<path d="M108.14 119.05L93.19 124.26L85.41 121.54" stroke="#2B91D6" stroke-miterlimit="10"/>
<path d="M93.19 124.26L85.41 121.54" stroke="#061A60" stroke-miterlimit="10"/>
<path opacity="0.1" d="M113.102 136.69L123.002 135.97L130.432 133.37L113.102 130.48V136.69Z" fill="#002766"/>
<path d="M113.1 126.78L120.53 124.18L113.1 121.59L105.68 124.18L113.1 126.78Z" fill="#E1F3FF"/>
<path d="M105.68 124.18V134.09L113.1 136.69V126.78L105.68 124.18Z" fill="#001D9B"/>
<path d="M120.532 124.18V134.09L113.102 136.69V126.78L120.532 124.18Z" fill="#53C1F9"/>
<path opacity="0.1" d="M130.07 135.52L138.89 134.88L145.5 132.57L130.07 129.99V135.52Z" fill="#002766"/>
<path d="M130.071 126.7L136.681 124.39L130.071 122.07L123.461 124.39L130.071 126.7Z" fill="#E1F3FF"/>
<path d="M123.461 124.39V133.21L130.071 135.52V126.7L123.461 124.39Z" fill="#001D9B"/>
<path d="M136.68 124.39V133.21L130.07 135.52V126.7L136.68 124.39Z" fill="#53C1F9"/>
<path d="M92 65.0401V73.5291C92 76.7171 99.388 79.3101 108.508 79.3101C117.629 79.3101 125.017 76.7261 125.017 73.5291V65.0391H92V65.0401Z" fill="#001D9B"/>
<path d="M108.508 70.8198C117.626 70.8198 125.017 68.2318 125.017 65.0398C125.017 61.8468 117.626 59.2578 108.508 59.2578C99.391 59.2578 92 61.8468 92 65.0398C92 68.2328 99.391 70.8208 108.508 70.8208V70.8198Z" fill="#E1F3FF"/>
<path d="M108.209 68.2449C100.421 68.2449 96.176 65.9989 96.176 64.8449C96.176 63.6899 100.421 61.4429 108.209 61.4429C115.997 61.4429 120.241 63.6899 120.241 64.8439C120.241 65.9989 115.997 68.2449 108.209 68.2449Z" fill="#53C1F9"/>
<path d="M96.176 64.8439L100.643 14.4219H115.783L120.241 64.8439H96.176Z" fill="url(#paint8_linear)"/>
<path d="M108.509 16.7039C114.919 16.7039 120.115 14.8869 120.115 12.6449C120.115 10.4049 114.919 8.58691 108.509 8.58691C102.099 8.58691 96.902 10.4039 96.902 12.6459C96.902 14.8859 102.099 16.7039 108.509 16.7039Z" fill="#001A77"/>
<path d="M99.644 5.9502V10.5052C99.644 12.2192 103.614 13.6052 108.507 13.6052C113.4 13.6052 117.37 12.2192 117.37 10.5052V5.9502H99.644Z" fill="#E1F3FF"/>
<path d="M108.507 9.04907C113.402 9.04907 117.37 7.66107 117.37 5.94907C117.37 4.23907 113.402 2.85107 108.507 2.85107C103.612 2.85107 99.644 4.23807 99.644 5.95007C99.644 7.66107 103.612 9.04907 108.507 9.04907Z" fill="#E1F3FF"/>
<path d="M108.508 9.981C116.384 9.981 122.77 7.747 122.77 4.991C122.77 2.234 116.384 0 108.508 0C100.631 0 94.246 2.234 94.246 4.99C94.246 7.747 100.631 9.981 108.508 9.981Z" fill="#001A77"/>
<path opacity="0.35" d="M97.347 51.5952L96.797 57.8292C98.333 59.5252 102.862 60.7502 108.208 60.7502C113.554 60.7502 118.083 59.5252 119.619 57.8292L119.069 51.5952C117.168 53.0332 113.03 54.0282 108.208 54.0282C103.386 54.0282 99.257 53.0332 97.348 51.5952H97.347ZM98.385 39.8642L97.879 45.5642C99.335 47.0742 103.402 48.1582 108.207 48.1582C113.011 48.1582 117.069 47.0742 118.534 45.5652L118.028 39.8642C116.27 41.1422 112.54 42.0302 108.207 42.0302C103.882 42.0302 100.152 41.1422 98.385 39.8642ZM99.327 29.2432L98.847 34.6332C100.411 35.9032 104.007 36.7912 108.207 36.7912C112.399 36.7912 116.004 35.9032 117.567 34.6332L117.088 29.2432C115.338 30.3262 112.017 31.0632 108.207 31.0632C104.398 31.0632 101.077 30.3262 99.327 29.2432ZM116.626 23.1162L116.253 18.8892C115.108 20.0612 111.946 20.9042 108.208 20.9042C104.469 20.9042 101.308 20.0612 100.162 18.8892L99.789 23.1162C100.357 24.5632 103.91 25.6822 108.208 25.6822C112.506 25.6822 116.058 24.5722 116.626 23.1162Z" fill="#E1F3FF"/>
<path opacity="0.75" d="M55.05 71.06C58.27 68.94 57.97 61.29 53.21 60.71C48.45 60.13 36.73 79.56 6.89001 65.02L7.40001 62.7L19.95 40.02C34.29 49.54 39.31 43.27 53.66 47.58C68.01 51.89 64.05 66.81 59.36 71.05" fill="white"/>
<defs>
<linearGradient id="paint0_linear" x1="81.623" y1="78.04" x2="81.623" y2="167.42" gradientUnits="userSpaceOnUse">
<stop stop-color="#39F2FE"/>
<stop offset="1" stop-color="#30A8F0"/>
</linearGradient>
<linearGradient id="paint1_linear" x1="44.191" y1="17.4199" x2="44.191" y2="92.4299" gradientUnits="userSpaceOnUse">
<stop stop-color="#39F2FE"/>
<stop offset="1" stop-color="#30A8F0"/>
</linearGradient>
<linearGradient id="paint2_linear" x1="6.80502" y1="95.8799" x2="6.80502" y2="97.0099" gradientUnits="userSpaceOnUse">
<stop stop-color="#39F2FE"/>
<stop offset="1" stop-color="#30A8F0"/>
</linearGradient>
<linearGradient id="paint3_linear" x1="156.561" y1="95.8901" x2="156.561" y2="97.0101" gradientUnits="userSpaceOnUse">
<stop stop-color="#39F2FE"/>
<stop offset="1" stop-color="#30A8F0"/>
</linearGradient>
<linearGradient id="paint4_linear" x1="7.08002" y1="99.3501" x2="7.08002" y2="100.6" gradientUnits="userSpaceOnUse">
<stop stop-color="#39F2FE"/>
<stop offset="1" stop-color="#30A8F0"/>
</linearGradient>
<linearGradient id="paint5_linear" x1="156.29" y1="99.3599" x2="156.29" y2="100.6" gradientUnits="userSpaceOnUse">
<stop stop-color="#39F2FE"/>
<stop offset="1" stop-color="#30A8F0"/>
</linearGradient>
<linearGradient id="paint6_linear" x1="155.856" y1="103.13" x2="155.856" y2="103.98" gradientUnits="userSpaceOnUse">
<stop stop-color="#39F2FE"/>
<stop offset="1" stop-color="#30A8F0"/>
</linearGradient>
<linearGradient id="paint7_linear" x1="31" y1="123" x2="145.5" y2="149" gradientUnits="userSpaceOnUse">
<stop stop-color="#001D9B"/>
<stop offset="1" stop-color="#2D7FE0"/>
</linearGradient>
<linearGradient id="paint8_linear" x1="108.209" y1="14.4219" x2="108.209" y2="64.8439" gradientUnits="userSpaceOnUse">
<stop stop-color="#53DBF9"/>
<stop offset="1" stop-color="#53C1F9"/>
</linearGradient>
</defs>
</svg>
