<svg width="166" height="160" viewBox="0 0 166 160" fill="none" xmlns="http://www.w3.org/2000/svg">
<path d="M78.923 159.078C122.511 159.078 157.846 123.467 157.846 79.538C157.846 35.612 122.511 0 78.923 0C35.335 0 0 35.61 0 79.539C0 123.467 35.335 159.078 78.923 159.078Z" fill="url(#paint0_linear)"/>
<path opacity="0.25" d="M78.922 140.519C112.339 140.519 139.429 113.218 139.429 79.5391C139.429 45.8611 112.339 18.5591 78.922 18.5591C45.504 18.5591 18.414 45.8611 18.414 79.5391C18.414 113.218 45.504 140.519 78.922 140.519Z" fill="url(#paint1_linear)"/>
<path opacity="0.35" d="M143.449 125.3L117.52 116.158L34.64 145.386C35.5166 145.988 36.4079 146.568 37.313 147.125L69.567 158.504C72.639 158.865 75.754 159.077 78.922 159.077C105.598 159.077 129.169 145.725 143.449 125.3Z" fill="#12102B"/>
<path d="M110.607 12.9601L109.692 12.5571L28.275 41.2751C27.7845 41.4493 27.3601 41.7713 27.0604 42.1969C26.7608 42.6225 26.6006 43.1306 26.602 43.6511V109.138C26.602 109.731 26.97 110.272 27.517 110.484V109.806L110.597 80.5041V12.9601H110.607Z" fill="url(#paint2_linear)"/>
<path d="M27.531 106.985V44.0428C27.531 42.9728 28.205 42.0278 29.204 41.6678L109.874 13.2138C110.063 13.1476 110.265 13.1278 110.464 13.1561C110.662 13.1844 110.851 13.26 111.014 13.3764C111.177 13.4929 111.309 13.6468 111.4 13.8253C111.491 14.0037 111.538 14.2014 111.537 14.4018V79.1148C111.537 79.6348 111.376 80.142 111.076 80.5671C110.777 80.9922 110.354 81.3144 109.864 81.4898L30.856 109.361C29.226 109.933 27.531 108.724 27.531 106.985Z" fill="white"/>
<path d="M83.535 126.976L27.531 108.067V110.495L82.704 129.956C83.2381 130.147 83.8219 130.147 84.356 129.956L165.005 101.449V98.1831L83.535 126.976Z" fill="url(#paint3_linear)"/>
<path d="M29.18 106.391V45.539C29.18 44.468 29.853 43.524 30.853 43.163L108.24 15.92C108.429 15.854 108.631 15.8344 108.829 15.8627C109.027 15.8911 109.216 15.9666 109.379 16.0829C109.541 16.1992 109.674 16.3529 109.765 16.5311C109.856 16.7093 109.903 16.9068 109.902 17.107V79.72C109.902 80.2401 109.741 80.7476 109.442 81.1729C109.142 81.5982 108.719 81.9206 108.229 82.096L32.505 108.757C30.885 109.33 29.18 108.121 29.18 106.392V106.391Z" fill="url(#paint4_linear)"/>
<path d="M27.531 108.067L111.537 78.436L164.173 97.006C165.289 97.398 165.289 98.989 164.173 99.381L84.356 127.538C83.8219 127.729 83.2381 127.729 82.704 127.538L27.53 108.067H27.531Z" fill="url(#paint5_linear)"/>
<path d="M132.151 111.938L115.598 117.781C115.465 117.827 115.323 117.841 115.183 117.821C115.044 117.801 114.911 117.748 114.797 117.666C114.682 117.584 114.589 117.475 114.525 117.35C114.461 117.224 114.429 117.085 114.43 116.944L132.74 110.485V111.1C132.74 111.283 132.683 111.462 132.578 111.612C132.472 111.762 132.323 111.875 132.151 111.938Z" fill="#B0BDD6"/>
<path d="M37.895 47.0022V92.9422L101.191 70.6622V24.7202L37.894 47.0022H37.895Z" fill="url(#paint6_linear)"/>
<path d="M37.895 100.717V104.217L101.191 81.9351V78.4351L37.894 100.717H37.895Z" fill="#D8BDF8"/>
<path d="M63.285 43.195V45.857L96.833 34.223V31.561L63.285 43.195ZM63.285 58.858V60.428L96.833 48.784V47.224L63.285 58.859V58.858ZM63.285 62.337V63.897L96.833 52.263V50.693L63.285 62.338V62.337ZM63.285 65.805V67.375L96.833 55.731V54.171L63.285 65.806V65.805ZM63.285 69.283V70.843L96.833 59.208V57.638L63.285 69.284V69.283ZM63.285 72.75V74.32L96.833 62.676V61.116L63.285 72.752V72.75ZM63.285 76.22V77.79L96.833 66.155V64.585L63.285 76.22ZM63.285 48.031V50.693L96.833 39.059V36.397L63.285 48.031Z" fill="#C0A2E3"/>
<path d="M63.506 40.416L65.979 60.842L84.899 60.927C86.268 72.2 78.901 81.31 68.452 81.257C57.992 81.214 48.416 72.041 47.048 60.757C45.691 49.473 53.046 40.363 63.506 40.417V40.416Z" fill="url(#paint7_linear)"/>
<path d="M77.418 78.6699L71.283 82.6669C68.747 84.3219 65.695 85.2659 62.318 85.2549C51.858 85.2129 42.282 76.0389 40.914 64.7549C39.988 57.1189 43.06 50.4809 48.395 47.0019L54.531 43.0039C49.195 46.4819 46.123 53.1209 47.049 60.7569C48.417 72.0299 57.993 81.2149 68.453 81.2569C71.83 81.2669 74.883 80.3239 77.418 78.6689V78.6699Z" fill="url(#paint8_linear)"/>
<path d="M74.66 29.3442C85.11 29.3872 94.696 38.5712 96.064 49.8442L77.134 49.7592L74.66 29.3442Z" fill="url(#paint9_linear)"/>
<path d="M96.063 49.8438L89.928 53.8418L71.008 53.7678L77.132 49.7578L96.063 49.8438Z" fill="url(#paint10_linear)"/>
<path d="M77.132 49.7602L71.008 53.7682L68.535 33.3422L74.66 29.3442L77.132 49.7592V49.7602Z" fill="url(#paint11_linear)"/>
<path d="M125.382 52.1139C125.361 51.9075 125.329 51.7022 125.287 51.499C125.172 50.9971 125.01 50.5072 124.803 50.0359C124.586 49.5456 124.329 49.074 124.035 48.6259C123.658 48.0393 123.232 47.4857 122.762 46.971C121.488 45.561 119.878 44.341 118.163 43.5979C118.121 43.578 118.079 43.5669 118.037 43.5449C117.51 43.3251 116.964 43.1547 116.406 43.0359C115.966 42.946 115.518 42.8998 115.069 42.8979C114.647 42.9016 114.229 42.9697 113.828 43.0999C113.322 43.2699 112.912 43.535 112.586 43.895L105.125 52.358C105.441 51.998 105.862 51.722 106.367 51.563C106.768 51.4328 107.186 51.3646 107.608 51.361C108.029 51.351 108.471 51.404 108.945 51.499C109.503 51.6179 110.049 51.7886 110.576 52.0089C110.618 52.0289 110.66 52.04 110.702 52.061C112.417 52.804 114.038 54.0229 115.301 55.4339C115.774 55.9639 116.206 56.515 116.574 57.088C116.869 57.555 117.132 58.021 117.342 58.498C117.563 58.986 117.721 59.485 117.826 59.962C117.868 60.174 117.9 60.3759 117.932 60.577C118.047 61.691 117.795 62.571 117.248 63.186L124.708 54.7229C125.235 54.108 125.498 53.2169 125.382 52.1139Z" fill="#3C0085"/>
<path d="M117.405 37.6059C124.961 40.7559 131.622 48.5399 132.306 55.0089C132.979 61.4679 127.413 64.1509 119.857 61.0009C112.312 57.8509 105.64 50.0669 104.967 43.6089C104.283 37.1389 109.86 34.4559 117.405 37.6059ZM119.236 55.0729C122.961 56.6319 125.708 55.3059 125.371 52.1139C125.034 48.9219 121.751 45.0829 118.026 43.5339C114.301 41.9859 111.554 43.3009 111.891 46.4939C112.228 49.6739 115.511 53.5139 119.236 55.0729Z" fill="url(#paint12_linear)"/>
<path d="M128.4 61.9129C127.585 62.1787 126.733 62.3147 125.875 62.3159C124.963 62.3235 124.052 62.231 123.16 62.0399C122.028 61.7999 120.921 61.4516 119.856 60.9999C119.771 60.9689 119.687 60.9259 119.592 60.8949C116.12 59.3889 112.847 56.9179 110.269 54.0549C109.321 53.0051 108.459 51.8808 107.691 50.6929C107.099 49.7797 106.578 48.8222 106.133 47.8289C105.703 46.8751 105.372 45.8799 105.144 44.8589C105.053 44.4465 104.986 44.0291 104.944 43.6089C104.713 41.3599 105.228 39.5679 106.333 38.3159L98.873 46.7789C97.778 48.0309 97.252 49.8229 97.483 52.0709C97.525 52.4849 97.599 52.8979 97.683 53.3229C97.893 54.2979 98.231 55.2949 98.673 56.2929C99.093 57.2459 99.62 58.2119 100.23 59.1559C100.997 60.3439 101.859 61.4679 102.808 62.5169C105.376 65.3809 108.659 67.8519 112.132 69.3569C112.216 69.3999 112.3 69.4319 112.395 69.4639C113.552 69.9409 114.657 70.2909 115.699 70.5029C116.657 70.7039 117.572 70.7889 118.414 70.7789C119.272 70.7777 120.124 70.6417 120.939 70.3759C121.95 70.0359 122.802 69.4959 123.454 68.7529L130.915 60.2899C130.273 61.0219 129.421 61.5729 128.4 61.9129Z" fill="#3C0085"/>
<path d="M116.406 43.0261C116.962 43.1398 117.505 43.3104 118.027 43.535C119.1 43.98 120.131 44.6271 121.068 45.3801L124.719 42.315C122.794 40.756 120.794 38.9001 116.743 37.3521L116.406 43.0261Z" fill="url(#paint13_linear)"/>
<path d="M115.655 52.7709L121.074 45.3689C121.053 45.3469 121.032 45.3369 121.011 45.3159C120.832 45.1779 120.643 45.0399 120.464 44.9019C120.411 44.8699 120.359 44.8279 120.306 44.7959C120.137 44.6787 119.965 44.5653 119.79 44.4559C119.717 44.4139 119.654 44.3719 119.58 44.3289C119.422 44.2339 119.264 44.1489 119.106 44.0539C119.022 44.0109 118.928 43.9579 118.843 43.9159C118.69 43.8394 118.535 43.7651 118.38 43.6929L118.033 43.5339C117.78 43.4311 117.524 43.3357 117.265 43.2479L117.044 43.1839C116.865 43.1309 116.686 43.0889 116.518 43.0459C116.476 43.0359 116.444 43.0359 116.413 43.0249L112.445 48.4759C113.129 50.0989 114.087 51.4559 115.655 52.7709Z" fill="url(#paint14_linear)"/>
<path d="M124.728 42.3052L121.066 45.3702C123.392 47.2362 125.139 49.8342 125.37 52.1142C125.507 53.3772 125.149 54.3422 124.444 54.9462L124.581 54.9992L131.368 59.6872C132.147 58.4882 132.494 56.9192 132.295 55.0102C131.905 51.2552 129.474 47.0452 126.033 43.5672L124.728 42.3052Z" fill="url(#paint15_linear)"/>
<path d="M125.38 52.1141C125.359 51.9077 125.327 51.7024 125.285 51.4991C125.274 51.4781 125.274 51.4461 125.264 51.4251C125.2 51.1402 125.115 50.8602 125.011 50.5871C124.957 50.4331 124.897 50.2811 124.832 50.1311C124.79 50.0461 124.748 49.9511 124.706 49.8661C124.644 49.7296 124.577 49.5952 124.506 49.4631L124.359 49.1871C124.285 49.0491 124.201 48.9221 124.127 48.7841L123.969 48.5291C123.801 48.273 123.626 48.0219 123.443 47.7761C123.422 47.7561 123.412 47.7341 123.391 47.7131C123.211 47.4854 123.025 47.2626 122.833 47.0451C122.78 46.9811 122.717 46.9171 122.665 46.8541C122.444 46.6072 122.212 46.3703 121.97 46.1441L121.96 46.1331C121.689 45.8782 121.408 45.6341 121.118 45.4011C121.107 45.3911 121.086 45.3801 121.076 45.3691L115.656 52.7611C116.73 53.7151 117.961 54.5211 119.234 55.0621C121.77 56.1221 123.843 55.8471 124.811 54.5641C124.822 54.5421 124.843 54.5211 124.864 54.5001C124.938 54.3941 125.011 54.2771 125.064 54.1601C125.074 54.1291 125.095 54.0971 125.106 54.0761C125.15 53.9743 125.192 53.8716 125.232 53.7681C125.291 53.5959 125.333 53.4184 125.359 53.2381C125.359 53.2171 125.369 53.1851 125.369 53.1641C125.39 53.0371 125.401 52.8991 125.401 52.7611V52.6231C125.401 52.4631 125.39 52.2941 125.38 52.1131V52.1141Z" fill="#741783"/>
<path d="M68.168 106.922L112.628 91.2358L136.684 99.8258C137.273 100.039 137.273 100.877 136.684 101.078L94.444 115.979C94.16 116.074 93.854 116.074 93.571 115.979L68.168 106.922Z" fill="url(#paint16_linear)"/>
<path opacity="0.1" d="M111.344 102.956L120.825 102.266L127.939 99.7529L111.344 96.9629V102.956Z" fill="#8596B3"/>
<path d="M111.345 99.7732L118.459 80.0162L111.345 77.5132L104.242 80.0162L111.345 99.7732Z" fill="#ACBEFB"/>
<path d="M104.242 80.0171V100.442L111.345 102.956V82.5301L104.242 80.0171Z" fill="#7989C1"/>
<path d="M118.457 80.0171V100.442L111.344 102.956V82.5301L118.457 80.0171Z" fill="#292F44"/>
<path opacity="0.1" d="M100.516 106.71L110.007 106.01L117.11 103.507L100.516 95.2349V106.71Z" fill="#002766"/>
<path d="M100.517 103.528L107.631 92.3279L100.517 89.8149L93.414 92.3289L100.517 103.528Z" fill="#ACBEFB"/>
<path d="M93.414 92.3291V104.196L100.517 106.709V94.8311L93.414 92.3291Z" fill="#7989C1"/>
<path d="M107.629 92.3291V104.196L100.516 106.709V94.8311L107.629 92.3291Z" fill="#282F44"/>
<path opacity="0.1" d="M89.856 110.517L99.336 109.827L106.45 107.314L89.856 104.524V110.517Z" fill="#002766"/>
<path d="M89.856 107.335L96.969 104.833L89.856 102.319L82.742 104.833L89.856 107.335Z" fill="#ACBEFB"/>
<path d="M82.742 104.833V108.003L89.856 110.517V107.335L82.742 104.833Z" fill="#7989C1"/>
<path d="M96.97 104.833V108.003L89.856 110.517V107.335L96.969 104.833H96.97Z" fill="#282F44"/>
<defs>
<linearGradient id="paint0_linear" x1="78.923" y1="159.078" x2="78.923" y2="0" gradientUnits="userSpaceOnUse">
<stop stop-color="#90479B"/>
<stop offset="1" stop-color="#DB68A6"/>
</linearGradient>
<linearGradient id="paint1_linear" x1="78.922" y1="18.5601" x2="78.922" y2="140.519" gradientUnits="userSpaceOnUse">
<stop stop-color="#2D0C5B"/>
<stop offset="1" stop-color="#2D0C5B" stop-opacity="0"/>
</linearGradient>
<linearGradient id="paint2_linear" x1="26.609" y1="61.5221" x2="110.61" y2="61.5221" gradientUnits="userSpaceOnUse">
<stop offset="0.45" stop-color="#DFE6F7"/>
<stop offset="0.55" stop-color="#CAD4E8"/>
</linearGradient>
<linearGradient id="paint3_linear" x1="27.53" y1="114.135" x2="165.005" y2="114.135" gradientUnits="userSpaceOnUse">
<stop offset="0.37" stop-color="#DFE6F7"/>
<stop offset="0.424" stop-color="#CAD4E8"/>
</linearGradient>
<linearGradient id="paint4_linear" x1="69.541" y1="15.847" x2="69.541" y2="108.9" gradientUnits="userSpaceOnUse">
<stop stop-color="#9471BE"/>
<stop offset="1" stop-color="#B797DD"/>
</linearGradient>
<linearGradient id="paint5_linear" x1="27.53" y1="103.05" x2="165.005" y2="103.05" gradientUnits="userSpaceOnUse">
<stop stop-color="white"/>
<stop offset="1" stop-color="#EBEFF7"/>
</linearGradient>
<linearGradient id="paint6_linear" x1="69.543" y1="24.7202" x2="84.188" y2="83.0152" gradientUnits="userSpaceOnUse">
<stop stop-color="#AF92D1"/>
<stop offset="1" stop-color="#AF92D1" stop-opacity="0.25"/>
</linearGradient>
<linearGradient id="paint7_linear" x1="75.71" y1="79.689" x2="54.394" y2="43.054" gradientUnits="userSpaceOnUse">
<stop stop-color="#FEBE8F"/>
<stop offset="1" stop-color="#F78D6D"/>
</linearGradient>
<linearGradient id="paint8_linear" x1="40.761" y1="64.1239" x2="77.423" y2="64.1239" gradientUnits="userSpaceOnUse">
<stop stop-color="#A32B62"/>
<stop offset="1" stop-color="#F27E5F"/>
</linearGradient>
<linearGradient id="paint9_linear" x1="89.785" y1="53.4992" x2="75.459" y2="28.8782" gradientUnits="userSpaceOnUse">
<stop stop-color="#FEBE8F"/>
<stop offset="1" stop-color="#F78D6D"/>
</linearGradient>
<linearGradient id="paint10_linear" x1="71.005" y1="51.8048" x2="96.062" y2="51.8048" gradientUnits="userSpaceOnUse">
<stop stop-color="#A32B62"/>
<stop offset="1" stop-color="#F27E5F"/>
</linearGradient>
<linearGradient id="paint11_linear" x1="68.531" y1="41.5542" x2="77.136" y2="41.5542" gradientUnits="userSpaceOnUse">
<stop stop-color="#A32B62"/>
<stop offset="1" stop-color="#F27E5F"/>
</linearGradient>
<linearGradient id="paint12_linear" x1="104.909" y1="49.2999" x2="132.361" y2="49.2999" gradientUnits="userSpaceOnUse">
<stop stop-color="#4E34B0"/>
<stop offset="1" stop-color="#431DAB"/>
</linearGradient>
<linearGradient id="paint13_linear" x1="116.398" y1="41.3591" x2="124.73" y2="41.3591" gradientUnits="userSpaceOnUse">
<stop stop-color="#FEBE8F"/>
<stop offset="1" stop-color="#F78D6D"/>
</linearGradient>
<linearGradient id="paint14_linear" x1="112.436" y1="47.8969" x2="121.068" y2="47.8969" gradientUnits="userSpaceOnUse">
<stop stop-color="#A32B62"/>
<stop offset="1" stop-color="#F27E5F"/>
</linearGradient>
<linearGradient id="paint15_linear" x1="131.656" y1="59.5182" x2="122.421" y2="43.6462" gradientUnits="userSpaceOnUse">
<stop stop-color="#90479B"/>
<stop offset="1" stop-color="#DB68A6"/>
</linearGradient>
<linearGradient id="paint16_linear" x1="75.48" y1="119.687" x2="130.264" y2="88.3028" gradientUnits="userSpaceOnUse">
<stop stop-color="#DFE6F7"/>
<stop offset="1" stop-color="#CED3EA"/>
</linearGradient>
</defs>
</svg>
