<svg width="176" height="151" viewBox="0 0 176 151" fill="none" xmlns="http://www.w3.org/2000/svg">
<path d="M87.882 150.5C129.36 150.5 162.985 116.921 162.985 75.5C162.985 34.079 129.36 0.5 87.882 0.5C46.403 0.5 12.779 34.079 12.779 75.5C12.779 116.921 46.403 150.5 87.882 150.5Z" fill="url(#paint0_linear)"/>
<path opacity="0.25" d="M87.882 133C119.682 133 145.461 107.256 145.461 75.5C145.461 43.744 119.68 18 87.88 18C56.08 18 30.302 43.744 30.302 75.5C30.302 107.256 56.082 133 87.882 133Z" fill="#2D0C5B"/>
<path opacity="0.25" d="M87.86 120.66L144.528 100.86L87.86 81.0498L31.202 100.86L87.86 120.66Z" fill="#122749"/>
<path opacity="0.25" d="M22.42 112.26C25.5142 117.733 29.2786 122.799 33.626 127.34L81.692 110.42L54.805 101.02V100.87L22.42 112.26Z" fill="#122749"/>
<path d="M87.859 53.3899L126.532 39.8799L87.859 26.3599L49.196 39.8799L87.859 53.3899Z" fill="white"/>
<path d="M49.196 39.8799V98.8999L87.859 112.41V53.3899L49.196 39.8799Z" fill="#E2E5E8"/>
<path d="M126.53 39.8799V98.8999L87.858 112.41V53.3899L126.53 39.8799Z" fill="#C4CACE"/>
<path opacity="0.25" d="M153.38 112.19L121.206 100.86V101.01L94.308 110.41L142.184 127.27C146.531 122.731 150.293 117.665 153.38 112.19Z" fill="#122749"/>
<path d="M121.034 92.71V48.02L93.937 57.49V102.19L121.034 92.71Z" fill="#084259"/>
<path d="M54.985 92.71V48.02L82.082 57.49V102.19L54.985 92.71Z" fill="#331E77"/>
<path d="M82.082 77.5L54.985 87.04V87.2L81.872 96.6L82.082 96.53V77.5Z" fill="white"/>
<path d="M54.986 92.7101V92.5601L0.692017 111.68L27.799 121.15L81.873 102.11L54.986 92.7101Z" fill="#C4CACE"/>
<path d="M54.794 87.2098V87.0498L0.5 106.17L27.617 115.65L81.691 96.6098L54.794 87.2098Z" fill="white"/>
<path d="M0.5 106.17V111.81L27.797 121.15V115.65L0.5 106.17Z" fill="#7782E5"/>
<path d="M81.693 96.6099V102.11L27.8 121.15V115.65L81.693 96.6099Z" fill="#2C4A84"/>
<path d="M82.082 77.5V96.53L81.872 96.6L54.985 87.2V48.02L82.082 57.49V77.5Z" fill="url(#paint1_linear)"/>
<path d="M121.014 92.71V48.02L93.917 57.49V102.19L121.014 92.71Z" fill="#331E77"/>
<path d="M93.917 77.5L121.014 87.04V87.2L94.117 96.6L93.917 96.53V77.5Z" fill="white"/>
<path d="M121.013 92.7101V92.5601L175.308 111.68L148.201 121.15L94.117 102.11L121.013 92.7101Z" fill="#C4CACE"/>
<path d="M121.206 87.2098V87.0498L175.5 106.17L148.383 115.65L94.308 96.6098L121.206 87.2098Z" fill="white"/>
<path d="M175.5 106.17V111.81L148.203 121.15V115.65L175.5 106.17Z" fill="#7782E5"/>
<path d="M94.308 96.6099V102.11L148.203 121.15V115.65L94.308 96.6099Z" fill="#2C4A84"/>
<path d="M93.917 77.5V96.53L94.117 96.6L121.014 87.2V48.02L93.917 57.49V77.5Z" fill="url(#paint2_linear)"/>
<path d="M142.143 97.4998L160.218 87.2998L155.462 80.0698L142.143 97.4998Z" fill="#A04100"/>
<path d="M142.143 97.5001L155.462 80.0701L147.22 77.3901L142.143 97.5001Z" fill="#FF8622"/>
<path d="M165.327 67.1602L147.252 77.3602L152.009 84.5901L165.327 67.1602Z" fill="#FFAF6E"/>
<path d="M165.327 67.1602L152.01 84.5901L160.241 87.2701L165.327 67.1602Z" fill="#CE5D00"/>
<path d="M55.256 83.4402L46.254 60.9702L68.114 78.3002L55.256 83.4402Z" fill="#7AC6F4"/>
<path d="M55.255 83.4402L46.253 60.9702L42.397 88.5702L55.255 83.4402Z" fill="#2F7DD1"/>
<path d="M42.397 88.5698C42.397 88.5698 52.942 78.9198 53.452 78.9398C53.963 78.9598 68.112 78.2998 68.112 78.2998L57.057 87.9298L42.397 88.5698Z" fill="#214FAA"/>
<path d="M121.013 88.47C128.403 88.47 134.392 82.489 134.392 75.11C134.392 67.732 128.402 61.75 121.013 61.75C113.625 61.75 107.635 67.731 107.635 75.11C107.635 82.488 113.625 88.47 121.013 88.47Z" fill="#A2EAF4"/>
<path d="M127.964 63.7202C129.248 65.807 129.928 68.2098 129.926 70.6602C129.926 78.0402 123.938 84.0202 116.548 84.0202C113.995 84.0202 111.621 83.2902 109.598 82.0602C111.952 85.9002 116.178 88.4802 121.014 88.4802C128.404 88.4802 134.393 82.5002 134.393 75.1202C134.393 70.2802 131.809 66.0602 127.963 63.7202H127.964Z" fill="#89C4E8"/>
<path d="M115.612 69.856C117.276 68.318 117.982 66.377 117.189 65.522C116.397 64.667 114.405 65.221 112.741 66.759C111.077 68.297 110.371 70.237 111.163 71.092C111.956 71.948 113.948 71.394 115.612 69.856Z" fill="white"/>
<path opacity="0.1" d="M27.967 107.17C20.417 107.17 16.291 105.25 16.291 104.26C16.291 103.27 20.407 101.35 27.967 101.35C35.527 101.35 39.643 103.27 39.643 104.26C39.643 105.25 35.518 107.17 27.967 107.17ZM54.054 99.28C46.504 99.28 42.378 97.36 42.378 96.37C42.378 95.38 46.493 93.46 54.054 93.46C61.614 93.46 65.73 95.38 65.73 96.37C65.73 97.35 61.614 99.28 54.054 99.28ZM121.016 98.05C113.466 98.05 109.34 96.13 109.34 95.14C109.34 94.15 113.456 92.23 121.016 92.23C128.576 92.23 132.692 94.15 132.692 95.14C132.692 96.12 128.567 98.05 121.016 98.05ZM145.98 107.17C138.43 107.17 134.305 105.25 134.305 104.26C134.305 103.27 138.42 101.35 145.981 101.35C153.541 101.35 157.657 103.27 157.657 104.26C157.647 105.25 153.531 107.17 145.981 107.17H145.98Z" fill="#122749"/>
<path d="M38.421 83.4001L23.09 70.3601C20.967 68.5501 16.46 70.3601 13.016 74.3901C9.57102 78.4201 8.51002 83.1501 10.633 84.9601L25.963 98.0001L38.421 83.4001Z" fill="#F26BA9"/>
<path d="M36.03 93.964C39.47 89.933 40.538 85.201 38.416 83.396C36.295 81.591 31.786 83.396 28.347 87.427C24.907 91.459 23.84 96.191 25.961 97.996C28.083 99.801 32.591 97.996 36.031 93.964H36.03Z" fill="#D63A88"/>
<defs>
<linearGradient id="paint0_linear" x1="87.8775" y1="150.5" x2="87.8775" y2="0.5" gradientUnits="userSpaceOnUse">
<stop stop-color="#205EBC"/>
<stop offset="1" stop-color="#9986F7"/>
</linearGradient>
<linearGradient id="paint1_linear" x1="60.3419" y1="95.274" x2="77.156" y2="47.9175" gradientUnits="userSpaceOnUse">
<stop offset="0.19" stop-color="#331E77" stop-opacity="0"/>
<stop offset="0.378" stop-color="#331E77"/>
</linearGradient>
<linearGradient id="paint2_linear" x1="115.655" y1="95.274" x2="98.8404" y2="47.9175" gradientUnits="userSpaceOnUse">
<stop offset="0.19" stop-color="#331E77" stop-opacity="0"/>
<stop offset="0.378" stop-color="#331E77"/>
</linearGradient>
</defs>
</svg>
