<svg width="86" height="88" fill="none" xmlns="http://www.w3.org/2000/svg"><path d="M43 87.16c23.748 0 43-19.382 43-43.292S66.748.574 43 .574 0 19.957 0 43.868C0 67.778 19.252 87.16 43 87.16z" fill="url(#paint0_linear)"/><path opacity=".15" d="M43.001 75.977c17.613 0 31.892-14.376 31.892-32.11 0-17.733-14.279-32.109-31.892-32.109s-31.892 14.376-31.892 32.11c0 17.733 14.279 32.11 31.892 32.11z" fill="url(#paint1_linear)"/><path d="M7.086 67.68a43.356 43.356 0 005.93 7.215c7.748 7.59 18.322 12.266 29.986 12.266 11.663 0 22.238-4.675 29.985-12.266a43.353 43.353 0 005.93-7.216H7.086v.001z" fill="url(#paint2_linear)"/><path d="M79.04 63.83a16.456 16.456 0 00-11.388-4.586l-1.76-3.936a7.372 7.372 0 00-6.722-4.376H28.504c-2.795 0-5.421 1.54-6.64 4.07a7.466 7.466 0 01-6.722 4.242h-4.017c-1.874 0-5.217.696-7.586 1.843a43.074 43.074 0 003.548 6.592l71.745-.123c.098-.089.203-.168.315-.238a41.643 41.643 0 001.77-3.027l-1.877-.462z" fill="#387A63"/><path d="M44.918 44.138h-5.375v23.45h5.375v-23.45z" fill="url(#paint3_linear)"/><path d="M32.263 26.922L12.332 49.636h39.861l19.93-22.714h-39.86z" fill="#FFF4C5"/><path d="M72.125 26.846v4.156l-19.809 22.85v-4.57l19.81-22.436h-.001zM52.314 49.283H12.281v4.57h40.033v-4.57z" fill="#32A37F"/><path d="M22.574 37.868h39.861M40.492 49.282l19.809-22.436-19.809 22.436zm-15.769 0L44.53 26.846 24.723 49.282z" stroke="#EDE0AB" stroke-miterlimit="10"/><defs><linearGradient id="paint0_linear" x1="43" y1="87.161" x2="43" y2=".574" gradientUnits="userSpaceOnUse"><stop stop-color="#A0D69A"/><stop offset="1" stop-color="#F1ED98"/></linearGradient><linearGradient id="paint1_linear" x1="43.001" y1="75.977" x2="43.001" y2="11.758" gradientUnits="userSpaceOnUse"><stop stop-color="#32A37F" stop-opacity="0"/><stop offset="1" stop-color="#0A6259"/></linearGradient><linearGradient id="paint2_linear" x1="43.002" y1="87.161" x2="43.002" y2="67.679" gradientUnits="userSpaceOnUse"><stop stop-color="#32A5D8"/><stop offset="1" stop-color="#7CCEF6"/></linearGradient><linearGradient id="paint3_linear" x1="42.231" y1="67.588" x2="42.231" y2="44.138" gradientUnits="userSpaceOnUse"><stop stop-color="#A0D69A"/><stop offset="1" stop-color="#F1ED98"/></linearGradient></defs></svg>