<svg width="89" height="86" fill="none" xmlns="http://www.w3.org/2000/svg"><g clip-path="url(#clip0)"><path d="M45.742 86c23.748 0 43-19.252 43-43s-19.252-43-43-43-43 19.252-43 43 19.252 43 43 43z" fill="url(#paint0_linear)"/><path d="M45.74 86c23.75 0 43-19.25 43-43 0-8.9-2.7-17.16-7.33-24.02L57.82 42.57 47.37 32.12 25.63 53.87l-8.91-8.91L4.98 56.69C10.7 73.72 26.78 86 45.74 86z" fill="url(#paint1_linear)"/><path d="M16 46h2v27h-2V46z" fill="url(#paint2_linear)"/><path d="M25 54h2v27h-2V54z" fill="url(#paint3_linear)"/><path d="M45 39h4v27h-4V39z" fill="url(#paint4_linear)"/><path opacity=".25" d="M83.88 22.34L57.6 50.62 47 40 25.5 59l-9-9L5 61.5" stroke="#1E1912" stroke-width="5" stroke-miterlimit="10"/><path d="M47.371 39.3v20.25" stroke="url(#paint5_linear)" stroke-width="4" stroke-miterlimit="10"/><path opacity=".5" d="M58.3 47.65v29.12" stroke="url(#paint6_linear)" stroke-width="2" stroke-miterlimit="10"/><path d="M85.101 15.3l-27.28 27.27-10.45-10.45-21.74 21.74-8.91-8.9-14.6 14.59" stroke="#FFCF6C" stroke-width="6" stroke-miterlimit="10"/><path d="M58.002 50L72 36.118a18.232 18.232 0 00-4.143-10.264l-9.855 9.766L47.285 25 35.022 37.154c0 .122-.021.244-.021.366 0 3.964 1.282 7.622 3.435 10.63l8.85-8.77L58.002 50z" fill="#FFCF6C"/><path d="M68.5 53.5l15.551 15.45" stroke="url(#paint7_linear)" stroke-width="6" stroke-miterlimit="10" stroke-linecap="round"/><path d="M53.435 58.812c11.853 0 21.462-9.61 21.462-21.462 0-11.853-9.609-21.462-21.462-21.462S31.973 25.497 31.973 37.35s9.609 21.462 21.462 21.462z" fill="url(#paint8_linear)"/><path d="M53.433 15.888c11.85 0 21.462 9.612 21.462 21.462s-9.612 21.462-21.462 21.462S31.971 49.2 31.971 37.35c.01-11.85 9.612-21.462 21.462-21.462zm0-3.108c-13.548 0-24.57 11.022-24.57 24.57 0 13.549 11.022 24.57 24.57 24.57 13.549 0 24.57-11.021 24.57-24.57s-11.021-24.57-24.57-24.57z" fill="url(#paint9_linear)"/><path d="M53.435 18.995c10.12 0 18.355 8.235 18.355 18.355 0 10.12-8.235 18.344-18.355 18.344-10.12 0-18.355-8.234-18.355-18.354s8.235-18.345 18.355-18.345zm0-3.107c-11.85 0-21.462 9.612-21.462 21.462s9.612 21.462 21.462 21.462S74.897 49.2 74.897 37.35s-9.602-21.462-21.462-21.462z" fill="url(#paint10_linear)"/><path opacity=".15" d="M67.06 52.93a20.823 20.823 0 01-6.92 4.01c-2.42 6.91-8.99 11.89-16.71 11.89-9.77 0-17.72-7.95-17.72-17.72 0-5.75 2.77-10.86 7.03-14.1.04-2.78.63-5.42 1.66-7.83-8.62 3.56-14.7 12.05-14.7 21.93 0 13.08 10.64 23.72 23.72 23.72 5.21 0 10.02-1.69 13.94-4.55l9.95 9.77c.38.16 3.43-2.16 5.21-3.4L61.73 66.17c3.01-3.66 4.94-8.24 5.33-13.24z" fill="#12283F"/><path d="M65.3 30.899c.983-1.435-1.027-4.522-4.49-6.894-3.462-2.372-7.066-3.132-8.05-1.697-.982 1.435 1.027 4.52 4.49 6.894 3.462 2.372 7.066 3.132 8.05 1.697z" fill="#fff"/></g><defs><linearGradient id="paint0_linear" x1="45.746" y1="86" x2="45.746" y2="0" gradientUnits="userSpaceOnUse"><stop stop-color="#32A5D8"/><stop offset=".365" stop-color="#34A6D9"/><stop offset=".999" stop-color="#7CCEF6"/></linearGradient><linearGradient id="paint1_linear" x1="46.864" y1="86" x2="46.864" y2="18.982" gradientUnits="userSpaceOnUse"><stop stop-color="#A0D69A"/><stop offset="1" stop-color="#F1ED98"/></linearGradient><linearGradient id="paint2_linear" x1="17" y1="46" x2="17" y2="73" gradientUnits="userSpaceOnUse"><stop stop-color="#fff"/><stop offset="1" stop-color="#fff" stop-opacity="0"/></linearGradient><linearGradient id="paint3_linear" x1="26" y1="54" x2="26" y2="81" gradientUnits="userSpaceOnUse"><stop stop-color="#fff"/><stop offset="1" stop-color="#fff" stop-opacity="0"/></linearGradient><linearGradient id="paint4_linear" x1="47" y1="39" x2="47" y2="66" gradientUnits="userSpaceOnUse"><stop stop-color="#fff"/><stop offset="1" stop-color="#fff" stop-opacity="0"/></linearGradient><linearGradient id="paint5_linear" x1="-nan" y1="-nan" x2="-nan" y2="-nan" gradientUnits="userSpaceOnUse"><stop stop-color="#fff" stop-opacity="0"/><stop offset="1" stop-color="#fff"/></linearGradient><linearGradient id="paint6_linear" x1="-nan" y1="-nan" x2="-nan" y2="-nan" gradientUnits="userSpaceOnUse"><stop stop-color="#fff" stop-opacity="0"/><stop offset="1" stop-color="#fff"/></linearGradient><linearGradient id="paint7_linear" x1="64.693" y1="60.77" x2="87.048" y2="60.77" gradientUnits="userSpaceOnUse"><stop stop-color="#1D2F49"/><stop offset="1" stop-color="#2B637A"/></linearGradient><linearGradient id="paint8_linear" x1="74.898" y1="37.347" x2="31.98" y2="37.347" gradientUnits="userSpaceOnUse"><stop stop-color="#fff" stop-opacity=".5"/><stop offset="1" stop-color="#fff" stop-opacity="0"/></linearGradient><linearGradient id="paint9_linear" x1="53.437" y1="61.913" x2="53.437" y2="12.781" gradientUnits="userSpaceOnUse"><stop stop-color="#2B637A"/><stop offset="1" stop-color="#1D2F49"/></linearGradient><linearGradient id="paint10_linear" x1="53.439" y1="15.888" x2="53.439" y2="58.806" gradientUnits="userSpaceOnUse"><stop stop-color="#2B637A"/><stop offset="1" stop-color="#1D2F49"/></linearGradient><clipPath id="clip0"><path fill="#fff" d="M0 0h89v86H0z"/></clipPath></defs></svg>