<svg width="98" height="102" fill="none" xmlns="http://www.w3.org/2000/svg"><mask id="a" maskUnits="userSpaceOnUse" x="0" y="15" width="86" height="87"><path d="M43 101.632c23.748 0 43-19.252 43-43s-19.252-43-43-43-43 19.252-43 43 19.252 43 43 43z" fill="#C4C4C4"/></mask><g mask="url(#a)"><path d="M64.5 22.754h-43C9.627 22.754 0 32.43 0 44.363V87.58c0 11.933 9.627 21.608 21.5 21.608h43c11.873 0 21.5-9.675 21.5-21.608V44.363c0-11.933-9.627-21.61-21.5-21.61z" fill="url(#paint0_linear)"/><path d="M6.298 29.084A21.586 21.586 0 000 44.364V87.58c0 11.933 9.627 21.609 21.5 21.609h43c5.938 0 11.313-2.418 15.202-6.33L6.298 29.085v-.001z" fill="url(#paint1_linear)"/><path d="M87.133 62.927a44.345 44.345 0 00-1.34-.022c-24.882 0-45.055 20.31-45.055 45.361 0 .451.008.902.022 1.35h15.944L73.82 93.479l13.313-14.386V62.927z" fill="url(#paint2_linear)"/><path d="M55.45 108.231c0 .466.01.926.032 1.386h7.145c13.534 0 24.506-11.047 24.506-24.673V77.75c-.457-.02-.914-.033-1.376-.033-16.739 0-30.308 13.66-30.308 30.514h.001z" fill="#32A37F"/><path d="M86.001 91.962L17.156 22.925C8.824 24.608 2.225 31.087.344 39.367l69.261 69.454a21.585 21.585 0 0010.008-5.358c.446-.44.881-.889 1.312-1.35a21.677 21.677 0 005.076-10.15v-.001z" fill="url(#paint3_linear)"/><mask id="b" maskUnits="userSpaceOnUse" x="16" y="28" width="49" height="74"><path d="M16.973 28.079h47.526v73.553H16.973V28.079z" fill="#C4C4C4"/></mask><g mask="url(#b)"><g filter="url(#filter0_d)"><path d="M32.956 109.188h-9.663v-64.71a4 4 0 014-4h36.724v9.711H32.956v58.999z" fill="#fff"/></g><path d="M30.538 84.423h-4.831V44.905a2 2 0 012-2h36.308v4.856H30.538v36.662z" fill="url(#paint4_linear)"/></g><g filter="url(#filter1_d)"><path d="M28.125 87.806c8.216 0 14.876-6.693 14.876-14.95s-6.66-14.95-14.875-14.95c-8.216 0-14.876 6.693-14.876 14.95s6.66 14.95 14.875 14.95z" fill="url(#paint5_linear)"/></g><g filter="url(#filter2_i)"><path d="M28.124 82.65c5.382 0 9.745-4.385 9.745-9.794 0-5.409-4.363-9.794-9.745-9.794-5.382 0-9.745 4.385-9.745 9.794 0 5.41 4.363 9.794 9.745 9.794z" fill="#32A37F"/></g><path d="M84.87 20.705c0-11.3-9.448-20.462-21.105-20.462S42.66 9.405 42.66 20.705c0 5.592 2.314 10.639 6.047 14.345l15.514 15.04 14.463-14.923c3.82-3.703 6.186-8.818 6.186-14.462z" fill="url(#paint6_linear)"/><g filter="url(#filter3_d)"><path d="M63.63 35.075c7.721 0 13.982-6.301 13.982-14.077 0-7.775-6.26-14.077-13.982-14.077-7.721 0-13.982 6.302-13.982 14.077 0 7.776 6.26 14.077 13.982 14.077z" fill="url(#paint7_linear)"/></g></g><defs><linearGradient id="paint0_linear" x1="43" y1="109.188" x2="43" y2="22.754" gradientUnits="userSpaceOnUse"><stop offset=".495" stop-color="#A2DD9A"/><stop offset="1" stop-color="#DDF2C2"/></linearGradient><linearGradient id="paint1_linear" x1="39.851" y1="109.189" x2="39.851" y2="29.084" gradientUnits="userSpaceOnUse"><stop stop-color="#32A5D8"/><stop offset="1" stop-color="#7CCEF6"/></linearGradient><linearGradient id="paint2_linear" x1="63.936" y1="62.905" x2="63.936" y2="109.616" gradientUnits="userSpaceOnUse"><stop stop-color="#fff"/><stop offset="1" stop-color="#E6E6E6"/></linearGradient><linearGradient id="paint3_linear" x1="36.73" y1="75.366" x2="54.058" y2="59.669" gradientUnits="userSpaceOnUse"><stop stop-color="#FFB24D"/><stop offset="1" stop-color="#FFDC7B"/></linearGradient><linearGradient id="paint4_linear" x1="42.032" y1="84.423" x2="42.032" y2="42.905" gradientUnits="userSpaceOnUse"><stop stop-color="#32A37F"/><stop offset="1" stop-color="#A2DD9A"/></linearGradient><linearGradient id="paint5_linear" x1="28.125" y1="57.905" x2="28.125" y2="87.806" gradientUnits="userSpaceOnUse"><stop stop-color="#fff"/><stop offset="1" stop-color="#E6E6E6"/></linearGradient><linearGradient id="paint6_linear" x1="63.765" y1=".243" x2="63.765" y2="50.09" gradientUnits="userSpaceOnUse"><stop stop-color="#FE652F"/><stop offset="1" stop-color="#FED02F"/></linearGradient><linearGradient id="paint7_linear" x1="63.63" y1="6.921" x2="63.63" y2="35.075" gradientUnits="userSpaceOnUse"><stop stop-color="#fff"/><stop offset="1" stop-color="#E6E6E6"/></linearGradient><filter id="filter0_d" x="17.293" y="38.478" width="52.724" height="80.71" filterUnits="userSpaceOnUse" color-interpolation-filters="sRGB"><feFlood flood-opacity="0" result="BackgroundImageFix"/><feColorMatrix in="SourceAlpha" values="0 0 0 0 0 0 0 0 0 0 0 0 0 0 0 0 0 0 127 0" result="hardAlpha"/><feOffset dy="4"/><feGaussianBlur stdDeviation="3"/><feColorMatrix values="0 0 0 0 0 0 0 0 0 0 0 0 0 0 0 0 0 0 0.15 0"/><feBlend in2="BackgroundImageFix" result="effect1_dropShadow"/><feBlend in="SourceGraphic" in2="effect1_dropShadow" result="shape"/></filter><filter id="filter1_d" x="5.25" y="54.906" width="45.751" height="45.9" filterUnits="userSpaceOnUse" color-interpolation-filters="sRGB"><feFlood flood-opacity="0" result="BackgroundImageFix"/><feColorMatrix in="SourceAlpha" values="0 0 0 0 0 0 0 0 0 0 0 0 0 0 0 0 0 0 127 0" result="hardAlpha"/><feOffset dy="5"/><feGaussianBlur stdDeviation="4"/><feColorMatrix values="0 0 0 0 0 0 0 0 0 0 0 0 0 0 0 0 0 0 0.25 0"/><feBlend in2="BackgroundImageFix" result="effect1_dropShadow"/><feBlend in="SourceGraphic" in2="effect1_dropShadow" result="shape"/></filter><filter id="filter2_i" x="18.379" y="63.062" width="19.49" height="23.588" filterUnits="userSpaceOnUse" color-interpolation-filters="sRGB"><feFlood flood-opacity="0" result="BackgroundImageFix"/><feBlend in="SourceGraphic" in2="BackgroundImageFix" result="shape"/><feColorMatrix in="SourceAlpha" values="0 0 0 0 0 0 0 0 0 0 0 0 0 0 0 0 0 0 127 0" result="hardAlpha"/><feOffset dy="4"/><feGaussianBlur stdDeviation="3"/><feComposite in2="hardAlpha" operator="arithmetic" k2="-1" k3="1"/><feColorMatrix values="0 0 0 0 0 0 0 0 0 0 0 0 0 0 0 0 0 0 0.25 0"/><feBlend in2="shape" result="effect1_innerShadow"/></filter><filter id="filter3_d" x="29.648" y="1.921" width="67.964" height="68.154" filterUnits="userSpaceOnUse" color-interpolation-filters="sRGB"><feFlood flood-opacity="0" result="BackgroundImageFix"/><feColorMatrix in="SourceAlpha" values="0 0 0 0 0 0 0 0 0 0 0 0 0 0 0 0 0 0 127 0" result="hardAlpha"/><feOffset dy="15"/><feGaussianBlur stdDeviation="10"/><feColorMatrix values="0 0 0 0 0.529167 0 0 0 0 0.34559 0 0 0 0 0.130087 0 0 0 0.2 0"/><feBlend in2="BackgroundImageFix" result="effect1_dropShadow"/><feBlend in="SourceGraphic" in2="effect1_dropShadow" result="shape"/></filter></defs></svg>