<?xml version="1.0" standalone="no"?>
<!DOCTYPE svg PUBLIC "-//W3C//DTD SVG 20010904//EN"
 "http://www.w3.org/TR/2001/REC-SVG-20010904/DTD/svg10.dtd">
<svg version="1.0" xmlns="http://www.w3.org/2000/svg"
 width="512.000000pt" height="512.000000pt" viewBox="0 0 512.000000 512.000000"
 preserveAspectRatio="xMidYMid meet">
<metadata>
Created by potrace 1.14, written by Peter Selinger 2001-2017
</metadata>
<g transform="translate(0.000000,512.000000) scale(0.100000,-0.100000)"
fill="#000000" stroke="none">
<path d="M1515 4944 c-343 -55 -598 -323 -631 -664 -1 -14 -2 -28 -3 -31 -1
-3 -17 -6 -37 -7 -137 -5 -323 -91 -443 -205 -43 -41 -121 -140 -121 -153 0
-4 -6 -15 -13 -23 -16 -19 -52 -109 -66 -166 -45 -180 -24 -363 61 -523 33
-62 111 -164 153 -200 106 -92 245 -160 360 -177 76 -11 356 -47 407 -52 86
-8 99 4 127 119 91 370 339 682 677 852 101 51 200 87 292 106 41 8 71 21 87
38 23 23 25 31 20 81 -3 31 -8 63 -10 71 -2 8 -6 42 -10 75 -3 33 -8 71 -10
85 -5 26 -11 69 -21 155 -18 157 -106 322 -235 438 -68 62 -211 138 -304 163
-61 16 -226 26 -280 18z"/>
<path d="M3350 4928 c-310 -80 -523 -324 -555 -638 -3 -30 -8 -66 -10 -80 -4
-25 -9 -61 -21 -155 -3 -27 -9 -76 -13 -108 -7 -55 -5 -63 24 -105 2 -2 38
-11 82 -22 241 -57 438 -167 614 -340 185 -182 298 -382 355 -626 8 -36 20
-74 27 -85 17 -27 60 -32 153 -20 128 18 157 22 199 26 41 5 178 25 205 30 65
13 171 63 240 113 226 162 344 452 293 717 -7 39 -15 79 -17 90 -2 11 -18 52
-35 90 -101 221 -321 388 -556 420 -82 11 -85 13 -86 48 0 17 -2 39 -4 47 -2
8 -6 24 -9 36 -11 50 -30 110 -38 119 -4 5 -8 16 -8 25 0 22 -91 158 -141 211
-92 96 -215 169 -344 205 -92 25 -263 26 -355 2z"/>
<path d="M1169 2376 c-2 -2 -38 -7 -79 -11 -41 -4 -77 -8 -80 -10 -3 -2 -30
-6 -60 -9 -30 -4 -66 -8 -80 -10 -14 -2 -51 -7 -84 -11 -201 -26 -409 -173
-518 -365 -24 -42 -75 -172 -76 -195 -1 -5 -4 -35 -8 -65 -32 -246 63 -487
255 -653 63 -53 105 -79 211 -125 39 -17 117 -35 197 -45 29 -4 36 -11 39 -41
28 -263 182 -485 411 -592 106 -50 175 -66 298 -69 161 -5 278 27 413 112 136
86 249 232 306 396 5 16 29 171 42 272 2 22 9 72 14 110 24 168 17 209 -38
221 -346 76 -614 246 -809 510 -99 135 -194 343 -219 481 -13 74 -39 102 -95
103 -20 0 -38 -2 -40 -4z"/>
<path d="M3864 2359 c-12 -14 -31 -62 -43 -113 -106 -431 -443 -789 -866 -920
-44 -13 -96 -27 -115 -31 -53 -10 -78 -25 -86 -54 -4 -14 -7 -28 -7 -31 0 -3
4 -36 7 -74 4 -38 8 -71 10 -75 2 -3 7 -35 11 -71 7 -72 10 -100 21 -175 21
-156 63 -256 160 -377 91 -113 212 -193 364 -240 98 -30 292 -32 385 -4 316
95 493 309 547 660 2 11 10 20 18 21 8 1 35 5 60 9 186 25 357 128 487 293 36
45 100 182 119 253 17 65 23 235 11 295 -20 98 -32 134 -73 215 -66 131 -172
238 -304 308 -101 54 -152 68 -305 87 -71 9 -143 19 -160 21 -35 6 -88 12
-165 20 -49 5 -57 4 -76 -17z"/>
</g>
</svg>
